<mxfile host="app.diagrams.net" modified="2020-08-13T14:07:10.599Z" agent="5.0 (Windows NT 10.0; Win64; x64) AppleWebKit/537.36 (KHTML, like Gecko) Chrome/84.0.4147.125 Safari/537.36" etag="KegppskGmqADszB66V8x" version="13.6.2" type="github">
  <diagram id="CI3mNRYyF4VDoe5QjvxF" name="Page-1">
    <mxGraphModel dx="595" dy="762" grid="1" gridSize="10" guides="1" tooltips="1" connect="1" arrows="1" fold="1" page="1" pageScale="1" pageWidth="827" pageHeight="1169" math="0" shadow="0">
      <root>
        <mxCell id="0" />
        <mxCell id="1" parent="0" />
        <mxCell id="Mwrt2MIfaS3BiG5PvJi2-184" value="AWS" style="rounded=1;whiteSpace=wrap;html=1;align=center;verticalAlign=top;" parent="1" vertex="1">
          <mxGeometry x="850" y="740" width="910" height="400" as="geometry" />
        </mxCell>
        <mxCell id="Mwrt2MIfaS3BiG5PvJi2-172" value="Elastic Kubernetes Service (EKS)" style="rounded=1;whiteSpace=wrap;html=1;align=center;verticalAlign=top;" parent="1" vertex="1">
          <mxGeometry x="1142" y="800" width="378" height="250" as="geometry" />
        </mxCell>
        <mxCell id="Mwrt2MIfaS3BiG5PvJi2-48" value="Cloud" style="rounded=1;whiteSpace=wrap;html=1;align=center;verticalAlign=top;fillColor=#bac8d3;strokeColor=#23445d;" parent="1" vertex="1">
          <mxGeometry x="997" width="720" height="680" as="geometry" />
        </mxCell>
        <mxCell id="Mwrt2MIfaS3BiG5PvJi2-1" value="Kubernetes cluster" style="rounded=1;whiteSpace=wrap;html=1;verticalAlign=top;align=center;fillColor=#dae8fc;strokeColor=#6c8ebf;" parent="1" vertex="1">
          <mxGeometry x="1117" y="160" width="490" height="500" as="geometry" />
        </mxCell>
        <mxCell id="Mwrt2MIfaS3BiG5PvJi2-2" value="" style="html=1;points=[];align=center;image;fontSize=12;image=img/lib/mscae/Kubernetes.svg;" parent="1" vertex="1">
          <mxGeometry x="1347" y="180" width="30" height="30" as="geometry" />
        </mxCell>
        <mxCell id="Mwrt2MIfaS3BiG5PvJi2-3" value="ELM namespace" style="rounded=1;whiteSpace=wrap;html=1;align=center;verticalAlign=top;fillColor=#f8cecc;strokeColor=#b85450;" parent="1" vertex="1">
          <mxGeometry x="1137" y="210" width="210" height="300" as="geometry" />
        </mxCell>
        <mxCell id="Mwrt2MIfaS3BiG5PvJi2-4" value="" style="html=1;dashed=0;whitespace=wrap;fillColor=#2875E2;strokeColor=#ffffff;points=[[0.005,0.63,0],[0.1,0.2,0],[0.9,0.2,0],[0.5,0,0],[0.995,0.63,0],[0.72,0.99,0],[0.5,1,0],[0.28,0.99,0]];shape=mxgraph.kubernetes.icon;prIcon=ns;align=center;" parent="1" vertex="1">
          <mxGeometry x="1232" y="230" width="30" height="30" as="geometry" />
        </mxCell>
        <mxCell id="Mwrt2MIfaS3BiG5PvJi2-55" style="edgeStyle=orthogonalEdgeStyle;rounded=0;orthogonalLoop=1;jettySize=auto;html=1;exitX=0;exitY=0.5;exitDx=0;exitDy=0;entryX=0;entryY=0.5;entryDx=0;entryDy=0;strokeWidth=2;" parent="1" source="Mwrt2MIfaS3BiG5PvJi2-6" target="Mwrt2MIfaS3BiG5PvJi2-47" edge="1">
          <mxGeometry relative="1" as="geometry">
            <Array as="points">
              <mxPoint x="1097" y="310" />
              <mxPoint x="1097" y="90" />
            </Array>
          </mxGeometry>
        </mxCell>
        <mxCell id="Mwrt2MIfaS3BiG5PvJi2-6" value="ELM web" style="rounded=1;whiteSpace=wrap;html=1;align=center;verticalAlign=top;" parent="1" vertex="1">
          <mxGeometry x="1187" y="280" width="120" height="60" as="geometry" />
        </mxCell>
        <mxCell id="Mwrt2MIfaS3BiG5PvJi2-5" value="" style="html=1;dashed=0;whitespace=wrap;fillColor=#2875E2;strokeColor=#ffffff;points=[[0.005,0.63,0],[0.1,0.2,0],[0.9,0.2,0],[0.5,0,0],[0.995,0.63,0],[0.72,0.99,0],[0.5,1,0],[0.28,0.99,0]];shape=mxgraph.kubernetes.icon;prIcon=pod;align=center;" parent="1" vertex="1">
          <mxGeometry x="1232" y="300" width="30" height="30" as="geometry" />
        </mxCell>
        <mxCell id="Mwrt2MIfaS3BiG5PvJi2-49" value="" style="edgeStyle=orthogonalEdgeStyle;rounded=0;orthogonalLoop=1;jettySize=auto;html=1;strokeWidth=2;" parent="1" source="Mwrt2MIfaS3BiG5PvJi2-8" target="Mwrt2MIfaS3BiG5PvJi2-34" edge="1">
          <mxGeometry relative="1" as="geometry" />
        </mxCell>
        <mxCell id="Mwrt2MIfaS3BiG5PvJi2-56" style="edgeStyle=orthogonalEdgeStyle;rounded=0;orthogonalLoop=1;jettySize=auto;html=1;exitX=0;exitY=0.5;exitDx=0;exitDy=0;strokeWidth=2;" parent="1" source="Mwrt2MIfaS3BiG5PvJi2-8" edge="1">
          <mxGeometry relative="1" as="geometry">
            <mxPoint x="1117" y="90" as="targetPoint" />
            <Array as="points">
              <mxPoint x="1097" y="390" />
              <mxPoint x="1097" y="90" />
            </Array>
          </mxGeometry>
        </mxCell>
        <mxCell id="Mwrt2MIfaS3BiG5PvJi2-8" value="ELM admin" style="rounded=1;whiteSpace=wrap;html=1;align=center;verticalAlign=top;" parent="1" vertex="1">
          <mxGeometry x="1187" y="360" width="120" height="60" as="geometry" />
        </mxCell>
        <mxCell id="Mwrt2MIfaS3BiG5PvJi2-9" value="" style="html=1;dashed=0;whitespace=wrap;fillColor=#2875E2;strokeColor=#ffffff;points=[[0.005,0.63,0],[0.1,0.2,0],[0.9,0.2,0],[0.5,0,0],[0.995,0.63,0],[0.72,0.99,0],[0.5,1,0],[0.28,0.99,0]];shape=mxgraph.kubernetes.icon;prIcon=pod;align=center;" parent="1" vertex="1">
          <mxGeometry x="1232" y="380" width="30" height="30" as="geometry" />
        </mxCell>
        <mxCell id="Mwrt2MIfaS3BiG5PvJi2-50" value="" style="edgeStyle=orthogonalEdgeStyle;rounded=0;orthogonalLoop=1;jettySize=auto;html=1;strokeWidth=2;" parent="1" source="Mwrt2MIfaS3BiG5PvJi2-10" target="Mwrt2MIfaS3BiG5PvJi2-35" edge="1">
          <mxGeometry relative="1" as="geometry" />
        </mxCell>
        <mxCell id="Mwrt2MIfaS3BiG5PvJi2-57" style="edgeStyle=orthogonalEdgeStyle;rounded=0;orthogonalLoop=1;jettySize=auto;html=1;entryX=0;entryY=0.5;entryDx=0;entryDy=0;" parent="1" source="Mwrt2MIfaS3BiG5PvJi2-10" target="Mwrt2MIfaS3BiG5PvJi2-47" edge="1">
          <mxGeometry relative="1" as="geometry">
            <Array as="points">
              <mxPoint x="1097" y="470" />
              <mxPoint x="1097" y="90" />
            </Array>
          </mxGeometry>
        </mxCell>
        <mxCell id="Mwrt2MIfaS3BiG5PvJi2-10" value="ELM calculation" style="rounded=1;whiteSpace=wrap;html=1;align=center;verticalAlign=top;" parent="1" vertex="1">
          <mxGeometry x="1187" y="440" width="120" height="60" as="geometry" />
        </mxCell>
        <mxCell id="Mwrt2MIfaS3BiG5PvJi2-11" value="" style="html=1;dashed=0;whitespace=wrap;fillColor=#2875E2;strokeColor=#ffffff;points=[[0.005,0.63,0],[0.1,0.2,0],[0.9,0.2,0],[0.5,0,0],[0.995,0.63,0],[0.72,0.99,0],[0.5,1,0],[0.28,0.99,0]];shape=mxgraph.kubernetes.icon;prIcon=pod;align=center;" parent="1" vertex="1">
          <mxGeometry x="1232" y="460" width="30" height="30" as="geometry" />
        </mxCell>
        <mxCell id="Mwrt2MIfaS3BiG5PvJi2-24" value="Grants namespace" style="rounded=1;whiteSpace=wrap;html=1;align=center;verticalAlign=top;fillColor=#f8cecc;strokeColor=#b85450;" parent="1" vertex="1">
          <mxGeometry x="1377" y="210" width="210" height="300" as="geometry" />
        </mxCell>
        <mxCell id="Mwrt2MIfaS3BiG5PvJi2-25" value="" style="html=1;dashed=0;whitespace=wrap;fillColor=#2875E2;strokeColor=#ffffff;points=[[0.005,0.63,0],[0.1,0.2,0],[0.9,0.2,0],[0.5,0,0],[0.995,0.63,0],[0.72,0.99,0],[0.5,1,0],[0.28,0.99,0]];shape=mxgraph.kubernetes.icon;prIcon=ns;align=center;" parent="1" vertex="1">
          <mxGeometry x="1472" y="230" width="30" height="30" as="geometry" />
        </mxCell>
        <mxCell id="Mwrt2MIfaS3BiG5PvJi2-157" style="edgeStyle=orthogonalEdgeStyle;rounded=0;orthogonalLoop=1;jettySize=auto;html=1;startArrow=none;startFill=0;endArrow=classic;endFill=1;strokeWidth=2;entryX=1;entryY=0.5;entryDx=0;entryDy=0;exitX=1;exitY=0.5;exitDx=0;exitDy=0;" parent="1" source="Mwrt2MIfaS3BiG5PvJi2-26" target="Mwrt2MIfaS3BiG5PvJi2-47" edge="1">
          <mxGeometry relative="1" as="geometry">
            <mxPoint x="1627" y="100" as="targetPoint" />
            <Array as="points">
              <mxPoint x="1627" y="310" />
              <mxPoint x="1627" y="90" />
            </Array>
          </mxGeometry>
        </mxCell>
        <mxCell id="Mwrt2MIfaS3BiG5PvJi2-26" value="Grants web" style="rounded=1;whiteSpace=wrap;html=1;align=center;verticalAlign=top;" parent="1" vertex="1">
          <mxGeometry x="1427" y="280" width="120" height="60" as="geometry" />
        </mxCell>
        <mxCell id="Mwrt2MIfaS3BiG5PvJi2-27" value="" style="html=1;dashed=0;whitespace=wrap;fillColor=#2875E2;strokeColor=#ffffff;points=[[0.005,0.63,0],[0.1,0.2,0],[0.9,0.2,0],[0.5,0,0],[0.995,0.63,0],[0.72,0.99,0],[0.5,1,0],[0.28,0.99,0]];shape=mxgraph.kubernetes.icon;prIcon=pod;align=center;" parent="1" vertex="1">
          <mxGeometry x="1472" y="300" width="30" height="30" as="geometry" />
        </mxCell>
        <mxCell id="Mwrt2MIfaS3BiG5PvJi2-52" value="" style="edgeStyle=orthogonalEdgeStyle;rounded=0;orthogonalLoop=1;jettySize=auto;html=1;strokeWidth=2;" parent="1" source="Mwrt2MIfaS3BiG5PvJi2-28" target="Mwrt2MIfaS3BiG5PvJi2-37" edge="1">
          <mxGeometry relative="1" as="geometry" />
        </mxCell>
        <mxCell id="Mwrt2MIfaS3BiG5PvJi2-58" style="edgeStyle=orthogonalEdgeStyle;rounded=0;orthogonalLoop=1;jettySize=auto;html=1;entryX=1;entryY=0.5;entryDx=0;entryDy=0;exitX=1;exitY=0.5;exitDx=0;exitDy=0;" parent="1" source="Mwrt2MIfaS3BiG5PvJi2-28" target="Mwrt2MIfaS3BiG5PvJi2-47" edge="1">
          <mxGeometry relative="1" as="geometry">
            <Array as="points">
              <mxPoint x="1627" y="390" />
              <mxPoint x="1627" y="90" />
            </Array>
          </mxGeometry>
        </mxCell>
        <mxCell id="Mwrt2MIfaS3BiG5PvJi2-28" value="Grants admin" style="rounded=1;whiteSpace=wrap;html=1;align=center;verticalAlign=top;" parent="1" vertex="1">
          <mxGeometry x="1427" y="360" width="120" height="60" as="geometry" />
        </mxCell>
        <mxCell id="Mwrt2MIfaS3BiG5PvJi2-29" value="" style="html=1;dashed=0;whitespace=wrap;fillColor=#2875E2;strokeColor=#ffffff;points=[[0.005,0.63,0],[0.1,0.2,0],[0.9,0.2,0],[0.5,0,0],[0.995,0.63,0],[0.72,0.99,0],[0.5,1,0],[0.28,0.99,0]];shape=mxgraph.kubernetes.icon;prIcon=pod;align=center;" parent="1" vertex="1">
          <mxGeometry x="1472" y="380" width="30" height="30" as="geometry" />
        </mxCell>
        <mxCell id="Mwrt2MIfaS3BiG5PvJi2-53" value="" style="edgeStyle=orthogonalEdgeStyle;rounded=0;orthogonalLoop=1;jettySize=auto;html=1;strokeWidth=2;" parent="1" source="Mwrt2MIfaS3BiG5PvJi2-30" target="Mwrt2MIfaS3BiG5PvJi2-38" edge="1">
          <mxGeometry relative="1" as="geometry" />
        </mxCell>
        <mxCell id="Mwrt2MIfaS3BiG5PvJi2-59" style="edgeStyle=orthogonalEdgeStyle;rounded=0;orthogonalLoop=1;jettySize=auto;html=1;entryX=1;entryY=0.5;entryDx=0;entryDy=0;" parent="1" source="Mwrt2MIfaS3BiG5PvJi2-30" target="Mwrt2MIfaS3BiG5PvJi2-47" edge="1">
          <mxGeometry relative="1" as="geometry">
            <Array as="points">
              <mxPoint x="1627" y="470" />
              <mxPoint x="1627" y="90" />
            </Array>
          </mxGeometry>
        </mxCell>
        <mxCell id="Mwrt2MIfaS3BiG5PvJi2-30" value="Grants calculation" style="rounded=1;whiteSpace=wrap;html=1;align=center;verticalAlign=top;" parent="1" vertex="1">
          <mxGeometry x="1427" y="440" width="120" height="60" as="geometry" />
        </mxCell>
        <mxCell id="Mwrt2MIfaS3BiG5PvJi2-31" value="" style="html=1;dashed=0;whitespace=wrap;fillColor=#2875E2;strokeColor=#ffffff;points=[[0.005,0.63,0],[0.1,0.2,0],[0.9,0.2,0],[0.5,0,0],[0.995,0.63,0],[0.72,0.99,0],[0.5,1,0],[0.28,0.99,0]];shape=mxgraph.kubernetes.icon;prIcon=pod;align=center;" parent="1" vertex="1">
          <mxGeometry x="1472" y="460" width="30" height="30" as="geometry" />
        </mxCell>
        <mxCell id="Mwrt2MIfaS3BiG5PvJi2-34" value="ELM&lt;br&gt;admin data" style="shape=cylinder2;whiteSpace=wrap;html=1;boundedLbl=1;backgroundOutline=1;size=5;align=center;aspect=fixed;fillColor=#fff2cc;strokeColor=#d6b656;" parent="1" vertex="1">
          <mxGeometry x="1027" y="358.33000000000004" width="47.5" height="63.33" as="geometry" />
        </mxCell>
        <mxCell id="Mwrt2MIfaS3BiG5PvJi2-35" value="ELM&lt;br&gt;calc data" style="shape=cylinder2;whiteSpace=wrap;html=1;boundedLbl=1;backgroundOutline=1;size=5;align=center;aspect=fixed;fillColor=#fff2cc;strokeColor=#d6b656;" parent="1" vertex="1">
          <mxGeometry x="1027" y="438.33000000000004" width="47.5" height="63.33" as="geometry" />
        </mxCell>
        <mxCell id="Mwrt2MIfaS3BiG5PvJi2-36" value="payment data" style="shape=cylinder2;whiteSpace=wrap;html=1;boundedLbl=1;backgroundOutline=1;size=5;align=center;aspect=fixed;fillColor=#fff2cc;strokeColor=#d6b656;" parent="1" vertex="1">
          <mxGeometry x="1027" y="563.33" width="47.5" height="63.33" as="geometry" />
        </mxCell>
        <mxCell id="Mwrt2MIfaS3BiG5PvJi2-37" value="Grants&lt;br&gt;admin data" style="shape=cylinder2;whiteSpace=wrap;html=1;boundedLbl=1;backgroundOutline=1;size=5;align=center;aspect=fixed;fillColor=#fff2cc;strokeColor=#d6b656;" parent="1" vertex="1">
          <mxGeometry x="1647" y="358.33" width="47.5" height="63.33" as="geometry" />
        </mxCell>
        <mxCell id="Mwrt2MIfaS3BiG5PvJi2-38" value="Grants&lt;br&gt;calc data" style="shape=cylinder2;whiteSpace=wrap;html=1;boundedLbl=1;backgroundOutline=1;size=5;align=center;aspect=fixed;fillColor=#fff2cc;strokeColor=#d6b656;" parent="1" vertex="1">
          <mxGeometry x="1647" y="438.33" width="47.5" height="63.33" as="geometry" />
        </mxCell>
        <mxCell id="Mwrt2MIfaS3BiG5PvJi2-39" value="account data" style="shape=cylinder2;whiteSpace=wrap;html=1;boundedLbl=1;backgroundOutline=1;size=5;align=center;aspect=fixed;fillColor=#fff2cc;strokeColor=#d6b656;" parent="1" vertex="1">
          <mxGeometry x="1647" y="558.6700000000001" width="47.5" height="63.33" as="geometry" />
        </mxCell>
        <mxCell id="Mwrt2MIfaS3BiG5PvJi2-40" value="Payments namespace" style="rounded=1;whiteSpace=wrap;html=1;align=center;verticalAlign=top;fillColor=#f8cecc;strokeColor=#b85450;" parent="1" vertex="1">
          <mxGeometry x="1137" y="520" width="450" height="120" as="geometry" />
        </mxCell>
        <mxCell id="Mwrt2MIfaS3BiG5PvJi2-41" value="" style="html=1;dashed=0;whitespace=wrap;fillColor=#2875E2;strokeColor=#ffffff;points=[[0.005,0.63,0],[0.1,0.2,0],[0.9,0.2,0],[0.5,0,0],[0.995,0.63,0],[0.72,0.99,0],[0.5,1,0],[0.28,0.99,0]];shape=mxgraph.kubernetes.icon;prIcon=ns;align=center;" parent="1" vertex="1">
          <mxGeometry x="1347" y="540" width="30" height="30" as="geometry" />
        </mxCell>
        <mxCell id="Mwrt2MIfaS3BiG5PvJi2-51" style="edgeStyle=orthogonalEdgeStyle;rounded=0;orthogonalLoop=1;jettySize=auto;html=1;strokeWidth=2;" parent="1" source="Mwrt2MIfaS3BiG5PvJi2-43" target="Mwrt2MIfaS3BiG5PvJi2-36" edge="1">
          <mxGeometry relative="1" as="geometry" />
        </mxCell>
        <mxCell id="Mwrt2MIfaS3BiG5PvJi2-134" style="edgeStyle=orthogonalEdgeStyle;rounded=0;orthogonalLoop=1;jettySize=auto;html=1;entryX=0;entryY=0.5;entryDx=0;entryDy=0;strokeWidth=2;" parent="1" source="Mwrt2MIfaS3BiG5PvJi2-43" target="Mwrt2MIfaS3BiG5PvJi2-47" edge="1">
          <mxGeometry relative="1" as="geometry">
            <Array as="points">
              <mxPoint x="1097" y="595" />
              <mxPoint x="1097" y="90" />
            </Array>
          </mxGeometry>
        </mxCell>
        <mxCell id="Mwrt2MIfaS3BiG5PvJi2-43" value="Payment delivery" style="rounded=1;whiteSpace=wrap;html=1;align=center;verticalAlign=top;" parent="1" vertex="1">
          <mxGeometry x="1187" y="565" width="120" height="60" as="geometry" />
        </mxCell>
        <mxCell id="Mwrt2MIfaS3BiG5PvJi2-44" value="" style="html=1;dashed=0;whitespace=wrap;fillColor=#2875E2;strokeColor=#ffffff;points=[[0.005,0.63,0],[0.1,0.2,0],[0.9,0.2,0],[0.5,0,0],[0.995,0.63,0],[0.72,0.99,0],[0.5,1,0],[0.28,0.99,0]];shape=mxgraph.kubernetes.icon;prIcon=pod;align=center;" parent="1" vertex="1">
          <mxGeometry x="1232" y="585" width="30" height="30" as="geometry" />
        </mxCell>
        <mxCell id="Mwrt2MIfaS3BiG5PvJi2-54" style="edgeStyle=orthogonalEdgeStyle;rounded=0;orthogonalLoop=1;jettySize=auto;html=1;entryX=0.021;entryY=0.574;entryDx=0;entryDy=0;entryPerimeter=0;strokeWidth=2;" parent="1" source="Mwrt2MIfaS3BiG5PvJi2-45" target="Mwrt2MIfaS3BiG5PvJi2-39" edge="1">
          <mxGeometry relative="1" as="geometry" />
        </mxCell>
        <mxCell id="Mwrt2MIfaS3BiG5PvJi2-61" style="edgeStyle=orthogonalEdgeStyle;rounded=0;orthogonalLoop=1;jettySize=auto;html=1;entryX=1;entryY=0.5;entryDx=0;entryDy=0;strokeWidth=2;" parent="1" source="Mwrt2MIfaS3BiG5PvJi2-45" target="Mwrt2MIfaS3BiG5PvJi2-47" edge="1">
          <mxGeometry relative="1" as="geometry">
            <Array as="points">
              <mxPoint x="1627" y="595" />
              <mxPoint x="1627" y="90" />
            </Array>
          </mxGeometry>
        </mxCell>
        <mxCell id="Mwrt2MIfaS3BiG5PvJi2-45" value="Accounting" style="rounded=1;whiteSpace=wrap;html=1;align=center;verticalAlign=top;" parent="1" vertex="1">
          <mxGeometry x="1427" y="565" width="120" height="60" as="geometry" />
        </mxCell>
        <mxCell id="Mwrt2MIfaS3BiG5PvJi2-46" value="" style="html=1;dashed=0;whitespace=wrap;fillColor=#2875E2;strokeColor=#ffffff;points=[[0.005,0.63,0],[0.1,0.2,0],[0.9,0.2,0],[0.5,0,0],[0.995,0.63,0],[0.72,0.99,0],[0.5,1,0],[0.28,0.99,0]];shape=mxgraph.kubernetes.icon;prIcon=pod;align=center;" parent="1" vertex="1">
          <mxGeometry x="1472" y="585" width="30" height="30" as="geometry" />
        </mxCell>
        <mxCell id="Mwrt2MIfaS3BiG5PvJi2-47" value="Message Broker" style="rounded=1;whiteSpace=wrap;html=1;align=center;fillColor=#e1d5e7;strokeColor=#9673a6;" parent="1" vertex="1">
          <mxGeometry x="1117" y="60" width="490" height="60" as="geometry" />
        </mxCell>
        <mxCell id="Mwrt2MIfaS3BiG5PvJi2-62" value="" style="shape=umlActor;verticalLabelPosition=bottom;verticalAlign=top;html=1;outlineConnect=0;fontSize=11;" parent="1" vertex="1">
          <mxGeometry x="902" y="280" width="10" height="20" as="geometry" />
        </mxCell>
        <mxCell id="Mwrt2MIfaS3BiG5PvJi2-63" value="" style="shape=umlActor;verticalLabelPosition=bottom;verticalAlign=top;html=1;outlineConnect=0;fontSize=11;" parent="1" vertex="1">
          <mxGeometry x="917" y="280" width="10" height="20" as="geometry" />
        </mxCell>
        <mxCell id="Mwrt2MIfaS3BiG5PvJi2-64" value="" style="shape=umlActor;verticalLabelPosition=bottom;verticalAlign=top;html=1;outlineConnect=0;fontSize=11;" parent="1" vertex="1">
          <mxGeometry x="933" y="280" width="10" height="20" as="geometry" />
        </mxCell>
        <mxCell id="Mwrt2MIfaS3BiG5PvJi2-65" value="Delivery team" style="text;html=1;strokeColor=none;fillColor=none;align=center;verticalAlign=middle;whiteSpace=wrap;rounded=0;" parent="1" vertex="1">
          <mxGeometry x="892" y="313" width="60" height="20" as="geometry" />
        </mxCell>
        <mxCell id="Mwrt2MIfaS3BiG5PvJi2-66" value="" style="shape=umlActor;verticalLabelPosition=bottom;verticalAlign=top;html=1;outlineConnect=0;fontSize=11;" parent="1" vertex="1">
          <mxGeometry x="837" y="280" width="10" height="20" as="geometry" />
        </mxCell>
        <mxCell id="Mwrt2MIfaS3BiG5PvJi2-67" value="" style="shape=umlActor;verticalLabelPosition=bottom;verticalAlign=top;html=1;outlineConnect=0;fontSize=11;" parent="1" vertex="1">
          <mxGeometry x="852" y="280" width="10" height="20" as="geometry" />
        </mxCell>
        <mxCell id="Mwrt2MIfaS3BiG5PvJi2-68" value="" style="shape=umlActor;verticalLabelPosition=bottom;verticalAlign=top;html=1;outlineConnect=0;fontSize=11;" parent="1" vertex="1">
          <mxGeometry x="868" y="280" width="10" height="20" as="geometry" />
        </mxCell>
        <mxCell id="Mwrt2MIfaS3BiG5PvJi2-69" value="Business team" style="text;html=1;strokeColor=none;fillColor=none;align=center;verticalAlign=middle;whiteSpace=wrap;rounded=0;" parent="1" vertex="1">
          <mxGeometry x="827" y="313" width="60" height="20" as="geometry" />
        </mxCell>
        <mxCell id="Mwrt2MIfaS3BiG5PvJi2-70" value="" style="shape=flexArrow;endArrow=classic;html=1;strokeColor=none;" parent="1" edge="1">
          <mxGeometry width="50" height="50" relative="1" as="geometry">
            <mxPoint x="892" y="363" as="sourcePoint" />
            <mxPoint x="897.625" y="369" as="targetPoint" />
          </mxGeometry>
        </mxCell>
        <mxCell id="Mwrt2MIfaS3BiG5PvJi2-71" value="" style="shape=umlActor;verticalLabelPosition=bottom;verticalAlign=top;html=1;outlineConnect=0;fontSize=11;" parent="1" vertex="1">
          <mxGeometry x="902" y="360" width="10" height="20" as="geometry" />
        </mxCell>
        <mxCell id="Mwrt2MIfaS3BiG5PvJi2-72" value="" style="shape=umlActor;verticalLabelPosition=bottom;verticalAlign=top;html=1;outlineConnect=0;fontSize=11;" parent="1" vertex="1">
          <mxGeometry x="917" y="360" width="10" height="20" as="geometry" />
        </mxCell>
        <mxCell id="Mwrt2MIfaS3BiG5PvJi2-73" value="" style="shape=umlActor;verticalLabelPosition=bottom;verticalAlign=top;html=1;outlineConnect=0;fontSize=11;" parent="1" vertex="1">
          <mxGeometry x="933" y="360" width="10" height="20" as="geometry" />
        </mxCell>
        <mxCell id="Mwrt2MIfaS3BiG5PvJi2-74" value="Delivery team" style="text;html=1;strokeColor=none;fillColor=none;align=center;verticalAlign=middle;whiteSpace=wrap;rounded=0;" parent="1" vertex="1">
          <mxGeometry x="892" y="393" width="60" height="20" as="geometry" />
        </mxCell>
        <mxCell id="Mwrt2MIfaS3BiG5PvJi2-75" value="" style="shape=umlActor;verticalLabelPosition=bottom;verticalAlign=top;html=1;outlineConnect=0;fontSize=11;" parent="1" vertex="1">
          <mxGeometry x="837" y="360" width="10" height="20" as="geometry" />
        </mxCell>
        <mxCell id="Mwrt2MIfaS3BiG5PvJi2-76" value="" style="shape=umlActor;verticalLabelPosition=bottom;verticalAlign=top;html=1;outlineConnect=0;fontSize=11;" parent="1" vertex="1">
          <mxGeometry x="852" y="360" width="10" height="20" as="geometry" />
        </mxCell>
        <mxCell id="Mwrt2MIfaS3BiG5PvJi2-77" value="" style="shape=umlActor;verticalLabelPosition=bottom;verticalAlign=top;html=1;outlineConnect=0;fontSize=11;" parent="1" vertex="1">
          <mxGeometry x="868" y="360" width="10" height="20" as="geometry" />
        </mxCell>
        <mxCell id="Mwrt2MIfaS3BiG5PvJi2-78" value="Business team" style="text;html=1;strokeColor=none;fillColor=none;align=center;verticalAlign=middle;whiteSpace=wrap;rounded=0;" parent="1" vertex="1">
          <mxGeometry x="827" y="393" width="60" height="20" as="geometry" />
        </mxCell>
        <mxCell id="Mwrt2MIfaS3BiG5PvJi2-79" value="" style="shape=flexArrow;endArrow=classic;html=1;strokeColor=none;" parent="1" edge="1">
          <mxGeometry width="50" height="50" relative="1" as="geometry">
            <mxPoint x="892" y="443" as="sourcePoint" />
            <mxPoint x="897.625" y="449" as="targetPoint" />
          </mxGeometry>
        </mxCell>
        <mxCell id="Mwrt2MIfaS3BiG5PvJi2-80" value="" style="shape=umlActor;verticalLabelPosition=bottom;verticalAlign=top;html=1;outlineConnect=0;fontSize=11;" parent="1" vertex="1">
          <mxGeometry x="902" y="440" width="10" height="20" as="geometry" />
        </mxCell>
        <mxCell id="Mwrt2MIfaS3BiG5PvJi2-81" value="" style="shape=umlActor;verticalLabelPosition=bottom;verticalAlign=top;html=1;outlineConnect=0;fontSize=11;" parent="1" vertex="1">
          <mxGeometry x="917" y="440" width="10" height="20" as="geometry" />
        </mxCell>
        <mxCell id="Mwrt2MIfaS3BiG5PvJi2-82" value="" style="shape=umlActor;verticalLabelPosition=bottom;verticalAlign=top;html=1;outlineConnect=0;fontSize=11;" parent="1" vertex="1">
          <mxGeometry x="933" y="440" width="10" height="20" as="geometry" />
        </mxCell>
        <mxCell id="Mwrt2MIfaS3BiG5PvJi2-83" value="Delivery team" style="text;html=1;strokeColor=none;fillColor=none;align=center;verticalAlign=middle;whiteSpace=wrap;rounded=0;" parent="1" vertex="1">
          <mxGeometry x="892" y="473" width="60" height="20" as="geometry" />
        </mxCell>
        <mxCell id="Mwrt2MIfaS3BiG5PvJi2-84" value="" style="shape=umlActor;verticalLabelPosition=bottom;verticalAlign=top;html=1;outlineConnect=0;fontSize=11;" parent="1" vertex="1">
          <mxGeometry x="837" y="440" width="10" height="20" as="geometry" />
        </mxCell>
        <mxCell id="Mwrt2MIfaS3BiG5PvJi2-85" value="" style="shape=umlActor;verticalLabelPosition=bottom;verticalAlign=top;html=1;outlineConnect=0;fontSize=11;" parent="1" vertex="1">
          <mxGeometry x="852" y="440" width="10" height="20" as="geometry" />
        </mxCell>
        <mxCell id="Mwrt2MIfaS3BiG5PvJi2-86" value="" style="shape=umlActor;verticalLabelPosition=bottom;verticalAlign=top;html=1;outlineConnect=0;fontSize=11;" parent="1" vertex="1">
          <mxGeometry x="868" y="440" width="10" height="20" as="geometry" />
        </mxCell>
        <mxCell id="Mwrt2MIfaS3BiG5PvJi2-87" value="Business team" style="text;html=1;strokeColor=none;fillColor=none;align=center;verticalAlign=middle;whiteSpace=wrap;rounded=0;" parent="1" vertex="1">
          <mxGeometry x="827" y="473" width="60" height="20" as="geometry" />
        </mxCell>
        <mxCell id="Mwrt2MIfaS3BiG5PvJi2-88" value="" style="shape=flexArrow;endArrow=classic;html=1;strokeColor=none;" parent="1" edge="1">
          <mxGeometry width="50" height="50" relative="1" as="geometry">
            <mxPoint x="892" y="523" as="sourcePoint" />
            <mxPoint x="897.625" y="529" as="targetPoint" />
          </mxGeometry>
        </mxCell>
        <mxCell id="Mwrt2MIfaS3BiG5PvJi2-89" value="" style="shape=umlActor;verticalLabelPosition=bottom;verticalAlign=top;html=1;outlineConnect=0;fontSize=11;" parent="1" vertex="1">
          <mxGeometry x="902" y="565" width="10" height="20" as="geometry" />
        </mxCell>
        <mxCell id="Mwrt2MIfaS3BiG5PvJi2-90" value="" style="shape=umlActor;verticalLabelPosition=bottom;verticalAlign=top;html=1;outlineConnect=0;fontSize=11;" parent="1" vertex="1">
          <mxGeometry x="917" y="565" width="10" height="20" as="geometry" />
        </mxCell>
        <mxCell id="Mwrt2MIfaS3BiG5PvJi2-91" value="" style="shape=umlActor;verticalLabelPosition=bottom;verticalAlign=top;html=1;outlineConnect=0;fontSize=11;" parent="1" vertex="1">
          <mxGeometry x="933" y="565" width="10" height="20" as="geometry" />
        </mxCell>
        <mxCell id="Mwrt2MIfaS3BiG5PvJi2-92" value="Delivery team" style="text;html=1;strokeColor=none;fillColor=none;align=center;verticalAlign=middle;whiteSpace=wrap;rounded=0;" parent="1" vertex="1">
          <mxGeometry x="892" y="598" width="60" height="20" as="geometry" />
        </mxCell>
        <mxCell id="Mwrt2MIfaS3BiG5PvJi2-93" value="" style="shape=umlActor;verticalLabelPosition=bottom;verticalAlign=top;html=1;outlineConnect=0;fontSize=11;" parent="1" vertex="1">
          <mxGeometry x="837" y="565" width="10" height="20" as="geometry" />
        </mxCell>
        <mxCell id="Mwrt2MIfaS3BiG5PvJi2-94" value="" style="shape=umlActor;verticalLabelPosition=bottom;verticalAlign=top;html=1;outlineConnect=0;fontSize=11;" parent="1" vertex="1">
          <mxGeometry x="852" y="565" width="10" height="20" as="geometry" />
        </mxCell>
        <mxCell id="Mwrt2MIfaS3BiG5PvJi2-95" value="" style="shape=umlActor;verticalLabelPosition=bottom;verticalAlign=top;html=1;outlineConnect=0;fontSize=11;" parent="1" vertex="1">
          <mxGeometry x="868" y="565" width="10" height="20" as="geometry" />
        </mxCell>
        <mxCell id="Mwrt2MIfaS3BiG5PvJi2-96" value="Business team" style="text;html=1;strokeColor=none;fillColor=none;align=center;verticalAlign=middle;whiteSpace=wrap;rounded=0;" parent="1" vertex="1">
          <mxGeometry x="827" y="598" width="60" height="20" as="geometry" />
        </mxCell>
        <mxCell id="Mwrt2MIfaS3BiG5PvJi2-97" value="" style="shape=flexArrow;endArrow=classic;html=1;strokeColor=none;" parent="1" edge="1">
          <mxGeometry width="50" height="50" relative="1" as="geometry">
            <mxPoint x="892" y="648" as="sourcePoint" />
            <mxPoint x="897.625" y="654" as="targetPoint" />
          </mxGeometry>
        </mxCell>
        <mxCell id="Mwrt2MIfaS3BiG5PvJi2-98" value="" style="shape=umlActor;verticalLabelPosition=bottom;verticalAlign=top;html=1;outlineConnect=0;fontSize=11;" parent="1" vertex="1">
          <mxGeometry x="1842" y="280" width="10" height="20" as="geometry" />
        </mxCell>
        <mxCell id="Mwrt2MIfaS3BiG5PvJi2-99" value="" style="shape=umlActor;verticalLabelPosition=bottom;verticalAlign=top;html=1;outlineConnect=0;fontSize=11;" parent="1" vertex="1">
          <mxGeometry x="1857" y="280" width="10" height="20" as="geometry" />
        </mxCell>
        <mxCell id="Mwrt2MIfaS3BiG5PvJi2-100" value="" style="shape=umlActor;verticalLabelPosition=bottom;verticalAlign=top;html=1;outlineConnect=0;fontSize=11;" parent="1" vertex="1">
          <mxGeometry x="1873" y="280" width="10" height="20" as="geometry" />
        </mxCell>
        <mxCell id="Mwrt2MIfaS3BiG5PvJi2-101" value="Business team" style="text;html=1;strokeColor=none;fillColor=none;align=center;verticalAlign=middle;whiteSpace=wrap;rounded=0;" parent="1" vertex="1">
          <mxGeometry x="1832" y="313" width="60" height="20" as="geometry" />
        </mxCell>
        <mxCell id="Mwrt2MIfaS3BiG5PvJi2-102" value="" style="shape=umlActor;verticalLabelPosition=bottom;verticalAlign=top;html=1;outlineConnect=0;fontSize=11;" parent="1" vertex="1">
          <mxGeometry x="1777" y="280" width="10" height="20" as="geometry" />
        </mxCell>
        <mxCell id="Mwrt2MIfaS3BiG5PvJi2-103" value="" style="shape=umlActor;verticalLabelPosition=bottom;verticalAlign=top;html=1;outlineConnect=0;fontSize=11;" parent="1" vertex="1">
          <mxGeometry x="1792" y="280" width="10" height="20" as="geometry" />
        </mxCell>
        <mxCell id="Mwrt2MIfaS3BiG5PvJi2-104" value="" style="shape=umlActor;verticalLabelPosition=bottom;verticalAlign=top;html=1;outlineConnect=0;fontSize=11;" parent="1" vertex="1">
          <mxGeometry x="1808" y="280" width="10" height="20" as="geometry" />
        </mxCell>
        <mxCell id="Mwrt2MIfaS3BiG5PvJi2-105" value="Delivery team" style="text;html=1;strokeColor=none;fillColor=none;align=center;verticalAlign=middle;whiteSpace=wrap;rounded=0;" parent="1" vertex="1">
          <mxGeometry x="1767" y="313" width="60" height="20" as="geometry" />
        </mxCell>
        <mxCell id="Mwrt2MIfaS3BiG5PvJi2-106" value="" style="shape=flexArrow;endArrow=classic;html=1;strokeColor=none;" parent="1" edge="1">
          <mxGeometry width="50" height="50" relative="1" as="geometry">
            <mxPoint x="1832" y="363" as="sourcePoint" />
            <mxPoint x="1837.625" y="369" as="targetPoint" />
          </mxGeometry>
        </mxCell>
        <mxCell id="Mwrt2MIfaS3BiG5PvJi2-107" value="" style="shape=umlActor;verticalLabelPosition=bottom;verticalAlign=top;html=1;outlineConnect=0;fontSize=11;" parent="1" vertex="1">
          <mxGeometry x="1842" y="360" width="10" height="20" as="geometry" />
        </mxCell>
        <mxCell id="Mwrt2MIfaS3BiG5PvJi2-108" value="" style="shape=umlActor;verticalLabelPosition=bottom;verticalAlign=top;html=1;outlineConnect=0;fontSize=11;" parent="1" vertex="1">
          <mxGeometry x="1857" y="360" width="10" height="20" as="geometry" />
        </mxCell>
        <mxCell id="Mwrt2MIfaS3BiG5PvJi2-109" value="" style="shape=umlActor;verticalLabelPosition=bottom;verticalAlign=top;html=1;outlineConnect=0;fontSize=11;" parent="1" vertex="1">
          <mxGeometry x="1873" y="360" width="10" height="20" as="geometry" />
        </mxCell>
        <mxCell id="Mwrt2MIfaS3BiG5PvJi2-110" value="Business team" style="text;html=1;strokeColor=none;fillColor=none;align=center;verticalAlign=middle;whiteSpace=wrap;rounded=0;" parent="1" vertex="1">
          <mxGeometry x="1832" y="393" width="60" height="20" as="geometry" />
        </mxCell>
        <mxCell id="Mwrt2MIfaS3BiG5PvJi2-111" value="" style="shape=umlActor;verticalLabelPosition=bottom;verticalAlign=top;html=1;outlineConnect=0;fontSize=11;" parent="1" vertex="1">
          <mxGeometry x="1777" y="360" width="10" height="20" as="geometry" />
        </mxCell>
        <mxCell id="Mwrt2MIfaS3BiG5PvJi2-112" value="" style="shape=umlActor;verticalLabelPosition=bottom;verticalAlign=top;html=1;outlineConnect=0;fontSize=11;" parent="1" vertex="1">
          <mxGeometry x="1792" y="360" width="10" height="20" as="geometry" />
        </mxCell>
        <mxCell id="Mwrt2MIfaS3BiG5PvJi2-113" value="" style="shape=umlActor;verticalLabelPosition=bottom;verticalAlign=top;html=1;outlineConnect=0;fontSize=11;" parent="1" vertex="1">
          <mxGeometry x="1808" y="360" width="10" height="20" as="geometry" />
        </mxCell>
        <mxCell id="Mwrt2MIfaS3BiG5PvJi2-114" value="Delivery team" style="text;html=1;strokeColor=none;fillColor=none;align=center;verticalAlign=middle;whiteSpace=wrap;rounded=0;" parent="1" vertex="1">
          <mxGeometry x="1767" y="393" width="60" height="20" as="geometry" />
        </mxCell>
        <mxCell id="Mwrt2MIfaS3BiG5PvJi2-115" value="" style="shape=flexArrow;endArrow=classic;html=1;strokeColor=none;" parent="1" edge="1">
          <mxGeometry width="50" height="50" relative="1" as="geometry">
            <mxPoint x="1832" y="443" as="sourcePoint" />
            <mxPoint x="1837.625" y="449" as="targetPoint" />
          </mxGeometry>
        </mxCell>
        <mxCell id="Mwrt2MIfaS3BiG5PvJi2-116" value="" style="shape=umlActor;verticalLabelPosition=bottom;verticalAlign=top;html=1;outlineConnect=0;fontSize=11;" parent="1" vertex="1">
          <mxGeometry x="1842" y="440" width="10" height="20" as="geometry" />
        </mxCell>
        <mxCell id="Mwrt2MIfaS3BiG5PvJi2-117" value="" style="shape=umlActor;verticalLabelPosition=bottom;verticalAlign=top;html=1;outlineConnect=0;fontSize=11;" parent="1" vertex="1">
          <mxGeometry x="1857" y="440" width="10" height="20" as="geometry" />
        </mxCell>
        <mxCell id="Mwrt2MIfaS3BiG5PvJi2-118" value="" style="shape=umlActor;verticalLabelPosition=bottom;verticalAlign=top;html=1;outlineConnect=0;fontSize=11;" parent="1" vertex="1">
          <mxGeometry x="1873" y="440" width="10" height="20" as="geometry" />
        </mxCell>
        <mxCell id="Mwrt2MIfaS3BiG5PvJi2-119" value="Business team" style="text;html=1;strokeColor=none;fillColor=none;align=center;verticalAlign=middle;whiteSpace=wrap;rounded=0;" parent="1" vertex="1">
          <mxGeometry x="1827" y="473" width="60" height="20" as="geometry" />
        </mxCell>
        <mxCell id="Mwrt2MIfaS3BiG5PvJi2-120" value="" style="shape=umlActor;verticalLabelPosition=bottom;verticalAlign=top;html=1;outlineConnect=0;fontSize=11;" parent="1" vertex="1">
          <mxGeometry x="1777" y="440" width="10" height="20" as="geometry" />
        </mxCell>
        <mxCell id="Mwrt2MIfaS3BiG5PvJi2-121" value="" style="shape=umlActor;verticalLabelPosition=bottom;verticalAlign=top;html=1;outlineConnect=0;fontSize=11;" parent="1" vertex="1">
          <mxGeometry x="1792" y="440" width="10" height="20" as="geometry" />
        </mxCell>
        <mxCell id="Mwrt2MIfaS3BiG5PvJi2-122" value="" style="shape=umlActor;verticalLabelPosition=bottom;verticalAlign=top;html=1;outlineConnect=0;fontSize=11;" parent="1" vertex="1">
          <mxGeometry x="1808" y="440" width="10" height="20" as="geometry" />
        </mxCell>
        <mxCell id="Mwrt2MIfaS3BiG5PvJi2-123" value="Delivery team" style="text;html=1;strokeColor=none;fillColor=none;align=center;verticalAlign=middle;whiteSpace=wrap;rounded=0;" parent="1" vertex="1">
          <mxGeometry x="1767" y="473" width="60" height="20" as="geometry" />
        </mxCell>
        <mxCell id="Mwrt2MIfaS3BiG5PvJi2-124" value="" style="shape=flexArrow;endArrow=classic;html=1;strokeColor=none;" parent="1" edge="1">
          <mxGeometry width="50" height="50" relative="1" as="geometry">
            <mxPoint x="1832" y="523" as="sourcePoint" />
            <mxPoint x="1837.625" y="529" as="targetPoint" />
          </mxGeometry>
        </mxCell>
        <mxCell id="Mwrt2MIfaS3BiG5PvJi2-125" value="" style="shape=umlActor;verticalLabelPosition=bottom;verticalAlign=top;html=1;outlineConnect=0;fontSize=11;" parent="1" vertex="1">
          <mxGeometry x="1842" y="565" width="10" height="20" as="geometry" />
        </mxCell>
        <mxCell id="Mwrt2MIfaS3BiG5PvJi2-126" value="" style="shape=umlActor;verticalLabelPosition=bottom;verticalAlign=top;html=1;outlineConnect=0;fontSize=11;" parent="1" vertex="1">
          <mxGeometry x="1857" y="565" width="10" height="20" as="geometry" />
        </mxCell>
        <mxCell id="Mwrt2MIfaS3BiG5PvJi2-127" value="" style="shape=umlActor;verticalLabelPosition=bottom;verticalAlign=top;html=1;outlineConnect=0;fontSize=11;" parent="1" vertex="1">
          <mxGeometry x="1873" y="565" width="10" height="20" as="geometry" />
        </mxCell>
        <mxCell id="Mwrt2MIfaS3BiG5PvJi2-128" value="Business team" style="text;html=1;strokeColor=none;fillColor=none;align=center;verticalAlign=middle;whiteSpace=wrap;rounded=0;" parent="1" vertex="1">
          <mxGeometry x="1832" y="598" width="60" height="20" as="geometry" />
        </mxCell>
        <mxCell id="Mwrt2MIfaS3BiG5PvJi2-129" value="" style="shape=umlActor;verticalLabelPosition=bottom;verticalAlign=top;html=1;outlineConnect=0;fontSize=11;" parent="1" vertex="1">
          <mxGeometry x="1777" y="565" width="10" height="20" as="geometry" />
        </mxCell>
        <mxCell id="Mwrt2MIfaS3BiG5PvJi2-130" value="" style="shape=umlActor;verticalLabelPosition=bottom;verticalAlign=top;html=1;outlineConnect=0;fontSize=11;" parent="1" vertex="1">
          <mxGeometry x="1792" y="565" width="10" height="20" as="geometry" />
        </mxCell>
        <mxCell id="Mwrt2MIfaS3BiG5PvJi2-131" value="" style="shape=umlActor;verticalLabelPosition=bottom;verticalAlign=top;html=1;outlineConnect=0;fontSize=11;" parent="1" vertex="1">
          <mxGeometry x="1808" y="565" width="10" height="20" as="geometry" />
        </mxCell>
        <mxCell id="Mwrt2MIfaS3BiG5PvJi2-132" value="Delivery team" style="text;html=1;strokeColor=none;fillColor=none;align=center;verticalAlign=middle;whiteSpace=wrap;rounded=0;" parent="1" vertex="1">
          <mxGeometry x="1767" y="598" width="60" height="20" as="geometry" />
        </mxCell>
        <mxCell id="Mwrt2MIfaS3BiG5PvJi2-133" value="" style="shape=flexArrow;endArrow=classic;html=1;strokeColor=none;" parent="1" edge="1">
          <mxGeometry width="50" height="50" relative="1" as="geometry">
            <mxPoint x="1832" y="648" as="sourcePoint" />
            <mxPoint x="1837.625" y="654" as="targetPoint" />
          </mxGeometry>
        </mxCell>
        <mxCell id="Mwrt2MIfaS3BiG5PvJi2-149" value="" style="endArrow=oval;html=1;strokeWidth=2;entryX=0;entryY=0.75;entryDx=0;entryDy=0;dashed=1;endFill=1;strokeColor=#00CC00;" parent="1" target="Mwrt2MIfaS3BiG5PvJi2-6" edge="1">
          <mxGeometry width="50" height="50" relative="1" as="geometry">
            <mxPoint x="957" y="325" as="sourcePoint" />
            <mxPoint x="1397" y="350" as="targetPoint" />
          </mxGeometry>
        </mxCell>
        <mxCell id="Mwrt2MIfaS3BiG5PvJi2-150" value="" style="endArrow=oval;html=1;strokeWidth=2;entryX=0;entryY=0.75;entryDx=0;entryDy=0;dashed=1;endFill=1;strokeColor=#00CC00;" parent="1" edge="1">
          <mxGeometry width="50" height="50" relative="1" as="geometry">
            <mxPoint x="957" y="402.5" as="sourcePoint" />
            <mxPoint x="1187" y="402.5" as="targetPoint" />
          </mxGeometry>
        </mxCell>
        <mxCell id="Mwrt2MIfaS3BiG5PvJi2-151" value="" style="endArrow=oval;html=1;strokeWidth=2;entryX=0;entryY=0.75;entryDx=0;entryDy=0;dashed=1;endFill=1;strokeColor=#00CC00;" parent="1" edge="1">
          <mxGeometry width="50" height="50" relative="1" as="geometry">
            <mxPoint x="957" y="482.5" as="sourcePoint" />
            <mxPoint x="1187" y="482.5" as="targetPoint" />
          </mxGeometry>
        </mxCell>
        <mxCell id="Mwrt2MIfaS3BiG5PvJi2-152" value="" style="endArrow=oval;html=1;strokeWidth=2;entryX=0;entryY=0.75;entryDx=0;entryDy=0;dashed=1;endFill=1;strokeColor=#00CC00;" parent="1" edge="1">
          <mxGeometry width="50" height="50" relative="1" as="geometry">
            <mxPoint x="957" y="607.5" as="sourcePoint" />
            <mxPoint x="1187" y="607.5" as="targetPoint" />
          </mxGeometry>
        </mxCell>
        <mxCell id="Mwrt2MIfaS3BiG5PvJi2-153" value="" style="endArrow=none;html=1;strokeWidth=2;entryX=0;entryY=0.75;entryDx=0;entryDy=0;dashed=1;endFill=0;strokeColor=#00CC00;startArrow=oval;startFill=1;" parent="1" edge="1">
          <mxGeometry width="50" height="50" relative="1" as="geometry">
            <mxPoint x="1547" y="330" as="sourcePoint" />
            <mxPoint x="1777" y="330" as="targetPoint" />
          </mxGeometry>
        </mxCell>
        <mxCell id="Mwrt2MIfaS3BiG5PvJi2-154" value="" style="endArrow=none;html=1;strokeWidth=2;entryX=0;entryY=0.75;entryDx=0;entryDy=0;dashed=1;endFill=0;strokeColor=#00CC00;startArrow=oval;startFill=1;" parent="1" edge="1">
          <mxGeometry width="50" height="50" relative="1" as="geometry">
            <mxPoint x="1547" y="407.5" as="sourcePoint" />
            <mxPoint x="1777" y="407.5" as="targetPoint" />
          </mxGeometry>
        </mxCell>
        <mxCell id="Mwrt2MIfaS3BiG5PvJi2-155" value="" style="endArrow=none;html=1;strokeWidth=2;entryX=0;entryY=0.75;entryDx=0;entryDy=0;dashed=1;endFill=0;strokeColor=#00CC00;startArrow=oval;startFill=1;" parent="1" edge="1">
          <mxGeometry width="50" height="50" relative="1" as="geometry">
            <mxPoint x="1547" y="487.5" as="sourcePoint" />
            <mxPoint x="1777" y="487.5" as="targetPoint" />
          </mxGeometry>
        </mxCell>
        <mxCell id="Mwrt2MIfaS3BiG5PvJi2-156" value="" style="endArrow=none;html=1;strokeWidth=2;entryX=0;entryY=0.75;entryDx=0;entryDy=0;dashed=1;endFill=0;strokeColor=#00CC00;startArrow=oval;startFill=1;" parent="1" edge="1">
          <mxGeometry width="50" height="50" relative="1" as="geometry">
            <mxPoint x="1547" y="612.5" as="sourcePoint" />
            <mxPoint x="1777" y="612.5" as="targetPoint" />
          </mxGeometry>
        </mxCell>
        <mxCell id="Mwrt2MIfaS3BiG5PvJi2-159" value="Pod" style="rounded=1;whiteSpace=wrap;html=1;align=center;verticalAlign=top;" parent="1" vertex="1">
          <mxGeometry x="1360" y="840" width="150" height="200" as="geometry" />
        </mxCell>
        <mxCell id="Mwrt2MIfaS3BiG5PvJi2-161" value="" style="html=1;dashed=0;whitespace=wrap;fillColor=#2875E2;strokeColor=#ffffff;points=[[0.005,0.63,0],[0.1,0.2,0],[0.9,0.2,0],[0.5,0,0],[0.995,0.63,0],[0.72,0.99,0],[0.5,1,0],[0.28,0.99,0]];shape=mxgraph.kubernetes.icon;prIcon=pod;align=center;" parent="1" vertex="1">
          <mxGeometry x="1422.5" y="860" width="30" height="30" as="geometry" />
        </mxCell>
        <mxCell id="Mwrt2MIfaS3BiG5PvJi2-181" style="edgeStyle=orthogonalEdgeStyle;curved=1;rounded=0;orthogonalLoop=1;jettySize=auto;html=1;entryX=0.016;entryY=0.613;entryDx=0;entryDy=0;entryPerimeter=0;startArrow=none;startFill=0;endArrow=classic;endFill=1;strokeColor=#000000;strokeWidth=2;" parent="1" source="Mwrt2MIfaS3BiG5PvJi2-162" edge="1">
          <mxGeometry relative="1" as="geometry">
            <mxPoint x="1622.0100000000002" y="911.9912900000002" as="targetPoint" />
            <Array as="points">
              <mxPoint x="1560" y="930" />
              <mxPoint x="1560" y="912" />
            </Array>
          </mxGeometry>
        </mxCell>
        <mxCell id="Mwrt2MIfaS3BiG5PvJi2-182" style="edgeStyle=orthogonalEdgeStyle;curved=1;rounded=0;orthogonalLoop=1;jettySize=auto;html=1;startArrow=none;startFill=0;endArrow=classic;endFill=1;strokeColor=#000000;strokeWidth=2;" parent="1" source="Mwrt2MIfaS3BiG5PvJi2-162" target="Mwrt2MIfaS3BiG5PvJi2-215" edge="1">
          <mxGeometry relative="1" as="geometry">
            <mxPoint x="1620" y="978.0900000000001" as="targetPoint" />
          </mxGeometry>
        </mxCell>
        <mxCell id="Mwrt2MIfaS3BiG5PvJi2-162" value="Application" style="rounded=1;whiteSpace=wrap;html=1;align=center;verticalAlign=top;" parent="1" vertex="1">
          <mxGeometry x="1377.5" y="900" width="120" height="60" as="geometry" />
        </mxCell>
        <mxCell id="Mwrt2MIfaS3BiG5PvJi2-180" style="edgeStyle=orthogonalEdgeStyle;curved=1;rounded=0;orthogonalLoop=1;jettySize=auto;html=1;entryX=0.5;entryY=1;entryDx=0;entryDy=0;startArrow=none;startFill=0;endArrow=classic;endFill=1;strokeColor=#000000;strokeWidth=2;exitX=0.5;exitY=1;exitDx=0;exitDy=0;" parent="1" source="Mwrt2MIfaS3BiG5PvJi2-163" target="Mwrt2MIfaS3BiG5PvJi2-170" edge="1">
          <mxGeometry relative="1" as="geometry">
            <Array as="points">
              <mxPoint x="1220" y="1080" />
              <mxPoint x="1438" y="1080" />
            </Array>
          </mxGeometry>
        </mxCell>
        <mxCell id="Mwrt2MIfaS3BiG5PvJi2-163" value="Service Account" style="rounded=1;whiteSpace=wrap;html=1;align=center;verticalAlign=top;" parent="1" vertex="1">
          <mxGeometry x="1160" y="900" width="120" height="60" as="geometry" />
        </mxCell>
        <mxCell id="Mwrt2MIfaS3BiG5PvJi2-164" value="" style="html=1;dashed=0;whitespace=wrap;fillColor=#2875E2;strokeColor=#ffffff;points=[[0.005,0.63,0],[0.1,0.2,0],[0.9,0.2,0],[0.5,0,0],[0.995,0.63,0],[0.72,0.99,0],[0.5,1,0],[0.28,0.99,0]];shape=mxgraph.kubernetes.icon;prIcon=sa;align=center;" parent="1" vertex="1">
          <mxGeometry x="1205" y="920" width="30" height="30" as="geometry" />
        </mxCell>
        <mxCell id="Mwrt2MIfaS3BiG5PvJi2-165" value="" style="shape=image;html=1;verticalAlign=top;verticalLabelPosition=bottom;labelBackgroundColor=#ffffff;imageAspect=0;aspect=fixed;image=https://cdn3.iconfinder.com/data/icons/social-media-special/260/AWS-128.png;align=center;" parent="1" vertex="1">
          <mxGeometry x="1422.5" y="920" width="30" height="30" as="geometry" />
        </mxCell>
        <mxCell id="Mwrt2MIfaS3BiG5PvJi2-167" value="Identity and Access Management" style="rounded=1;whiteSpace=wrap;html=1;align=center;verticalAlign=top;" parent="1" vertex="1">
          <mxGeometry x="878" y="840" width="203" height="130" as="geometry" />
        </mxCell>
        <mxCell id="Mwrt2MIfaS3BiG5PvJi2-168" value="" style="outlineConnect=0;dashed=0;verticalLabelPosition=bottom;verticalAlign=top;align=center;html=1;shape=mxgraph.aws3.iam;fillColor=#759C3E;gradientColor=none;aspect=fixed;" parent="1" vertex="1">
          <mxGeometry x="972.44" y="860" width="15.56" height="30" as="geometry" />
        </mxCell>
        <mxCell id="Mwrt2MIfaS3BiG5PvJi2-169" value="Application Permissions" style="rounded=1;whiteSpace=wrap;html=1;align=center;" parent="1" vertex="1">
          <mxGeometry x="919.5" y="900" width="120" height="60" as="geometry" />
        </mxCell>
        <mxCell id="Mwrt2MIfaS3BiG5PvJi2-170" value="Token" style="rounded=1;whiteSpace=wrap;html=1;align=center;verticalAlign=top;" parent="1" vertex="1">
          <mxGeometry x="1377.5" y="970" width="120" height="60" as="geometry" />
        </mxCell>
        <mxCell id="Mwrt2MIfaS3BiG5PvJi2-175" value="" style="pointerEvents=1;shadow=0;dashed=0;html=1;strokeColor=none;fillColor=#505050;labelPosition=center;verticalLabelPosition=bottom;verticalAlign=top;outlineConnect=0;align=center;shape=mxgraph.office.security.token;" parent="1" vertex="1">
          <mxGeometry x="1427.5" y="990" width="20" height="27" as="geometry" />
        </mxCell>
        <mxCell id="Mwrt2MIfaS3BiG5PvJi2-177" value="IAM roles mapped to Kubernetes via a service account resource" style="text;html=1;strokeColor=none;fillColor=none;align=left;verticalAlign=middle;whiteSpace=wrap;rounded=0;" parent="1" vertex="1">
          <mxGeometry x="943" y="1020" width="180.5" height="40" as="geometry" />
        </mxCell>
        <mxCell id="Mwrt2MIfaS3BiG5PvJi2-178" value="" style="endArrow=classic;html=1;strokeColor=#000000;strokeWidth=2;exitX=0.5;exitY=1;exitDx=0;exitDy=0;entryX=0;entryY=0.5;entryDx=0;entryDy=0;edgeStyle=orthogonalEdgeStyle;curved=1;" parent="1" source="Mwrt2MIfaS3BiG5PvJi2-169" target="Mwrt2MIfaS3BiG5PvJi2-163" edge="1">
          <mxGeometry width="50" height="50" relative="1" as="geometry">
            <mxPoint x="1160" y="800" as="sourcePoint" />
            <mxPoint x="1210" y="750" as="targetPoint" />
            <Array as="points">
              <mxPoint x="980" y="1020" />
              <mxPoint x="1090" y="1020" />
              <mxPoint x="1090" y="930" />
            </Array>
          </mxGeometry>
        </mxCell>
        <mxCell id="Mwrt2MIfaS3BiG5PvJi2-179" value="When pod is created authentication token automatically added and refreshed through service account" style="text;html=1;strokeColor=none;fillColor=none;align=left;verticalAlign=middle;whiteSpace=wrap;rounded=0;" parent="1" vertex="1">
          <mxGeometry x="1187" y="1080" width="200" height="50" as="geometry" />
        </mxCell>
        <mxCell id="Mwrt2MIfaS3BiG5PvJi2-183" value="AWS SDK automatically uses token if it exists to authenticate with resources" style="text;html=1;strokeColor=none;fillColor=none;align=left;verticalAlign=middle;whiteSpace=wrap;rounded=0;" parent="1" vertex="1">
          <mxGeometry x="1556.5" y="1030" width="180.5" height="40" as="geometry" />
        </mxCell>
        <mxCell id="Mwrt2MIfaS3BiG5PvJi2-187" value="" style="dashed=0;outlineConnect=0;html=1;align=center;labelPosition=center;verticalLabelPosition=bottom;verticalAlign=top;shape=mxgraph.weblogos.aws;aspect=fixed;" parent="1" vertex="1">
          <mxGeometry x="1290" y="760" width="30" height="27.55" as="geometry" />
        </mxCell>
        <mxCell id="Mwrt2MIfaS3BiG5PvJi2-214" value="Message Broker" style="rounded=1;whiteSpace=wrap;html=1;align=center;verticalAlign=top;" parent="1" vertex="1">
          <mxGeometry x="1620" y="880" width="120" height="60" as="geometry" />
        </mxCell>
        <mxCell id="Mwrt2MIfaS3BiG5PvJi2-215" value="Database" style="rounded=1;whiteSpace=wrap;html=1;align=center;verticalAlign=top;" parent="1" vertex="1">
          <mxGeometry x="1621.25" y="957" width="120" height="60" as="geometry" />
        </mxCell>
        <mxCell id="Mwrt2MIfaS3BiG5PvJi2-218" value="" style="outlineConnect=0;fontColor=#232F3E;gradientColor=#F78E04;gradientDirection=north;fillColor=#D05C17;strokeColor=#ffffff;dashed=0;verticalLabelPosition=bottom;verticalAlign=top;align=center;html=1;fontSize=12;fontStyle=0;aspect=fixed;shape=mxgraph.aws4.resourceIcon;resIcon=mxgraph.aws4.eks;" parent="1" vertex="1">
          <mxGeometry x="1307" y="820" width="30" height="30" as="geometry" />
        </mxCell>
        <mxCell id="Mwrt2MIfaS3BiG5PvJi2-220" value="Azure" style="rounded=1;whiteSpace=wrap;html=1;align=center;verticalAlign=top;" parent="1" vertex="1">
          <mxGeometry x="850" y="1190" width="1077" height="480" as="geometry" />
        </mxCell>
        <mxCell id="Mwrt2MIfaS3BiG5PvJi2-221" value="Azure Kubernetes Service (AKS)" style="rounded=1;whiteSpace=wrap;html=1;align=center;verticalAlign=top;" parent="1" vertex="1">
          <mxGeometry x="1220" y="1240" width="467" height="421" as="geometry" />
        </mxCell>
        <mxCell id="Mwrt2MIfaS3BiG5PvJi2-222" value="Pod" style="rounded=1;whiteSpace=wrap;html=1;align=center;verticalAlign=top;" parent="1" vertex="1">
          <mxGeometry x="1527" y="1330" width="150" height="131" as="geometry" />
        </mxCell>
        <mxCell id="Mwrt2MIfaS3BiG5PvJi2-223" value="" style="html=1;dashed=0;whitespace=wrap;fillColor=#2875E2;strokeColor=#ffffff;points=[[0.005,0.63,0],[0.1,0.2,0],[0.9,0.2,0],[0.5,0,0],[0.995,0.63,0],[0.72,0.99,0],[0.5,1,0],[0.28,0.99,0]];shape=mxgraph.kubernetes.icon;prIcon=pod;align=center;" parent="1" vertex="1">
          <mxGeometry x="1589.5" y="1350" width="30" height="30" as="geometry" />
        </mxCell>
        <mxCell id="Mwrt2MIfaS3BiG5PvJi2-224" style="edgeStyle=orthogonalEdgeStyle;curved=1;rounded=0;orthogonalLoop=1;jettySize=auto;html=1;entryX=0.016;entryY=0.613;entryDx=0;entryDy=0;entryPerimeter=0;startArrow=none;startFill=0;endArrow=classic;endFill=1;strokeColor=#000000;strokeWidth=2;" parent="1" source="Mwrt2MIfaS3BiG5PvJi2-226" edge="1">
          <mxGeometry relative="1" as="geometry">
            <mxPoint x="1789.0100000000002" y="1401.9912900000002" as="targetPoint" />
            <Array as="points">
              <mxPoint x="1727" y="1420" />
              <mxPoint x="1727" y="1402" />
            </Array>
          </mxGeometry>
        </mxCell>
        <mxCell id="Mwrt2MIfaS3BiG5PvJi2-225" style="edgeStyle=orthogonalEdgeStyle;curved=1;rounded=0;orthogonalLoop=1;jettySize=auto;html=1;startArrow=none;startFill=0;endArrow=classic;endFill=1;strokeColor=#000000;strokeWidth=2;" parent="1" source="Mwrt2MIfaS3BiG5PvJi2-226" target="Mwrt2MIfaS3BiG5PvJi2-242" edge="1">
          <mxGeometry relative="1" as="geometry">
            <mxPoint x="1787" y="1468.0900000000001" as="targetPoint" />
          </mxGeometry>
        </mxCell>
        <mxCell id="Mwrt2MIfaS3BiG5PvJi2-265" style="edgeStyle=orthogonalEdgeStyle;curved=1;rounded=0;orthogonalLoop=1;jettySize=auto;html=1;entryX=1;entryY=0.5;entryDx=0;entryDy=0;startArrow=none;startFill=0;endArrow=classic;endFill=1;strokeColor=#000000;strokeWidth=2;exitX=0;exitY=0.5;exitDx=0;exitDy=0;" parent="1" source="Mwrt2MIfaS3BiG5PvJi2-226" target="Mwrt2MIfaS3BiG5PvJi2-255" edge="1">
          <mxGeometry relative="1" as="geometry">
            <Array as="points">
              <mxPoint x="1510" y="1420" />
              <mxPoint x="1510" y="1361" />
              <mxPoint x="1390" y="1361" />
              <mxPoint x="1390" y="1380" />
            </Array>
          </mxGeometry>
        </mxCell>
        <mxCell id="Mwrt2MIfaS3BiG5PvJi2-226" value="Application" style="rounded=1;whiteSpace=wrap;html=1;align=center;verticalAlign=top;" parent="1" vertex="1">
          <mxGeometry x="1544.5" y="1390" width="120" height="60" as="geometry" />
        </mxCell>
        <mxCell id="Mwrt2MIfaS3BiG5PvJi2-228" value="Azure Identity" style="rounded=1;whiteSpace=wrap;html=1;align=center;verticalAlign=top;" parent="1" vertex="1">
          <mxGeometry x="1540.5" y="1491" width="120" height="60" as="geometry" />
        </mxCell>
        <mxCell id="Mwrt2MIfaS3BiG5PvJi2-231" value="Identity and Access Management" style="rounded=1;whiteSpace=wrap;html=1;align=center;verticalAlign=top;" parent="1" vertex="1">
          <mxGeometry x="884" y="1303.03" width="203" height="130" as="geometry" />
        </mxCell>
        <mxCell id="Mwrt2MIfaS3BiG5PvJi2-233" value="Application Permissions" style="rounded=1;whiteSpace=wrap;html=1;align=center;" parent="1" vertex="1">
          <mxGeometry x="925.5" y="1363.03" width="120" height="60" as="geometry" />
        </mxCell>
        <mxCell id="Mwrt2MIfaS3BiG5PvJi2-239" value="Azure SDK uses token to authenticate with resources" style="text;html=1;strokeColor=none;fillColor=none;align=center;verticalAlign=middle;whiteSpace=wrap;rounded=0;" parent="1" vertex="1">
          <mxGeometry x="1708.5" y="1521" width="180.5" height="40" as="geometry" />
        </mxCell>
        <mxCell id="Mwrt2MIfaS3BiG5PvJi2-241" value="Message Broker" style="rounded=1;whiteSpace=wrap;html=1;align=center;verticalAlign=top;" parent="1" vertex="1">
          <mxGeometry x="1787" y="1370" width="120" height="60" as="geometry" />
        </mxCell>
        <mxCell id="Mwrt2MIfaS3BiG5PvJi2-242" value="Database" style="rounded=1;whiteSpace=wrap;html=1;align=center;verticalAlign=top;" parent="1" vertex="1">
          <mxGeometry x="1788.25" y="1447" width="120" height="60" as="geometry" />
        </mxCell>
        <mxCell id="Mwrt2MIfaS3BiG5PvJi2-219" value="" style="shape=image;verticalLabelPosition=bottom;labelBackgroundColor=#ffffff;verticalAlign=top;aspect=fixed;imageAspect=0;image=data:image/png,iVBORw0KGgoAAAANSUhEUgAAAgcAAAGDCAYAAAC/aLNoAAAgAElEQVR4Ae2dP64lx3XGtRSvwCvQCrgCr0Ar4KQOJlA6oSMBSglGk8mCEkEgDJiAEoqYQDAggGTgwATMgImDa5w3bEzdfv2/T9X5TtWvgYfX997u6qrv/Pu6qk7Vrx4cIAACIAACIAACIFAg8KvinFMQAAEQAAEQAAEQeEAOUAIQAAEQAAEQAIEnBCAHT3DwAQRAAARAAARAAHKADoAACIAACIAACDwhADl4goMPIAACIAACIAACkAN0AARAoCoC3/34c9XyKRwEQMAfAciBP6aUCAIg8AsCv/vLPx72xwECIJALAchBLnlRWxBIg8Db9x8e//yvf3r878//l6bOVBQEQOAjApADNAEEQMAVASMDn3/xzeOf3vzh8e6Pf3ctm8JAAATaIAA5aIMzTwGBIRCw+QX/8m//+UIMrNeA+QZDiJ1GdogA5KBDodIkEIhA4Nsffnr8+rd/fiEG9BpESIBngoAfApADPywpCQSGReDf//bfL/MLjBTYH70Gw6oCDe8EAchBJ4KkGSAQhYDNK5hIwfT/N7//a1R1eC4IgIADApADBxApAgRGRKCceDiRgun/f/zX/4wICW0GgW4QgBx0I0oaAgLtEDBiYL0DExko/9Nr0E4OPAkEaiEAOaiFLOWCQKcIzCcelsTAzuk16FTwNGsoBCAHQ4mbxoLAPQQs8NtkwzkhmD5bGiMHCIBAfgQgB/llSAtAoAkCtgzyFjEwgmBZCxwgAAL5EYAc5JchLQCBqghsTTycegzs/2fvvqpaDwoHARBohwDkoB3WPAkE0iGwNfGwJAZ2/uXX36drHxUGARBYRgBysIwL34LA8AjsTTwsyYGtjGhEggMEQKAPBCAHfciRVoCAKwJ7Ew9LYmDnbLDkCj+FgUA4ApCDcBFQARDQQuDIxMOSHNgkRXoNtGRIbUDgLgKQg7sIcj8IdIKABfi37z+spimWhKA8p9egEwWgGSBQIAA5KMDgFARGReDMxMOSGLDB0qgaQ7t7RwBy0LuEaR8I7CBgEw8tDbEM+kfPP//im53S+RkEQCAjApCDjFKjziDghMDZiYdz0mDEggMEQKA/BCAH/cmUFoHAIQTOTjycEwM2WDoEMxeBQEoEIAcpxUalQeAeAlcmHs7JARss3ZMBd4OAMgKQA2XpUDcQcEbAJh7aPIF5oD/7mV4DZ8FQHAiIIQA5EBMI1QGBWgh89+PPD9s18SwRWLq+Za8BayjU0gjKBYF1BCAH69jwCwh0g8CZpZCXyED5XcttmW2XRzIiulFDGpIIAchBImFRVRC4goAF2L2tlsvgv3fecltmG76w+pAVcUXy3AMC1xGAHFzHjjtBQB4BW71wL9if+d02WGp12HDCRGrYDroV6jwHBD4iADlAE0CgQwS8Jh7OiYOlP7Y6rIeifH7LHotWbeQ5IKCKAORAVTLUCwQuImDEYOqOL4Pr3fPW2zLP22C9CBwgAAJtEIActMGZp4BAEwQ8Jx7OyUTLDZYss2L+fPvcsg5NBMZDQEAUAciBqGCoFgicReDuUshLwXj6zt7aW6YUrs2VsHoYceAAARCoiwDkoC6+lA4CTRC4uxTyRALW/rd+Y99aj4EFmJqoFA8ZHAHIweAKQPNzI1Br4mFJElq/rdvQSPn8pXNSG3PrLbXXRwByoC8jaggCiwjUmng4D8atFyFaG1Io69UypXIRfL4Egc4RgBx0LmCa1ycCNScelkHYzlu/pVvgn9dh6fOXX3/fp3BpFQgIIAA5EBACVQCBMwjUnHg4D8Ktx/fnaxvM61N+JrXxjNZwLQicQwBycA4vrgaBUARqTzwsg6+dt9xgyYCdr20wr8/8s209zQECIOCPAOTAH1NKBAF3BGx+gQXCeXCs+bl1r4G10XoDzraJ1EZ3daNAEHhADlACEBBHoNXEw3lQbt1rcGZIoaxraxIjri5UDwRcEIAcuMBIISBQBwGbDGibDpXBsMV5y22ZJ+TODimUOLDvwoQi/0HABwHIgQ+OlAIC7gi0nHhYBlo7b50JsLZc8rxea59JbXRXPwocHAHIweAKQPM1EWg98bAMuq03WDIJWHvLOlw5b01oNDWHWoGADwKQAx8cKQUE3BBoPfFwHogtULc+tpZLntdv7XPrlRxbY8TzQKAlApCDlmjzLBDYQMAmHtpqhGvBr8X3Eb0GNq/Cq22tV3PcECc/gUBqBCAHqcVH5XtBwMbcPd6e7wbZ1hssmfyOLJd8pl2tV3TsRQdpBwiUCEAOSjQ4B4EABCyYHV0y+EyQPHutdctb70Xrw7vtEZkWrTHjeSBQGwHIQW2EKR8ENhCwFLwrC/+cDfxHro/oNbi6tsFee0ht3FA6fgKBAwhADg6AxCUgUAMB7+70vYC59XvUZL47axvstaeGzCgTBEZBAHIwiqRppwwCChMP54E1YiKf4VCz1ySiJ0RGyagICNxEAHJwE0BuB4EzCFhArPW2PA/4Zz5HTOKrNaQwtTuqN+SMPnAtCKgiADlQlQz16g4BlYmHU/Cc/kftTdCCJEW1rTvlpUHDIQA5GE7kNDgCgcilkCcSsPa/9QZLhn/tIYWyrRG9IhE6xjNBwBMByIEnmpQFAgsIRC6FXAbJpfOoN2uP5ZKX2rP0nW1cxQECIHAOAcjBOby4GgQOI6A48XAePCN6DQzA1gs+se/CYbXlQhB4QQBygCKAQAUEVCceluQg6o3auvnLerQ4t8mJHCAAAscRgBwcx4orQeAQAqoTD+dBOOptOmp9B1IbD6kvF4HACwKQAxQBBBwRUJ54WJKDiA2WJpi9l0su27V3bntYcIAACOwjADnYx4grQOAQAsoTD+dBM+otuvbaBvN2zj9HTcA8pEBcBAJCCEAOhIRBVXIiYPML3r7/0HwcfR74jn628Xerc8TRYm2DPRyiJmFG4M0zQeAqApCDq8hxHwj8kq+vEPD2AmL5e1SvgRGSmssll23cOrdhDQ4QAIFtBCAH2/jwKwisIpBl4mEZKCN7DaKHFEocoiZjrioTP4CAGAKQAzGBUJ0cCGSZeFgGRDuP6jUwqSr1sJDamMPOqGUcApCDOOx5clIEMk08LMmBBcSo2foqQwolHhE7USZVeao9IAKQgwGFTpOvI5Bp4mEZCO08Mhi2XC553u6tz1Fk6boGcicItEEActAGZ56SHAF787XguhVo1H+L3ICo9XLJR2Vh9eIAARB4jQDk4DUmfAMCTwjY26VqcDsaBCPz+yOWSz6Ki11nEyU5QAAEnhGAHDzjwScQeEIgY0bCUmCMzO23SZBLdVL5jtTGJ5XnAwi8IAA5QBFAYAUBe6NUyMu/G0Qjew0M2sjlko9iR2rjihHw9bAIQA6GFT0N30JA/W33aNCz6yK7zZXWNtjCLDKTY0sP+Q0EohCAHEQhz3MlEehh4mEZBKO2ZZ6Em2kSZ2Q2x4QX/0FABQHIgYokqEc4AkYMlBbqKYP81fPI7nLFtQ32cIzM6Ag3ACoAAgUCkIMCDE7HRaCXiYdl8LOxfgvQUUeWIYUSM1Ibo7SF56ohADlQkwj1aY5A1qWQy6C2dB65VLIJMWsvTOQcjebKzwNBYAUByMEKMHw9BgJZl0JeIgPldzbBLrLXIOOQwoSfYccBAqMjADkYXQMGbb8Fr0yT5abAdfR/dK+B6nLJWfAb1CxpthACkAMhYVCVNggYMcja5X0kuEX3GpgUs68oSWpjG1vkKboIQA50ZUPNKiDQ48TDOWGI7jUwjOd1yvg5evGoCupPkSBwGAHIwWGouDA7Ar1OPCwDr8Ibb08LSJHamN3qqf9VBCAHV5HjvlQI9DrxsCQGdq6wkE+G5ZLnuK19Zt+FVGZOZR0RgBw4gklRegjY/IK37z900c29FsDK76PfdDOubVDit3QeuZCUnkVRo1EQgByMIukB29n7xMN5IFMYI+8xA4TUxgGdB01+QA5Qgi4RGGHi4ZwcRG7LbEpkZMwC6bxePXyOnuTZpZHSKGkEIAfS4qFyVxAYYeLhPOAqLPvb45BCifN3P/58RR25BwRSIgA5SCk2Kr2GwCgTD8ugZecKS/72vHaEYawwbLOm93wPAt4IQA68EaW8MARGmnhYkoPobZlN4D0PKZRYRw/dhBkXDx4OAcjBcCLvr8EWmHqcCFcGpa1zhdn02ZdL3sK3/I3Uxv78By1aRgBysIwL3yZBwMaBsy/VWwafs+fR2zJPajKSDBTI2IQ7/0GgFgKQg1rIUm51BEbMSJiTB4VZ9CaHeb16/mwZGdZbxQECPSMAOehZuh23zSbg9Zo2dzSwqgSpnpZLPoq9wkqUHZs3TRNAAHIgIASqcA6BEYPRUtBS6DUwyfW0XPISzmvfkdp4zm65OhcCkINc8hq6tqNPPCyDlEqvQe9rG5SYz88V1pYY2iHQ+KoIQA6qwkvhXggYMeg9j34efLY+q/QajJwlYvJRWF/Cy8YoBwRKBCAHJRqcSyLAxMM/PE34s14DhS5tI2zM+/iTpM1QKRC4iwDk4C6C3F8VgRGXQt7qMbDfVFbqG3lIoZSRrfHAAQK9IQA56E2iHbVn1KWQy8CzdK6ySh/DPB97dFR6cjoyfZoigADkQEAIVOEZASYePg8jlARBpdeAIYVnGZHa+GzDfMqPAOQgvwy7agETD5+DTkkM7Fyl12CU5ZLn+G99trkxHCDQCwKQg14k2UE7mHi4TQyUUudGWi55ixCUvylsgNWBG6AJIghADkQEMXo1mHi4TQwsCKmkzY22XHJJAPbOVWQ0uj+h/fcRgBzcx5ASbiLAxMN9YqD0VsoKlevyssmJHCDQAwKQgx6kmLQNNr/g7fsPTzn8e29mo/6utBPgqMslH9U9lQWqkroFqi2CAORARBCjVYOJh+tvn/MgpLIts+koaxvsy43UxtG8WZ/thRz0KVfpVjHxcD/AlARB6U109OWSS7lsnauknEo7AionjQDkQFo8/VWOiYfniIG9hVovi8Jh9bD6bAVFfvskX1IbFbSWOlxFAHJwFTnuO40AEw8/BY6jQVSp14AhhXPys+EgDhDIigDkIKvkktWbiYfnAouRB7Wxa5ZLPi9DpYmkyVwG1Q1GAHIQLIDeH8/Ew/MBZepVUOo1YEjhmhyN4HGAQEYEIAcZpZakzratMCvpXQ8qCtsyT6rGcsnX5GhEz3rNOEAgGwKQg2wSS1JfMhKuBxMLKGqz3SF59+SpRPSSuBCqGYwA5CBYAD0+3iauMav9XjBR2WDJ9JPlku/JUpHs9eh3aJMvApADXzyHL83Gyacxc/5fCypqvQbI9Joc5/rPvgvDu8dUAEAOUolLt7I2YY0FcnyCiFKvgWkcyyX7yJXURl3/Rc1eIwA5eI0J31xAgDQ3nwCitC2zqQFrG/jIdepFILXxgnPhlhAEIAchsPf1UAKIXwBR63pmfQo/2RpBsLk41svGAQLqCEAO1CUkXj9zdLad8PRmxP/rwURpW2ZTO9Y2uC7LLTuw4TcOEFBHAHKgLiHx+jFZzS+AqHU50yPkJ9s5WSC1UdyxUb0H5AAluIyAOThSFn0CiNK2zJNCMI/ER7ZzYmCf1eaWTDLnPwhMCEAOJiT4fxoBshP8gofSUsmmCAwp+Ml2iRzYd2rzS047AG7oGgHIQdfirdc4S7dbc3p8fy6wKE5SY7nkczK8ovMmdw4QUEUAcqAqGfF6sZyuX/BQ6zUw1UO+fvLdIg5GwjhAQBEByIGiVMTrxFulX+Cwt0e1yWksl+wn3y1iYL8pyl/c/VC9RghADhoB3ctjGIv2DRyKO/aRgeIr4z2CQGpjL96xr3ZADvqSZ/XWEDh8A4e9pasdLJfsK+M9cmC/K+qBml5Sn7YIQA7a4p36aaQu+gYNtQ2WTDlZ28BXxkeIgV2jtgBWakdF5V0QgBy4wDhGIeS9+wYOtQ2WTItZLtlXxkfJgV1HauMYfjRLKyEHWSQVXE/eKH2DhmKvAfNJfGV8hhjYtaQ2Bjs5Hv+EAOTgCQ4+LCFgQYP9E3wDh2KvAQTQV8ZnyYFdr5jWuuQT+K5/BCAH/cv4dgtJXfQNGqpL5zJs5CvnK+SA1Mbb7ooCnBCAHDgB2WsxdDX7BwzFsWXk7C/nK+TA7lEccurVv9GudQQgB+vY8AsT1NyXiFadlU7vkA45MIJAaiPuNxoByEG0BISfbw7KujmvvgFx3+uAo7pcLsslv5ZVpP7aWhMcIBCJAOQgEn3xZxMwfAOG4rbMpoJGAiMDIc9e1rMvv/5e3ENQvZ4RgBz0LN0bbWPm+rLDvhPIVGeis+qlv6zv6Ml0L6mNNxwYt95GAHJwG8L+CiB10T9YmKM3XBUPlkv2l/cU4O/+V9x7Q1GHqZM/ApADf0zTl8ibpH+wUO01sPUW7gYw7vfXlxJTtV070zs4GnAIAcjBIZjGuYj9E/wdvXLuOssl+8u7DOwe56Q2juN/lVoKOVCShkBdCBb+wUJ1S14b5mBIwV/eHoRgXobi2hgC7ooqVEQAclAR3GxF08VcJ1Co5qwz6bSOvOeB3eMzqY3ZvGn++kIO8svQrQWkLvoHC+UuYZZL9pe3BxFYK4PURjdXR0EHEIAcHABphEt4i6wTKBQ3WDJ9ZrnkOvJeC+we3yvPXRnBR47WRsjBaBJfaC9jz3UChXKvAcsl15G5BwnYKkN1/sqCW+Gr5AhADpIL0KP6pC7WCRSqvQamMwwh1ZH5VmD3+o3URg+vRxl7CEAO9hDq/HdSF+sECQu+qgfLJdeRuVfw3ytHWbdUdZ56nUcAcnAes67usG7KPWfE7+eDiXLqGT1F5+WpZgPK+tWVgxy4MZCDgYVP6mKdIKGedsbaBnXk3pJAsO/CwI67UdMhB42AVnwM4851goTqtsymgxDCOjJvSQymZynrmaK/o07nEIAcnMOrm6uZrV4nSNhbueoGS6a8DCnUkfsUsFv+J7WxG3cs2RDIgaRY6laKHPd6AUJ1gyXTKFJW68m9JSkon0VqY11fOXLpkIMBpc/bY50gYW9yyr0GLHRVR+5lsI44V12ee0DX2lWTIQddiXO/MaQu1gsQyr0Gphksl1xP9hGkYHrmZ+++2jd8rgCBkwhADk4Clv1yAkSdAKE+/stQUh25TwE6+j/7LmT3zHr1hxzoyaRajehWrhcg1Md+mYBaT/bRxMCeT2pjNbc5bMGQg0FEb2+O1v2o4Mh6rIP6uC9pq32TA7Mp9WGtQVxtN82EHHQjyu2G8OZYLzgob7BkWsFyyfVkr0Z02Xdh2w/y63EEIAfHsUp7JePNdYOD8gZLprRkp9SVvxJBUCeqaZ3ogBWHHAwg9LfvPzCc8KZOgMjgjFkuuY7slUhBWRf1Ia4BXG4XTYQcdCHG9UbYW61NViqdB+d+wUK914AhBT9ZZ7Eb9b091r0VvyghADlQkkaFujARrV5wyLB1LkMK9eSvTBZIbazgTAcrEnLQscBJXawbGNQdsM01YUihrg6oEgRSGzt27I2aBjloBHTrx5C6WDcoqG+wZPoGOayrA6rEYKqX+tobrX0izzuHAOTgHF5prqY7uW5gyJBTzmqYdXVgCsLK/0ltTOOy5SoKOZATyf0KsX9C3aBgXbbWM6N8kL5aVweUCUFZtwzZNMp2NHLdIAcdSt+6E0sHwblvoMjQa8CiV74yz2xDNrzEAQJnEYAcnEVM/HpLrcvsyNTrnqHXwFSULBXIwWRLpDaKO23R6kEORAVztVoEhbpBIUOvAWsb1NWBKehm+q+eWXPV33FfPQQgB/WwbV6yOYBMDitbXa3XIMMELyajQg7mtpVFd5s7TR64igDkYBWaXD+Q014/IGRJDWNtg/q6MA++GT5n0d9cnrff2kIOOpEtb4v1A0KGNesZUqivBxmIwFodM+hwJy45fTMgB+lF+Hjp6rZuwzWHwPf3A0aWlDBI4n1Z92wvGZb87sAld9EEyEEHYiR1sX5AUN9gydSYoaX6etADcSC1sQOn36AJkIMGINd8BEvk1g8IWXoN0IX6utADObBeRg4Q2EMAcrCHkPjvpC7WDwhZ3rRYLrm+LvRADqwNGVJyxV1v99WDHCQWMavg1Q8Gn737KoWGsFxyfV3ohRhYO0htTGHWoZWEHITCf/3hBIM2wSDL4jEQxTb60BNByDJcdt1LcucdBCAHd9ALvJdZ6fWDQYZtmScVZHipvj70RAymtpDaOFkQ/+cIQA7miCT4zK6LbQJBlnFZ1jZoow9TQO3pf5ZhswRuubsqQg4SipS3xPrBwMZkbegmw0EvUn196IkQzNuSZegsgy32VEfIQTJpkq7WJhBk6TUw9WW55DY6MQ+qvXwmtTFZEGhUXchBI6A9HmNvstYN2ItTUm1Hpl4DhhQgBh52lIkMe/hSythHAHKwj5HMFcxIbxMIMjlKhhTa6IRHAFYvI8OOozLOeICKQA6SCJnUxTZBIFP+t+kEQwpt9EI9sHvUj9TGJMGgUTUhB42AvvuYt+8/MJzwpn4gyLStLfNP6uuDR9DNVEaGPUTu+lLuP4YA5OAYTqFXmcHaG20mJ5O1rpnyviEHkANvO7OeKA4QMAQgBwn0gNTFNkEgY7cqO3K20Q3vIKxcHqmNCYJCgypCDhqAfOcRvB22c/5Zu1Qhj+10RDmoe9WN1MY7HrufeyEHwrIkdbGd08/YazCpLnrSTk+8ArB6OZnm3kx2wH9fBCAHvni6lkaaWjunbz00mQ+yWdrpinpg96ofqY2ZPcL9ukMO7mNYpQT2T2jn7HtZX54FkdrpjFcAVi7Hhqs4xkUAciAqeyaatXP0PU3AYo5KO71RDuxedcveoybq3lNUC3IgKCabGOdl3JSzHSwybct8VFUhltsyxyaO40Nq41Gr6+86yIGgTJl9ftx53XX0mZZKPqOqNsHyLjbc304PlbHuqWftjA2Nfi3kQEwD2D+hnUPOtMHSFTVlk652uqQc3O/WLdOS4lfshHuWEYAcLOMS8i1r5bd15r32GkzKSwZDW326G4SV7ye1cbKqcf5DDoRkTepiO2fee6/BpNZkMLTTKeXg7lG3TEuLT/rP/+sIQA6uY+d6J6mLbZ14770GpXIywbWtbnkEYsUyekn5LW2D83UEIAfr2DT9hRnm7Rz4iGOo7OrZTr8UA7tXnUhtbBoWQh8GOQiF/+PDyU1v67gzL5V8R13JYGirZ14BWakcI9YcYyAAOQiWs00aI3WxrdMeeeyUDIa2uqYU2L3qMtKQXHB4CH085CAU/seD1MW2znrUXoNJzcmIaatvXgFZqZwRh+Um+xnpP+QgUNqkmrV31Fm3ZfZUUzIY2uudUnD3qMvoJNvTHlXLghwESobUxbZOmo1kPik7GQxtdc8jIKuVMfLw3CdL6vcMchAkW1IX2ztnZlo/KztDWu11UC3A36kP+y4821NvnyAHQRJlEmJbx0yO9rKik0LbVg/vBGPFe9l3YdmuevgWchAgRVIX2ztknNi6okNU2+ujYqC/UidSG9ftKvsvkIPGErRJiKSTtXXGPW7L7Km2ZDC01ccrQVj5HlIbPa1RpyzIQWNZMAmxvSPGee0ruc2BUQ5A1K293ZzB3PSHoy8EIAcN5UnqYnsHZ92ehjvHPgJkMLTXzzMBWPlaUhv37SvbFZCDhhJjffv2zpdeg3MKbnMzlIMQdWtvQ0cxZw2Rc7amfjXkoJGEeCtr79RYye2acpPB0F5XjwZg5etIbbxmb6p3QQ4aSYYZ4e0dLr0G15UbfW2vr8qB/2jdyAq6bnNqd0IOGkiE1MX2jpZeg3uKTVZNe509GoCVr2OOzz27U7obclBZGjjZGCfLBKn7is0qnjG6qxz8j9TNhqU48iMAOagsQ1IXYxwsk6N8FJu5MjH6eyQIK19DaqOP/UWWAjmoiD5vXjGOlV4DX6UmgyFGj5WD/17dbM4KR24EIAcV5ces7xinSq+Bv1KjyzG6vBeElX9nozN/O2xZIuSgEtp0x8Y4U95YKin04/EggyFGp5UJwFbdbHIiR14EIAeVZIcjjXGkvK1UUujH42WlSfYFidHrrSCs/JttC86REwHIQQW5mUEoG2yvdWNb5grKPCuSeTSQgzP+g5TimQEl+gg5cBYW+yfEOU8WYHFW5pXiGDKL0/EzgVnlWlIbVwxJ/GvIgbOASF2McZxsy+ysyDvFsbBXjJ6rBPyz9fj2h592NIqf1RCAHDhKhC7XOIfJUsmOinywKDIY4vT9bHCOvp4hv4NGJXQZ5MBRGJZfH22EIz6fJVsdlfhkUeg8BOGoz2Gy8EnjCr4ccuAkALpZ45wkvQZOSnyhGJYHj9P7o0FZ5TpSGy8YWOAtkAMH8HGQcQ6S2dAOCnyzCCbhxum/SuA/Wg+I/E1ja3g75MABbFIX45zj2/cfHCRIEXcRsAlnRwME18XZSzT2kPm7ltbufsjBTax5a4pzdOZomAV9U4Edb2doLc4WooP+meez94mj0VUsCnJwE1x7cz1jGFzr50BxMjeVt8Lt2IOffvfsKyD1FYzPuUjIwQ1ATcHt7bVnI1ZuGxss3VDeireSwQBB2PMbti4JhzYCkIMb8mH/hDgnSK/BDcVtcCt7MMTZxl5gVvmdFU0bGOKNR0AOLoLH+Gqs86PX4KLiNrrN5uLY26FKIKIesfa6hL/1unLoIgA5uCAbUhdjHQ3bMl9Q2oBbyGCItZOlgKz2HdlGAYZ58JGQg4NAlZexf0Ks02OltVIbtc/ZpCnWVtTIwFJ9bNl5Dj0EIAcnZcL+CbHOjjXaTyqswOWsAxJrM0sBWek75g8JGOlCFSAHC6BsfUWqVqyjs0DDkQ8BMhhi7UaJDCzVhd5APZuGHJyQCV2ksQ6ObZlPKKvgpWQwxNrPUlBW+Y7URj2DhRyckAmpi7HOjXXZTyir4KVkMMTajwoRWKsHqY1aRgs5OCgPUhdjHZulPVlw4ciNgM3ZWQsOfB9rY9H4Y+Natg05OCAP3njinRa9BgcUNcklDM/F21M0Eb2c6HMAAA8CSURBVFh7/udffJNEi/uvJuTggIxJXYx1ZvZGQbrTAUVNdAkZDLE2tRacFb7H1jUMGXKwIwdSF+OdGG8TO0qa9GeTq0Iwog7xNl7KgEXONAwacrAjBxxYvONgB7cdJU38M5N84+2rDMwq56Q2xhs15GBDBoyNxjsuFkjZUNAOfmI+T7yNqRCCsh7suxBv3JCDDRnwVhPvuIygcfSNABkM8XZWBmaVcxY8i7V7yMEK/kyYindY9BqsKGeHX9NLF29vKqRgqgcTkWMNHXKwgL91dZpiTkrK/xjHRa/BgnJ2/JUtgoOtxdiaKu5MRo4zeMjBAvakLsY7KGYsLyjmAF8xATje9tSIAhOSYwwfcjDDndRFDefEbOWZYg70kbk+GjaoQhLYiTXG+CEHM9zZPS7eMbEJy0wpB/tow3ps0hRvhyrkwOrBy0J7JwA5KDBn/wQNh8Qs5UIpBz2lB0/DFlUIAqmN7R0B5OAXzHlb0XBGbMvc3gmoPpEMBg2bVCEI7K/S1lIhB7/gTeqihiPCAbR1AOpPozdPwy4VCAKpjW2tFXLweLxsBUzqYrwTMhlYDw4HCJQIkMEQb5sK5MDqwNonpWXUPYccPB6Pt+8/kF/9Jt4B0WtQ19gzl04GQ7x9qhAEUhvbWPLw5MDGNek1iHc8dBm2MfisT2FOULyNqpADspnaWPHw5IA3Eg2nw0pobQw+81OMIEDkNew1mijYapocdREYmhww2UnH0dBVWNfQeymdDAYdm40kCEYSOeoiMCw5oJtSx8kwyaiukfdWOqRex3YjCYLNFeOoh8Cw5ID9E3QcDBss1TPwXksmg0HHfiMJgi2WxVEHgSHJAauv6TgWeg3qGPYIpbLUuY4dRxEE/Ec9Sx+SHPDWoeNU6DWoZ9y9l8zQoI4dR5EDe64NM3H4IzAcOWBCk45DYVtmf4MerUQyGHTsOYogkNpYx+qHIwekLuo4E9KR6hj1aKVapktUYOK5Gv4EX+Jv9UORA1MgjFnDmNlgyd+YRy6RHkENu47yryyi5m/9w5AD6360gBSlvDz32XmxLbO/MY9eIsugP9vYaD6HhdR8PcAw5IDURR3HYSzfyBoHCHgjQAaDjp1HkBMWU/OzqCHIAamLWg6DDZb8DJiSXiPw2buv6CEU2Egtghwwyfm1PVz9ZghyQOqiDjmg1+CqqXLfUQQYQtSx9wiCQGrjUUvZvq57csBSq1qOgl6DbYPkVx8EyGDQsvuWJIF9F3xsqHtyQOqijpNgRrGP0VLKMQTIYNCx/ZbkwJ7FS8gxG9m6qmtyYDPiWyslz1t3SMwm3jJFfquBAD5g3R579lW8iNy3pm7JASun6TkFZhLfN1hKOI8AGQx6vqAFMWHfhfO2Ut7RLTkgdVHLIWCopdlx3hoBMhi0/EELcmDP4IXkuqV1SQ5IXdRzBGywdN1IufM+AmQw6PmEFgTBSCHHNQS6JAdMQtRyBPQaXDNO7vJFwF4aWgQknqHlf9h34ZoddUcOSF3UMkxzlOQdXzNO7vJHgAwGPf9Qm0yR2njNjroiB9Z1yNiilvHTrXfNMLmrHgJkMGj5iNrkwMontfG8PXVFDjB6PaOnS++8UXJHfQRYNVXPV9QmCTasxHEcgW7IAamLesbOtszHDZEr2yPA3CQ9n1GTIDD36ZyNdUMO2K5Vz9DpyjtnjFzdFgGGIfV8Rk1yYGWTNXXcxrogByZwm3RSW7Eo/7gzMXmY8+UAAWUEyGA4btM9+D/rzeQ4hkAX5IDuQT0Dp9fgmAFyVTwCZDDo+Y+aRIR5UMdsLj05IHVRz7DpNThmfFylg4AFjJoBibJ1/BSpjcfsLjU5YMxQx+BK50evwTHj4yotBMhg0PQnpW/xOmcTuH3bS00OLAh5KQvl+DgGY+WkDO0bHldoIsAQpY8fyOBP8VPbNpiWHJhgLRBlUMKR6ggj3zY4ftVGgN7IcciBEUGOdQTSkgO6ADWNmF3Q1o2NX3IgwIuHpm+p8ZLF0u7rNpmSHDC7WNN4WWRk3dD4JRcC+BhNH+NNEEhtXLfLlOSAcUFNwzWHygECvSBAJpSmn/EmCKQ2LltsOnLA/gmaBkuvwbKB8W1uBBi+1PQ3ngSBSdTLNpqKHNhkIesG8lQMyvIxfsbulg2Mb/MjQE+lj49Q9rVMpH5tp6nIAamLmkbKtsyvDYtv+kGADAZNv+NNNphM/WyzacgBM4h1DZQxu2ej4lN/CBhBIHVa1wd5EAVSG5/tNg05YOxP0zDZlvnZoPjULwJkMGj6IA9iMJXB8Ogn+01BDpg1rGuULJX8yZg46x8BfJGuL5oC/J3/1jvE8REBeXJg3XlMCNI0SDMkkw8HCIyEAL2Ymv7oDiko7+WF56M1y5MDUhd1DREjGikk0tYSAUvdLQMK57p+6qxsSG1MQA6YBKRrcPQalKGC8xERsCyds4GH63V9Wikb1m15PKR7Dkhd1DUkeg1GDIe0uUSAlxdd/1QG+qvno6c2ypIDUhd1DY9utzJEcD4yAhZArgYf7tP1cSab0fddkCUHTELUNRxWExs5HNL2OQKkOOr6qrsEbOQ1XCTJAelC2sY2enfbPDjwGQTevv9AD8Ibbb91hShYL+mohxw5sHE8JvroGhkTdUZ1FbR7DwEyGHT91hViMN0z6vwqOXLAJERtA2Nb5r0Qwe8jI8CLjbb/mgL+2f82B260Q4ocMPtX27BYe3w090B7zyJgPoydY7X92FliYNeP2GMqRQ4Yt9M2KtYdPxsquH5EBMhg0PZjV8iB3TNar6kMOWDGr7ZBsS3ziGGONl9FAH+m7c+uEITRUhtlyAGpi9rGNHJKz9UAwX1jI8DS79o+7QpBGMkPSpADUhe1jYhtmccOcrT+OgJs0qTt284ShJGWjQ8nB6Qu6hvPqKk810MCd4LAJwTIYND3cWdIwiiLwIWTA1IXtQ1nJKb8yZ1zBgJ+CJDBoO3jzhCD6doRUhtDyQH7J+gbDb0GfkGCksZFwHzdFFj4r+/39mQ0Qlp3KDlgPE7bSOg1GDeY0XJ/BMhg0PZ3e4Rg/nvvqd1h5ABD0TcUeg38AwQljo0AGQz6fm9OAtY+977vQhg5MNZlix7xp4vBCONqY4cqWh+BAD2m/RAEI3u9HmHkoFdAaRcIgAAILCFgExOtx5Teg37IgfUe9PoSBTlYsmK+AwEQAIGLCBgJsCWUbcEc6xm1yWsWRNa6p/k+N1noNbURcnDRAXAbCIDA2AhMJMCGSG1+jpEAW9MAIpA72F8ha0YGezsgB71JlPaAAAi4I1AOCVhvACRgPAKwRRp63HsGcuDuRigQBEAgKwJTb4DNC4AEQAC2CMH8t95SGyEHWb0Y9QYBELiMwEQC5kMCc4fPZwjCUR3oLbURcnDZvXAjCIBABgSMCBgJoDeAQH800F+9rqe1YSAHGbwbdQQBENhFgHkBBP+rQd3rvp5SGyEHuy6HC0AABJQQYEgAEuAVzGuU85vf/1XJXC7XBXJwGTpuBAEQqI2ALTAzDQmY0yVLAGJQI6B7l9lDaiPkoLZ3o3wQAIFdBBgSIOh7B+jI8n792z/v6rz6BZADdQlRPxDoCIGlIQFzpJGOnGdDTGrogK2QmfmAHGSWHnUHAWEEGBIg6NYIulnKzJ7aCDkQdq5UDQQyIMCQACQgS8BuXU9bSCvrATnIKjnqDQKNEWBIABLQOrj28LysuzZCDho7WB4HAuoILJEAsgQgBj0E6og2ZE1thByoe2rqBwIVEWBIgKAfETBHe2bGfRcgBxUdL0WDgAoCU2+AzaC2cVDbXpithSEGowXpqPZmTG2EHKh4b+oBAg4ITCRgvqEQRAAiEBUYee5H3cuW2gg5cHDIFAECEQgwJEDAJ/Dm0QEj6GazWQ7IQRZJUc9hEZh6AxgSyBMICNrIakkHPv/imzR+DHKQRlRUtHcEJhLAkACBZSmw8F0fepEltRFy0HvEoX2SCDAk0IejJ2Ajx7M6YJOBMxyQgwxSoo5pEZh6A373l3+8ZAmwXgDB5Gww4fr+dCZDaiPkIG3YoeJKCEwkYD4kgGPvz7EjU2R6Vwcy7LsAOVCKMNQlBQJGBIwEWG+ATTCiN4BgcTdYcP94OmT+Q/mAHChLh7qFIsC8gPEcNkEambfSAes9UJ6cCDkIDT88XAEBhgQICK0CAs9B10odUE5thBwoRCfq0AwBY+rTkIBtiMKQAM66dNacow+tdeDbH35q5v/OPAhycAYtrk2DAEMCOPnWTp7noXNXdMBeUBQPyIGiVKjTYQSWhgRsk5MrRso9OHd0AB2I0AHF1EbIweEwxIXRCDAkgOOOcNw8E72rrQOKqY2Qg+iIx/NfIcCQAM64tjOmfHRMTQfe/fHvr3xh5BeQg0j0B382QwI4aDUHTX3QySgdUEtthBwMHqBbNH+JBJAlgBOOcsI8F91T1QHLoFI5IAcqkuikHgwJ4HhVHS/1Qjcz6IBKaiPkoJOg3LoZU2/Al19//7KhkO00Zt1iGYyPOhIk0AF0QFUHLNtK4YAcKEhBuA4TCZhvKAQRwLmqOlfqhW5m1wF76Yo+IAfREhB+vnVvGSkwReUPDNABdAAdaKMDCuseQA6EgzNVAwEQAAEQAIEIBCAHEajzTBAAARAAARAQRgByICwcqgYCIAACIAACEQhADiJQ55kgAAIgAAIgIIwA5EBYOFQNBEAABEAABCIQgBxEoM4zQQAEQAAEQEAYAciBsHCoGgiAAAiAAAhEIAA5iECdZ4IACIAACICAMAKQA2HhUDUQAAEQAAEQiEAAchCBOs8EARAAARAAAWEEIAfCwqFqIAACIAACIBCBAOQgAnWeCQIgAAIgAALCCEAOhIVD1UAABEAABEAgAgHIQQTqPBMEQAAEQAAEhBGAHAgLh6qBAAiAAAiAQAQCkIMI1HkmCIAACIAACAgjADkQFg5VAwEQAAEQAIEIBCAHEajzTBAAARAAARAQRgByICwcqgYCIAACIAACEQhADiJQ55kgAAIgAAIgIIwA5EBYOFQNBEAABEAABCIQgBxEoM4zQQAEQAAEQEAYAciBsHCoGgiAAAiAAAhEIAA5iECdZ4IACIAACICAMAKQA2HhUDUQAAEQAAEQiEAAchCBOs8EARAAARAAAWEE/h/GRNMgKvSJ2QAAAABJRU5ErkJggg==;" parent="1" vertex="1">
          <mxGeometry x="1373.5" y="1210" width="30" height="22.37" as="geometry" />
        </mxCell>
        <mxCell id="Mwrt2MIfaS3BiG5PvJi2-246" value="" style="aspect=fixed;html=1;points=[];align=center;image;fontSize=12;image=img/lib/mscae/Kubernetes_Services.svg;" parent="1" vertex="1">
          <mxGeometry x="1430.5" y="1270" width="30" height="22.2" as="geometry" />
        </mxCell>
        <mxCell id="Mwrt2MIfaS3BiG5PvJi2-247" value="" style="outlineConnect=0;dashed=0;verticalLabelPosition=bottom;verticalAlign=top;align=center;html=1;shape=mxgraph.aws3.sqs;fillColor=#D9A741;gradientColor=none;aspect=fixed;" parent="1" vertex="1">
          <mxGeometry x="1667.5" y="903" width="25" height="30.39" as="geometry" />
        </mxCell>
        <mxCell id="Mwrt2MIfaS3BiG5PvJi2-248" value="" style="outlineConnect=0;dashed=0;verticalLabelPosition=bottom;verticalAlign=top;align=center;html=1;shape=mxgraph.aws3.rds;fillColor=#2E73B8;gradientColor=none;aspect=fixed;" parent="1" vertex="1">
          <mxGeometry x="1668.75" y="979.9999999999999" width="25" height="28.13" as="geometry" />
        </mxCell>
        <mxCell id="Mwrt2MIfaS3BiG5PvJi2-249" value="" style="aspect=fixed;html=1;points=[];align=center;image;fontSize=12;image=img/lib/mscae/Active_Directory.svg;" parent="1" vertex="1">
          <mxGeometry x="970.5" y="1323.03" width="30" height="30" as="geometry" />
        </mxCell>
        <mxCell id="Mwrt2MIfaS3BiG5PvJi2-250" value="" style="verticalLabelPosition=bottom;html=1;verticalAlign=top;align=center;strokeColor=none;fillColor=#00BEF2;shape=mxgraph.azure.azure_sdk;aspect=fixed;" parent="1" vertex="1">
          <mxGeometry x="1592.5" y="1411.5" width="30" height="28.5" as="geometry" />
        </mxCell>
        <mxCell id="Mwrt2MIfaS3BiG5PvJi2-252" value="" style="shape=image;verticalLabelPosition=bottom;labelBackgroundColor=#ffffff;verticalAlign=top;aspect=fixed;imageAspect=0;image=data:image/png,iVBORw0KGgoAAAANSUhEUgAAAgcAAAGDCAYAAAC/aLNoAAAgAElEQVR4Ae2dP64lx3XGtRSvwCvQCrgCr0Ar4KQOJlA6oSMBSglGk8mCEkEgDJiAEoqYQDAggGTgwATMgImDa5w3bEzdfv2/T9X5TtWvgYfX997u6qrv/Pu6qk7Vrx4cIAACIAACIAACIFAg8KvinFMQAAEQAAEQAAEQeEAOUAIQAAEQAAEQAIEnBCAHT3DwAQRAAARAAARAAHKADoAACIAACIAACDwhADl4goMPIAACIAACIAACkAN0AARAoCoC3/34c9XyKRwEQMAfAciBP6aUCAIg8AsCv/vLPx72xwECIJALAchBLnlRWxBIg8Db9x8e//yvf3r878//l6bOVBQEQOAjApADNAEEQMAVASMDn3/xzeOf3vzh8e6Pf3ctm8JAAATaIAA5aIMzTwGBIRCw+QX/8m//+UIMrNeA+QZDiJ1GdogA5KBDodIkEIhA4Nsffnr8+rd/fiEG9BpESIBngoAfApADPywpCQSGReDf//bfL/MLjBTYH70Gw6oCDe8EAchBJ4KkGSAQhYDNK5hIwfT/N7//a1R1eC4IgIADApADBxApAgRGRKCceDiRgun/f/zX/4wICW0GgW4QgBx0I0oaAgLtEDBiYL0DExko/9Nr0E4OPAkEaiEAOaiFLOWCQKcIzCcelsTAzuk16FTwNGsoBCAHQ4mbxoLAPQQs8NtkwzkhmD5bGiMHCIBAfgQgB/llSAtAoAkCtgzyFjEwgmBZCxwgAAL5EYAc5JchLQCBqghsTTycegzs/2fvvqpaDwoHARBohwDkoB3WPAkE0iGwNfGwJAZ2/uXX36drHxUGARBYRgBysIwL34LA8AjsTTwsyYGtjGhEggMEQKAPBCAHfciRVoCAKwJ7Ew9LYmDnbLDkCj+FgUA4ApCDcBFQARDQQuDIxMOSHNgkRXoNtGRIbUDgLgKQg7sIcj8IdIKABfi37z+spimWhKA8p9egEwWgGSBQIAA5KMDgFARGReDMxMOSGLDB0qgaQ7t7RwBy0LuEaR8I7CBgEw8tDbEM+kfPP//im53S+RkEQCAjApCDjFKjziDghMDZiYdz0mDEggMEQKA/BCAH/cmUFoHAIQTOTjycEwM2WDoEMxeBQEoEIAcpxUalQeAeAlcmHs7JARss3ZMBd4OAMgKQA2XpUDcQcEbAJh7aPIF5oD/7mV4DZ8FQHAiIIQA5EBMI1QGBWgh89+PPD9s18SwRWLq+Za8BayjU0gjKBYF1BCAH69jwCwh0g8CZpZCXyED5XcttmW2XRzIiulFDGpIIAchBImFRVRC4goAF2L2tlsvgv3fecltmG76w+pAVcUXy3AMC1xGAHFzHjjtBQB4BW71wL9if+d02WGp12HDCRGrYDroV6jwHBD4iADlAE0CgQwS8Jh7OiYOlP7Y6rIeifH7LHotWbeQ5IKCKAORAVTLUCwQuImDEYOqOL4Pr3fPW2zLP22C9CBwgAAJtEIActMGZp4BAEwQ8Jx7OyUTLDZYss2L+fPvcsg5NBMZDQEAUAciBqGCoFgicReDuUshLwXj6zt7aW6YUrs2VsHoYceAAARCoiwDkoC6+lA4CTRC4uxTyRALW/rd+Y99aj4EFmJqoFA8ZHAHIweAKQPNzI1Br4mFJElq/rdvQSPn8pXNSG3PrLbXXRwByoC8jaggCiwjUmng4D8atFyFaG1Io69UypXIRfL4Egc4RgBx0LmCa1ycCNScelkHYzlu/pVvgn9dh6fOXX3/fp3BpFQgIIAA5EBACVQCBMwjUnHg4D8Ktx/fnaxvM61N+JrXxjNZwLQicQwBycA4vrgaBUARqTzwsg6+dt9xgyYCdr20wr8/8s209zQECIOCPAOTAH1NKBAF3BGx+gQXCeXCs+bl1r4G10XoDzraJ1EZ3daNAEHhADlACEBBHoNXEw3lQbt1rcGZIoaxraxIjri5UDwRcEIAcuMBIISBQBwGbDGibDpXBsMV5y22ZJ+TODimUOLDvwoQi/0HABwHIgQ+OlAIC7gi0nHhYBlo7b50JsLZc8rxea59JbXRXPwocHAHIweAKQPM1EWg98bAMuq03WDIJWHvLOlw5b01oNDWHWoGADwKQAx8cKQUE3BBoPfFwHogtULc+tpZLntdv7XPrlRxbY8TzQKAlApCDlmjzLBDYQMAmHtpqhGvBr8X3Eb0GNq/Cq22tV3PcECc/gUBqBCAHqcVH5XtBwMbcPd6e7wbZ1hssmfyOLJd8pl2tV3TsRQdpBwiUCEAOSjQ4B4EABCyYHV0y+EyQPHutdctb70Xrw7vtEZkWrTHjeSBQGwHIQW2EKR8ENhCwFLwrC/+cDfxHro/oNbi6tsFee0ht3FA6fgKBAwhADg6AxCUgUAMB7+70vYC59XvUZL47axvstaeGzCgTBEZBAHIwiqRppwwCChMP54E1YiKf4VCz1ySiJ0RGyagICNxEAHJwE0BuB4EzCFhArPW2PA/4Zz5HTOKrNaQwtTuqN+SMPnAtCKgiADlQlQz16g4BlYmHU/Cc/kftTdCCJEW1rTvlpUHDIQA5GE7kNDgCgcilkCcSsPa/9QZLhn/tIYWyrRG9IhE6xjNBwBMByIEnmpQFAgsIRC6FXAbJpfOoN2uP5ZKX2rP0nW1cxQECIHAOAcjBOby4GgQOI6A48XAePCN6DQzA1gs+se/CYbXlQhB4QQBygCKAQAUEVCceluQg6o3auvnLerQ4t8mJHCAAAscRgBwcx4orQeAQAqoTD+dBOOptOmp9B1IbD6kvF4HACwKQAxQBBBwRUJ54WJKDiA2WJpi9l0su27V3bntYcIAACOwjADnYx4grQOAQAsoTD+dBM+otuvbaBvN2zj9HTcA8pEBcBAJCCEAOhIRBVXIiYPML3r7/0HwcfR74jn628Xerc8TRYm2DPRyiJmFG4M0zQeAqApCDq8hxHwj8kq+vEPD2AmL5e1SvgRGSmssll23cOrdhDQ4QAIFtBCAH2/jwKwisIpBl4mEZKCN7DaKHFEocoiZjrioTP4CAGAKQAzGBUJ0cCGSZeFgGRDuP6jUwqSr1sJDamMPOqGUcApCDOOx5clIEMk08LMmBBcSo2foqQwolHhE7USZVeao9IAKQgwGFTpOvI5Bp4mEZCO08Mhi2XC553u6tz1Fk6boGcicItEEActAGZ56SHAF787XguhVo1H+L3ICo9XLJR2Vh9eIAARB4jQDk4DUmfAMCTwjY26VqcDsaBCPz+yOWSz6Ki11nEyU5QAAEnhGAHDzjwScQeEIgY0bCUmCMzO23SZBLdVL5jtTGJ5XnAwi8IAA5QBFAYAUBe6NUyMu/G0Qjew0M2sjlko9iR2rjihHw9bAIQA6GFT0N30JA/W33aNCz6yK7zZXWNtjCLDKTY0sP+Q0EohCAHEQhz3MlEehh4mEZBKO2ZZ6Em2kSZ2Q2x4QX/0FABQHIgYokqEc4AkYMlBbqKYP81fPI7nLFtQ32cIzM6Ag3ACoAAgUCkIMCDE7HRaCXiYdl8LOxfgvQUUeWIYUSM1Ibo7SF56ohADlQkwj1aY5A1qWQy6C2dB65VLIJMWsvTOQcjebKzwNBYAUByMEKMHw9BgJZl0JeIgPldzbBLrLXIOOQwoSfYccBAqMjADkYXQMGbb8Fr0yT5abAdfR/dK+B6nLJWfAb1CxpthACkAMhYVCVNggYMcja5X0kuEX3GpgUs68oSWpjG1vkKboIQA50ZUPNKiDQ48TDOWGI7jUwjOd1yvg5evGoCupPkSBwGAHIwWGouDA7Ar1OPCwDr8Ibb08LSJHamN3qqf9VBCAHV5HjvlQI9DrxsCQGdq6wkE+G5ZLnuK19Zt+FVGZOZR0RgBw4gklRegjY/IK37z900c29FsDK76PfdDOubVDit3QeuZCUnkVRo1EQgByMIukB29n7xMN5IFMYI+8xA4TUxgGdB01+QA5Qgi4RGGHi4ZwcRG7LbEpkZMwC6bxePXyOnuTZpZHSKGkEIAfS4qFyVxAYYeLhPOAqLPvb45BCifN3P/58RR25BwRSIgA5SCk2Kr2GwCgTD8ugZecKS/72vHaEYawwbLOm93wPAt4IQA68EaW8MARGmnhYkoPobZlN4D0PKZRYRw/dhBkXDx4OAcjBcCLvr8EWmHqcCFcGpa1zhdn02ZdL3sK3/I3Uxv78By1aRgBysIwL3yZBwMaBsy/VWwafs+fR2zJPajKSDBTI2IQ7/0GgFgKQg1rIUm51BEbMSJiTB4VZ9CaHeb16/mwZGdZbxQECPSMAOehZuh23zSbg9Zo2dzSwqgSpnpZLPoq9wkqUHZs3TRNAAHIgIASqcA6BEYPRUtBS6DUwyfW0XPISzmvfkdp4zm65OhcCkINc8hq6tqNPPCyDlEqvQe9rG5SYz88V1pYY2iHQ+KoIQA6qwkvhXggYMeg9j34efLY+q/QajJwlYvJRWF/Cy8YoBwRKBCAHJRqcSyLAxMM/PE34s14DhS5tI2zM+/iTpM1QKRC4iwDk4C6C3F8VgRGXQt7qMbDfVFbqG3lIoZSRrfHAAQK9IQA56E2iHbVn1KWQy8CzdK6ySh/DPB97dFR6cjoyfZoigADkQEAIVOEZASYePg8jlARBpdeAIYVnGZHa+GzDfMqPAOQgvwy7agETD5+DTkkM7Fyl12CU5ZLn+G99trkxHCDQCwKQg14k2UE7mHi4TQyUUudGWi55ixCUvylsgNWBG6AJIghADkQEMXo1mHi4TQwsCKmkzY22XHJJAPbOVWQ0uj+h/fcRgBzcx5ASbiLAxMN9YqD0VsoKlevyssmJHCDQAwKQgx6kmLQNNr/g7fsPTzn8e29mo/6utBPgqMslH9U9lQWqkroFqi2CAORARBCjVYOJh+tvn/MgpLIts+koaxvsy43UxtG8WZ/thRz0KVfpVjHxcD/AlARB6U109OWSS7lsnauknEo7AionjQDkQFo8/VWOiYfniIG9hVovi8Jh9bD6bAVFfvskX1IbFbSWOlxFAHJwFTnuO40AEw8/BY6jQVSp14AhhXPys+EgDhDIigDkIKvkktWbiYfnAouRB7Wxa5ZLPi9DpYmkyVwG1Q1GAHIQLIDeH8/Ew/MBZepVUOo1YEjhmhyN4HGAQEYEIAcZpZakzratMCvpXQ8qCtsyT6rGcsnX5GhEz3rNOEAgGwKQg2wSS1JfMhKuBxMLKGqz3SF59+SpRPSSuBCqGYwA5CBYAD0+3iauMav9XjBR2WDJ9JPlku/JUpHs9eh3aJMvApADXzyHL83Gyacxc/5fCypqvQbI9Joc5/rPvgvDu8dUAEAOUolLt7I2YY0FcnyCiFKvgWkcyyX7yJXURl3/Rc1eIwA5eI0J31xAgDQ3nwCitC2zqQFrG/jIdepFILXxgnPhlhAEIAchsPf1UAKIXwBR63pmfQo/2RpBsLk41svGAQLqCEAO1CUkXj9zdLad8PRmxP/rwURpW2ZTO9Y2uC7LLTuw4TcOEFBHAHKgLiHx+jFZzS+AqHU50yPkJ9s5WSC1UdyxUb0H5AAluIyAOThSFn0CiNK2zJNCMI/ER7ZzYmCf1eaWTDLnPwhMCEAOJiT4fxoBshP8gofSUsmmCAwp+Ml2iRzYd2rzS047AG7oGgHIQdfirdc4S7dbc3p8fy6wKE5SY7nkczK8ovMmdw4QUEUAcqAqGfF6sZyuX/BQ6zUw1UO+fvLdIg5GwjhAQBEByIGiVMTrxFulX+Cwt0e1yWksl+wn3y1iYL8pyl/c/VC9RghADhoB3ctjGIv2DRyKO/aRgeIr4z2CQGpjL96xr3ZADvqSZ/XWEDh8A4e9pasdLJfsK+M9cmC/K+qBml5Sn7YIQA7a4p36aaQu+gYNtQ2WTDlZ28BXxkeIgV2jtgBWakdF5V0QgBy4wDhGIeS9+wYOtQ2WTItZLtlXxkfJgV1HauMYfjRLKyEHWSQVXE/eKH2DhmKvAfNJfGV8hhjYtaQ2Bjs5Hv+EAOTgCQ4+LCFgQYP9E3wDh2KvAQTQV8ZnyYFdr5jWuuQT+K5/BCAH/cv4dgtJXfQNGqpL5zJs5CvnK+SA1Mbb7ooCnBCAHDgB2WsxdDX7BwzFsWXk7C/nK+TA7lEccurVv9GudQQgB+vY8AsT1NyXiFadlU7vkA45MIJAaiPuNxoByEG0BISfbw7KujmvvgFx3+uAo7pcLsslv5ZVpP7aWhMcIBCJAOQgEn3xZxMwfAOG4rbMpoJGAiMDIc9e1rMvv/5e3ENQvZ4RgBz0LN0bbWPm+rLDvhPIVGeis+qlv6zv6Ml0L6mNNxwYt95GAHJwG8L+CiB10T9YmKM3XBUPlkv2l/cU4O/+V9x7Q1GHqZM/ApADf0zTl8ibpH+wUO01sPUW7gYw7vfXlxJTtV070zs4GnAIAcjBIZjGuYj9E/wdvXLuOssl+8u7DOwe56Q2juN/lVoKOVCShkBdCBb+wUJ1S14b5mBIwV/eHoRgXobi2hgC7ooqVEQAclAR3GxF08VcJ1Co5qwz6bSOvOeB3eMzqY3ZvGn++kIO8svQrQWkLvoHC+UuYZZL9pe3BxFYK4PURjdXR0EHEIAcHABphEt4i6wTKBQ3WDJ9ZrnkOvJeC+we3yvPXRnBR47WRsjBaBJfaC9jz3UChXKvAcsl15G5BwnYKkN1/sqCW+Gr5AhADpIL0KP6pC7WCRSqvQamMwwh1ZH5VmD3+o3URg+vRxl7CEAO9hDq/HdSF+sECQu+qgfLJdeRuVfw3ytHWbdUdZ56nUcAcnAes67usG7KPWfE7+eDiXLqGT1F5+WpZgPK+tWVgxy4MZCDgYVP6mKdIKGedsbaBnXk3pJAsO/CwI67UdMhB42AVnwM4851goTqtsymgxDCOjJvSQymZynrmaK/o07nEIAcnMOrm6uZrV4nSNhbueoGS6a8DCnUkfsUsFv+J7WxG3cs2RDIgaRY6laKHPd6AUJ1gyXTKFJW68m9JSkon0VqY11fOXLpkIMBpc/bY50gYW9yyr0GLHRVR+5lsI44V12ee0DX2lWTIQddiXO/MaQu1gsQyr0Gphksl1xP9hGkYHrmZ+++2jd8rgCBkwhADk4Clv1yAkSdAKE+/stQUh25TwE6+j/7LmT3zHr1hxzoyaRajehWrhcg1Md+mYBaT/bRxMCeT2pjNbc5bMGQg0FEb2+O1v2o4Mh6rIP6uC9pq32TA7Mp9WGtQVxtN82EHHQjyu2G8OZYLzgob7BkWsFyyfVkr0Z02Xdh2w/y63EEIAfHsUp7JePNdYOD8gZLprRkp9SVvxJBUCeqaZ3ogBWHHAwg9LfvPzCc8KZOgMjgjFkuuY7slUhBWRf1Ia4BXG4XTYQcdCHG9UbYW61NViqdB+d+wUK914AhBT9ZZ7Eb9b091r0VvyghADlQkkaFujARrV5wyLB1LkMK9eSvTBZIbazgTAcrEnLQscBJXawbGNQdsM01YUihrg6oEgRSGzt27I2aBjloBHTrx5C6WDcoqG+wZPoGOayrA6rEYKqX+tobrX0izzuHAOTgHF5prqY7uW5gyJBTzmqYdXVgCsLK/0ltTOOy5SoKOZATyf0KsX9C3aBgXbbWM6N8kL5aVweUCUFZtwzZNMp2NHLdIAcdSt+6E0sHwblvoMjQa8CiV74yz2xDNrzEAQJnEYAcnEVM/HpLrcvsyNTrnqHXwFSULBXIwWRLpDaKO23R6kEORAVztVoEhbpBIUOvAWsb1NWBKehm+q+eWXPV33FfPQQgB/WwbV6yOYBMDitbXa3XIMMELyajQg7mtpVFd5s7TR64igDkYBWaXD+Q014/IGRJDWNtg/q6MA++GT5n0d9cnrff2kIOOpEtb4v1A0KGNesZUqivBxmIwFodM+hwJy45fTMgB+lF+Hjp6rZuwzWHwPf3A0aWlDBI4n1Z92wvGZb87sAld9EEyEEHYiR1sX5AUN9gydSYoaX6etADcSC1sQOn36AJkIMGINd8BEvk1g8IWXoN0IX6utADObBeRg4Q2EMAcrCHkPjvpC7WDwhZ3rRYLrm+LvRADqwNGVJyxV1v99WDHCQWMavg1Q8Gn737KoWGsFxyfV3ohRhYO0htTGHWoZWEHITCf/3hBIM2wSDL4jEQxTb60BNByDJcdt1LcucdBCAHd9ALvJdZ6fWDQYZtmScVZHipvj70RAymtpDaOFkQ/+cIQA7miCT4zK6LbQJBlnFZ1jZoow9TQO3pf5ZhswRuubsqQg4SipS3xPrBwMZkbegmw0EvUn196IkQzNuSZegsgy32VEfIQTJpkq7WJhBk6TUw9WW55DY6MQ+qvXwmtTFZEGhUXchBI6A9HmNvstYN2ItTUm1Hpl4DhhQgBh52lIkMe/hSythHAHKwj5HMFcxIbxMIMjlKhhTa6IRHAFYvI8OOozLOeICKQA6SCJnUxTZBIFP+t+kEQwpt9EI9sHvUj9TGJMGgUTUhB42AvvuYt+8/MJzwpn4gyLStLfNP6uuDR9DNVEaGPUTu+lLuP4YA5OAYTqFXmcHaG20mJ5O1rpnyviEHkANvO7OeKA4QMAQgBwn0gNTFNkEgY7cqO3K20Q3vIKxcHqmNCYJCgypCDhqAfOcRvB22c/5Zu1Qhj+10RDmoe9WN1MY7HrufeyEHwrIkdbGd08/YazCpLnrSTk+8ArB6OZnm3kx2wH9fBCAHvni6lkaaWjunbz00mQ+yWdrpinpg96ofqY2ZPcL9ukMO7mNYpQT2T2jn7HtZX54FkdrpjFcAVi7Hhqs4xkUAciAqeyaatXP0PU3AYo5KO71RDuxedcveoybq3lNUC3IgKCabGOdl3JSzHSwybct8VFUhltsyxyaO40Nq41Gr6+86yIGgTJl9ftx53XX0mZZKPqOqNsHyLjbc304PlbHuqWftjA2Nfi3kQEwD2D+hnUPOtMHSFTVlk652uqQc3O/WLdOS4lfshHuWEYAcLOMS8i1r5bd15r32GkzKSwZDW326G4SV7ye1cbKqcf5DDoRkTepiO2fee6/BpNZkMLTTKeXg7lG3TEuLT/rP/+sIQA6uY+d6J6mLbZ14770GpXIywbWtbnkEYsUyekn5LW2D83UEIAfr2DT9hRnm7Rz4iGOo7OrZTr8UA7tXnUhtbBoWQh8GOQiF/+PDyU1v67gzL5V8R13JYGirZ14BWakcI9YcYyAAOQiWs00aI3WxrdMeeeyUDIa2uqYU2L3qMtKQXHB4CH085CAU/seD1MW2znrUXoNJzcmIaatvXgFZqZwRh+Um+xnpP+QgUNqkmrV31Fm3ZfZUUzIY2uudUnD3qMvoJNvTHlXLghwESobUxbZOmo1kPik7GQxtdc8jIKuVMfLw3CdL6vcMchAkW1IX2ztnZlo/KztDWu11UC3A36kP+y4821NvnyAHQRJlEmJbx0yO9rKik0LbVg/vBGPFe9l3YdmuevgWchAgRVIX2ztknNi6okNU2+ujYqC/UidSG9ftKvsvkIPGErRJiKSTtXXGPW7L7Km2ZDC01ccrQVj5HlIbPa1RpyzIQWNZMAmxvSPGee0ruc2BUQ5A1K293ZzB3PSHoy8EIAcN5UnqYnsHZ92ehjvHPgJkMLTXzzMBWPlaUhv37SvbFZCDhhJjffv2zpdeg3MKbnMzlIMQdWtvQ0cxZw2Rc7amfjXkoJGEeCtr79RYye2acpPB0F5XjwZg5etIbbxmb6p3QQ4aSYYZ4e0dLr0G15UbfW2vr8qB/2jdyAq6bnNqd0IOGkiE1MX2jpZeg3uKTVZNe509GoCVr2OOzz27U7obclBZGjjZGCfLBKn7is0qnjG6qxz8j9TNhqU48iMAOagsQ1IXYxwsk6N8FJu5MjH6eyQIK19DaqOP/UWWAjmoiD5vXjGOlV4DX6UmgyFGj5WD/17dbM4KR24EIAcV5ces7xinSq+Bv1KjyzG6vBeElX9nozN/O2xZIuSgEtp0x8Y4U95YKin04/EggyFGp5UJwFbdbHIiR14EIAeVZIcjjXGkvK1UUujH42WlSfYFidHrrSCs/JttC86REwHIQQW5mUEoG2yvdWNb5grKPCuSeTSQgzP+g5TimQEl+gg5cBYW+yfEOU8WYHFW5pXiGDKL0/EzgVnlWlIbVwxJ/GvIgbOASF2McZxsy+ysyDvFsbBXjJ6rBPyz9fj2h592NIqf1RCAHDhKhC7XOIfJUsmOinywKDIY4vT9bHCOvp4hv4NGJXQZ5MBRGJZfH22EIz6fJVsdlfhkUeg8BOGoz2Gy8EnjCr4ccuAkALpZ45wkvQZOSnyhGJYHj9P7o0FZ5TpSGy8YWOAtkAMH8HGQcQ6S2dAOCnyzCCbhxum/SuA/Wg+I/E1ja3g75MABbFIX45zj2/cfHCRIEXcRsAlnRwME18XZSzT2kPm7ltbufsjBTax5a4pzdOZomAV9U4Edb2doLc4WooP+meez94mj0VUsCnJwE1x7cz1jGFzr50BxMjeVt8Lt2IOffvfsKyD1FYzPuUjIwQ1ATcHt7bVnI1ZuGxss3VDeireSwQBB2PMbti4JhzYCkIMb8mH/hDgnSK/BDcVtcCt7MMTZxl5gVvmdFU0bGOKNR0AOLoLH+Gqs86PX4KLiNrrN5uLY26FKIKIesfa6hL/1unLoIgA5uCAbUhdjHQ3bMl9Q2oBbyGCItZOlgKz2HdlGAYZ58JGQg4NAlZexf0Ks02OltVIbtc/ZpCnWVtTIwFJ9bNl5Dj0EIAcnZcL+CbHOjjXaTyqswOWsAxJrM0sBWek75g8JGOlCFSAHC6BsfUWqVqyjs0DDkQ8BMhhi7UaJDCzVhd5APZuGHJyQCV2ksQ6ObZlPKKvgpWQwxNrPUlBW+Y7URj2DhRyckAmpi7HOjXXZTyir4KVkMMTajwoRWKsHqY1aRgs5OCgPUhdjHZulPVlw4ciNgM3ZWQsOfB9rY9H4Y+Natg05OCAP3njinRa9BgcUNcklDM/F21M0Eb2c6HMAAA8CSURBVFh7/udffJNEi/uvJuTggIxJXYx1ZvZGQbrTAUVNdAkZDLE2tRacFb7H1jUMGXKwIwdSF+OdGG8TO0qa9GeTq0Iwog7xNl7KgEXONAwacrAjBxxYvONgB7cdJU38M5N84+2rDMwq56Q2xhs15GBDBoyNxjsuFkjZUNAOfmI+T7yNqRCCsh7suxBv3JCDDRnwVhPvuIygcfSNABkM8XZWBmaVcxY8i7V7yMEK/kyYindY9BqsKGeHX9NLF29vKqRgqgcTkWMNHXKwgL91dZpiTkrK/xjHRa/BgnJ2/JUtgoOtxdiaKu5MRo4zeMjBAvakLsY7KGYsLyjmAF8xATje9tSIAhOSYwwfcjDDndRFDefEbOWZYg70kbk+GjaoQhLYiTXG+CEHM9zZPS7eMbEJy0wpB/tow3ps0hRvhyrkwOrBy0J7JwA5KDBn/wQNh8Qs5UIpBz2lB0/DFlUIAqmN7R0B5OAXzHlb0XBGbMvc3gmoPpEMBg2bVCEI7K/S1lIhB7/gTeqihiPCAbR1AOpPozdPwy4VCAKpjW2tFXLweLxsBUzqYrwTMhlYDw4HCJQIkMEQb5sK5MDqwNonpWXUPYccPB6Pt+8/kF/9Jt4B0WtQ19gzl04GQ7x9qhAEUhvbWPLw5MDGNek1iHc8dBm2MfisT2FOULyNqpADspnaWPHw5IA3Eg2nw0pobQw+81OMIEDkNew1mijYapocdREYmhww2UnH0dBVWNfQeymdDAYdm40kCEYSOeoiMCw5oJtSx8kwyaiukfdWOqRex3YjCYLNFeOoh8Cw5ID9E3QcDBss1TPwXksmg0HHfiMJgi2WxVEHgSHJAauv6TgWeg3qGPYIpbLUuY4dRxEE/Ec9Sx+SHPDWoeNU6DWoZ9y9l8zQoI4dR5EDe64NM3H4IzAcOWBCk45DYVtmf4MerUQyGHTsOYogkNpYx+qHIwekLuo4E9KR6hj1aKVapktUYOK5Gv4EX+Jv9UORA1MgjFnDmNlgyd+YRy6RHkENu47yryyi5m/9w5AD6360gBSlvDz32XmxLbO/MY9eIsugP9vYaD6HhdR8PcAw5IDURR3HYSzfyBoHCHgjQAaDjp1HkBMWU/OzqCHIAamLWg6DDZb8DJiSXiPw2buv6CEU2Egtghwwyfm1PVz9ZghyQOqiDjmg1+CqqXLfUQQYQtSx9wiCQGrjUUvZvq57csBSq1qOgl6DbYPkVx8EyGDQsvuWJIF9F3xsqHtyQOqijpNgRrGP0VLKMQTIYNCx/ZbkwJ7FS8gxG9m6qmtyYDPiWyslz1t3SMwm3jJFfquBAD5g3R579lW8iNy3pm7JASun6TkFZhLfN1hKOI8AGQx6vqAFMWHfhfO2Ut7RLTkgdVHLIWCopdlx3hoBMhi0/EELcmDP4IXkuqV1SQ5IXdRzBGywdN1IufM+AmQw6PmEFgTBSCHHNQS6JAdMQtRyBPQaXDNO7vJFwF4aWgQknqHlf9h34ZoddUcOSF3UMkxzlOQdXzNO7vJHgAwGPf9Qm0yR2njNjroiB9Z1yNiilvHTrXfNMLmrHgJkMGj5iNrkwMontfG8PXVFDjB6PaOnS++8UXJHfQRYNVXPV9QmCTasxHEcgW7IAamLesbOtszHDZEr2yPA3CQ9n1GTIDD36ZyNdUMO2K5Vz9DpyjtnjFzdFgGGIfV8Rk1yYGWTNXXcxrogByZwm3RSW7Eo/7gzMXmY8+UAAWUEyGA4btM9+D/rzeQ4hkAX5IDuQT0Dp9fgmAFyVTwCZDDo+Y+aRIR5UMdsLj05IHVRz7DpNThmfFylg4AFjJoBibJ1/BSpjcfsLjU5YMxQx+BK50evwTHj4yotBMhg0PQnpW/xOmcTuH3bS00OLAh5KQvl+DgGY+WkDO0bHldoIsAQpY8fyOBP8VPbNpiWHJhgLRBlUMKR6ggj3zY4ftVGgN7IcciBEUGOdQTSkgO6ADWNmF3Q1o2NX3IgwIuHpm+p8ZLF0u7rNpmSHDC7WNN4WWRk3dD4JRcC+BhNH+NNEEhtXLfLlOSAcUFNwzWHygECvSBAJpSmn/EmCKQ2LltsOnLA/gmaBkuvwbKB8W1uBBi+1PQ3ngSBSdTLNpqKHNhkIesG8lQMyvIxfsbulg2Mb/MjQE+lj49Q9rVMpH5tp6nIAamLmkbKtsyvDYtv+kGADAZNv+NNNphM/WyzacgBM4h1DZQxu2ej4lN/CBhBIHVa1wd5EAVSG5/tNg05YOxP0zDZlvnZoPjULwJkMGj6IA9iMJXB8Ogn+01BDpg1rGuULJX8yZg46x8BfJGuL5oC/J3/1jvE8REBeXJg3XlMCNI0SDMkkw8HCIyEAL2Ymv7oDiko7+WF56M1y5MDUhd1DREjGikk0tYSAUvdLQMK57p+6qxsSG1MQA6YBKRrcPQalKGC8xERsCyds4GH63V9Wikb1m15PKR7Dkhd1DUkeg1GDIe0uUSAlxdd/1QG+qvno6c2ypIDUhd1DY9utzJEcD4yAhZArgYf7tP1cSab0fddkCUHTELUNRxWExs5HNL2OQKkOOr6qrsEbOQ1XCTJAelC2sY2enfbPDjwGQTevv9AD8Ibbb91hShYL+mohxw5sHE8JvroGhkTdUZ1FbR7DwEyGHT91hViMN0z6vwqOXLAJERtA2Nb5r0Qwe8jI8CLjbb/mgL+2f82B260Q4ocMPtX27BYe3w090B7zyJgPoydY7X92FliYNeP2GMqRQ4Yt9M2KtYdPxsquH5EBMhg0PZjV8iB3TNar6kMOWDGr7ZBsS3ziGGONl9FAH+m7c+uEITRUhtlyAGpi9rGNHJKz9UAwX1jI8DS79o+7QpBGMkPSpADUhe1jYhtmccOcrT+OgJs0qTt284ShJGWjQ8nB6Qu6hvPqKk810MCd4LAJwTIYND3cWdIwiiLwIWTA1IXtQ1nJKb8yZ1zBgJ+CJDBoO3jzhCD6doRUhtDyQH7J+gbDb0GfkGCksZFwHzdFFj4r+/39mQ0Qlp3KDlgPE7bSOg1GDeY0XJ/BMhg0PZ3e4Rg/nvvqd1h5ABD0TcUeg38AwQljo0AGQz6fm9OAtY+977vQhg5MNZlix7xp4vBCONqY4cqWh+BAD2m/RAEI3u9HmHkoFdAaRcIgAAILCFgExOtx5Teg37IgfUe9PoSBTlYsmK+AwEQAIGLCBgJsCWUbcEc6xm1yWsWRNa6p/k+N1noNbURcnDRAXAbCIDA2AhMJMCGSG1+jpEAW9MAIpA72F8ha0YGezsgB71JlPaAAAi4I1AOCVhvACRgPAKwRRp63HsGcuDuRigQBEAgKwJTb4DNC4AEQAC2CMH8t95SGyEHWb0Y9QYBELiMwEQC5kMCc4fPZwjCUR3oLbURcnDZvXAjCIBABgSMCBgJoDeAQH800F+9rqe1YSAHGbwbdQQBENhFgHkBBP+rQd3rvp5SGyEHuy6HC0AABJQQYEgAEuAVzGuU85vf/1XJXC7XBXJwGTpuBAEQqI2ALTAzDQmY0yVLAGJQI6B7l9lDaiPkoLZ3o3wQAIFdBBgSIOh7B+jI8n792z/v6rz6BZADdQlRPxDoCIGlIQFzpJGOnGdDTGrogK2QmfmAHGSWHnUHAWEEGBIg6NYIulnKzJ7aCDkQdq5UDQQyIMCQACQgS8BuXU9bSCvrATnIKjnqDQKNEWBIABLQOrj28LysuzZCDho7WB4HAuoILJEAsgQgBj0E6og2ZE1thByoe2rqBwIVEWBIgKAfETBHe2bGfRcgBxUdL0WDgAoCU2+AzaC2cVDbXpithSEGowXpqPZmTG2EHKh4b+oBAg4ITCRgvqEQRAAiEBUYee5H3cuW2gg5cHDIFAECEQgwJEDAJ/Dm0QEj6GazWQ7IQRZJUc9hEZh6AxgSyBMICNrIakkHPv/imzR+DHKQRlRUtHcEJhLAkACBZSmw8F0fepEltRFy0HvEoX2SCDAk0IejJ2Ajx7M6YJOBMxyQgwxSoo5pEZh6A373l3+8ZAmwXgDB5Gww4fr+dCZDaiPkIG3YoeJKCEwkYD4kgGPvz7EjU2R6Vwcy7LsAOVCKMNQlBQJGBIwEWG+ATTCiN4BgcTdYcP94OmT+Q/mAHChLh7qFIsC8gPEcNkEambfSAes9UJ6cCDkIDT88XAEBhgQICK0CAs9B10odUE5thBwoRCfq0AwBY+rTkIBtiMKQAM66dNacow+tdeDbH35q5v/OPAhycAYtrk2DAEMCOPnWTp7noXNXdMBeUBQPyIGiVKjTYQSWhgRsk5MrRso9OHd0AB2I0AHF1EbIweEwxIXRCDAkgOOOcNw8E72rrQOKqY2Qg+iIx/NfIcCQAM64tjOmfHRMTQfe/fHvr3xh5BeQg0j0B382QwI4aDUHTX3QySgdUEtthBwMHqBbNH+JBJAlgBOOcsI8F91T1QHLoFI5IAcqkuikHgwJ4HhVHS/1Qjcz6IBKaiPkoJOg3LoZU2/Al19//7KhkO00Zt1iGYyPOhIk0AF0QFUHLNtK4YAcKEhBuA4TCZhvKAQRwLmqOlfqhW5m1wF76Yo+IAfREhB+vnVvGSkwReUPDNABdAAdaKMDCuseQA6EgzNVAwEQAAEQAIEIBCAHEajzTBAAARAAARAQRgByICwcqgYCIAACIAACEQhADiJQ55kgAAIgAAIgIIwA5EBYOFQNBEAABEAABCIQgBxEoM4zQQAEQAAEQEAYAciBsHCoGgiAAAiAAAhEIAA5iECdZ4IACIAACICAMAKQA2HhUDUQAAEQAAEQiEAAchCBOs8EARAAARAAAWEEIAfCwqFqIAACIAACIBCBAOQgAnWeCQIgAAIgAALCCEAOhIVD1UAABEAABEAgAgHIQQTqPBMEQAAEQAAEhBGAHAgLh6qBAAiAAAiAQAQCkIMI1HkmCIAACIAACAgjADkQFg5VAwEQAAEQAIEIBCAHEajzTBAAARAAARAQRgByICwcqgYCIAACIAACEQhADiJQ55kgAAIgAAIgIIwA5EBYOFQNBEAABEAABCIQgBxEoM4zQQAEQAAEQEAYAciBsHCoGgiAAAiAAAhEIAA5iECdZ4IACIAACICAMAKQA2HhUDUQAAEQAAEQiEAAchCBOs8EARAAARAAAWEE/h/GRNMgKvSJ2QAAAABJRU5ErkJggg==;" parent="1" vertex="1">
          <mxGeometry x="1585.5" y="1512.16" width="30" height="22.37" as="geometry" />
        </mxCell>
        <mxCell id="Mwrt2MIfaS3BiG5PvJi2-253" value="Azure Identity Binding" style="rounded=1;whiteSpace=wrap;html=1;align=center;verticalAlign=top;" parent="1" vertex="1">
          <mxGeometry x="1540" y="1561" width="120" height="60" as="geometry" />
        </mxCell>
        <mxCell id="Mwrt2MIfaS3BiG5PvJi2-254" value="" style="shape=image;verticalLabelPosition=bottom;labelBackgroundColor=#ffffff;verticalAlign=top;aspect=fixed;imageAspect=0;image=data:image/png,iVBORw0KGgoAAAANSUhEUgAAAgcAAAGDCAYAAAC/aLNoAAAgAElEQVR4Ae2dP64lx3XGtRSvwCvQCrgCr0Ar4KQOJlA6oSMBSglGk8mCEkEgDJiAEoqYQDAggGTgwATMgImDa5w3bEzdfv2/T9X5TtWvgYfX997u6qrv/Pu6qk7Vrx4cIAACIAACIAACIFAg8KvinFMQAAEQAAEQAAEQeEAOUAIQAAEQAAEQAIEnBCAHT3DwAQRAAARAAARAAHKADoAACIAACIAACDwhADl4goMPIAACIAACIAACkAN0AARAoCoC3/34c9XyKRwEQMAfAciBP6aUCAIg8AsCv/vLPx72xwECIJALAchBLnlRWxBIg8Db9x8e//yvf3r878//l6bOVBQEQOAjApADNAEEQMAVASMDn3/xzeOf3vzh8e6Pf3ctm8JAAATaIAA5aIMzTwGBIRCw+QX/8m//+UIMrNeA+QZDiJ1GdogA5KBDodIkEIhA4Nsffnr8+rd/fiEG9BpESIBngoAfApADPywpCQSGReDf//bfL/MLjBTYH70Gw6oCDe8EAchBJ4KkGSAQhYDNK5hIwfT/N7//a1R1eC4IgIADApADBxApAgRGRKCceDiRgun/f/zX/4wICW0GgW4QgBx0I0oaAgLtEDBiYL0DExko/9Nr0E4OPAkEaiEAOaiFLOWCQKcIzCcelsTAzuk16FTwNGsoBCAHQ4mbxoLAPQQs8NtkwzkhmD5bGiMHCIBAfgQgB/llSAtAoAkCtgzyFjEwgmBZCxwgAAL5EYAc5JchLQCBqghsTTycegzs/2fvvqpaDwoHARBohwDkoB3WPAkE0iGwNfGwJAZ2/uXX36drHxUGARBYRgBysIwL34LA8AjsTTwsyYGtjGhEggMEQKAPBCAHfciRVoCAKwJ7Ew9LYmDnbLDkCj+FgUA4ApCDcBFQARDQQuDIxMOSHNgkRXoNtGRIbUDgLgKQg7sIcj8IdIKABfi37z+spimWhKA8p9egEwWgGSBQIAA5KMDgFARGReDMxMOSGLDB0qgaQ7t7RwBy0LuEaR8I7CBgEw8tDbEM+kfPP//im53S+RkEQCAjApCDjFKjziDghMDZiYdz0mDEggMEQKA/BCAH/cmUFoHAIQTOTjycEwM2WDoEMxeBQEoEIAcpxUalQeAeAlcmHs7JARss3ZMBd4OAMgKQA2XpUDcQcEbAJh7aPIF5oD/7mV4DZ8FQHAiIIQA5EBMI1QGBWgh89+PPD9s18SwRWLq+Za8BayjU0gjKBYF1BCAH69jwCwh0g8CZpZCXyED5XcttmW2XRzIiulFDGpIIAchBImFRVRC4goAF2L2tlsvgv3fecltmG76w+pAVcUXy3AMC1xGAHFzHjjtBQB4BW71wL9if+d02WGp12HDCRGrYDroV6jwHBD4iADlAE0CgQwS8Jh7OiYOlP7Y6rIeifH7LHotWbeQ5IKCKAORAVTLUCwQuImDEYOqOL4Pr3fPW2zLP22C9CBwgAAJtEIActMGZp4BAEwQ8Jx7OyUTLDZYss2L+fPvcsg5NBMZDQEAUAciBqGCoFgicReDuUshLwXj6zt7aW6YUrs2VsHoYceAAARCoiwDkoC6+lA4CTRC4uxTyRALW/rd+Y99aj4EFmJqoFA8ZHAHIweAKQPNzI1Br4mFJElq/rdvQSPn8pXNSG3PrLbXXRwByoC8jaggCiwjUmng4D8atFyFaG1Io69UypXIRfL4Egc4RgBx0LmCa1ycCNScelkHYzlu/pVvgn9dh6fOXX3/fp3BpFQgIIAA5EBACVQCBMwjUnHg4D8Ktx/fnaxvM61N+JrXxjNZwLQicQwBycA4vrgaBUARqTzwsg6+dt9xgyYCdr20wr8/8s209zQECIOCPAOTAH1NKBAF3BGx+gQXCeXCs+bl1r4G10XoDzraJ1EZ3daNAEHhADlACEBBHoNXEw3lQbt1rcGZIoaxraxIjri5UDwRcEIAcuMBIISBQBwGbDGibDpXBsMV5y22ZJ+TODimUOLDvwoQi/0HABwHIgQ+OlAIC7gi0nHhYBlo7b50JsLZc8rxea59JbXRXPwocHAHIweAKQPM1EWg98bAMuq03WDIJWHvLOlw5b01oNDWHWoGADwKQAx8cKQUE3BBoPfFwHogtULc+tpZLntdv7XPrlRxbY8TzQKAlApCDlmjzLBDYQMAmHtpqhGvBr8X3Eb0GNq/Cq22tV3PcECc/gUBqBCAHqcVH5XtBwMbcPd6e7wbZ1hssmfyOLJd8pl2tV3TsRQdpBwiUCEAOSjQ4B4EABCyYHV0y+EyQPHutdctb70Xrw7vtEZkWrTHjeSBQGwHIQW2EKR8ENhCwFLwrC/+cDfxHro/oNbi6tsFee0ht3FA6fgKBAwhADg6AxCUgUAMB7+70vYC59XvUZL47axvstaeGzCgTBEZBAHIwiqRppwwCChMP54E1YiKf4VCz1ySiJ0RGyagICNxEAHJwE0BuB4EzCFhArPW2PA/4Zz5HTOKrNaQwtTuqN+SMPnAtCKgiADlQlQz16g4BlYmHU/Cc/kftTdCCJEW1rTvlpUHDIQA5GE7kNDgCgcilkCcSsPa/9QZLhn/tIYWyrRG9IhE6xjNBwBMByIEnmpQFAgsIRC6FXAbJpfOoN2uP5ZKX2rP0nW1cxQECIHAOAcjBOby4GgQOI6A48XAePCN6DQzA1gs+se/CYbXlQhB4QQBygCKAQAUEVCceluQg6o3auvnLerQ4t8mJHCAAAscRgBwcx4orQeAQAqoTD+dBOOptOmp9B1IbD6kvF4HACwKQAxQBBBwRUJ54WJKDiA2WJpi9l0su27V3bntYcIAACOwjADnYx4grQOAQAsoTD+dBM+otuvbaBvN2zj9HTcA8pEBcBAJCCEAOhIRBVXIiYPML3r7/0HwcfR74jn628Xerc8TRYm2DPRyiJmFG4M0zQeAqApCDq8hxHwj8kq+vEPD2AmL5e1SvgRGSmssll23cOrdhDQ4QAIFtBCAH2/jwKwisIpBl4mEZKCN7DaKHFEocoiZjrioTP4CAGAKQAzGBUJ0cCGSZeFgGRDuP6jUwqSr1sJDamMPOqGUcApCDOOx5clIEMk08LMmBBcSo2foqQwolHhE7USZVeao9IAKQgwGFTpOvI5Bp4mEZCO08Mhi2XC553u6tz1Fk6boGcicItEEActAGZ56SHAF787XguhVo1H+L3ICo9XLJR2Vh9eIAARB4jQDk4DUmfAMCTwjY26VqcDsaBCPz+yOWSz6Ki11nEyU5QAAEnhGAHDzjwScQeEIgY0bCUmCMzO23SZBLdVL5jtTGJ5XnAwi8IAA5QBFAYAUBe6NUyMu/G0Qjew0M2sjlko9iR2rjihHw9bAIQA6GFT0N30JA/W33aNCz6yK7zZXWNtjCLDKTY0sP+Q0EohCAHEQhz3MlEehh4mEZBKO2ZZ6Em2kSZ2Q2x4QX/0FABQHIgYokqEc4AkYMlBbqKYP81fPI7nLFtQ32cIzM6Ag3ACoAAgUCkIMCDE7HRaCXiYdl8LOxfgvQUUeWIYUSM1Ibo7SF56ohADlQkwj1aY5A1qWQy6C2dB65VLIJMWsvTOQcjebKzwNBYAUByMEKMHw9BgJZl0JeIgPldzbBLrLXIOOQwoSfYccBAqMjADkYXQMGbb8Fr0yT5abAdfR/dK+B6nLJWfAb1CxpthACkAMhYVCVNggYMcja5X0kuEX3GpgUs68oSWpjG1vkKboIQA50ZUPNKiDQ48TDOWGI7jUwjOd1yvg5evGoCupPkSBwGAHIwWGouDA7Ar1OPCwDr8Ibb08LSJHamN3qqf9VBCAHV5HjvlQI9DrxsCQGdq6wkE+G5ZLnuK19Zt+FVGZOZR0RgBw4gklRegjY/IK37z900c29FsDK76PfdDOubVDit3QeuZCUnkVRo1EQgByMIukB29n7xMN5IFMYI+8xA4TUxgGdB01+QA5Qgi4RGGHi4ZwcRG7LbEpkZMwC6bxePXyOnuTZpZHSKGkEIAfS4qFyVxAYYeLhPOAqLPvb45BCifN3P/58RR25BwRSIgA5SCk2Kr2GwCgTD8ugZecKS/72vHaEYawwbLOm93wPAt4IQA68EaW8MARGmnhYkoPobZlN4D0PKZRYRw/dhBkXDx4OAcjBcCLvr8EWmHqcCFcGpa1zhdn02ZdL3sK3/I3Uxv78By1aRgBysIwL3yZBwMaBsy/VWwafs+fR2zJPajKSDBTI2IQ7/0GgFgKQg1rIUm51BEbMSJiTB4VZ9CaHeb16/mwZGdZbxQECPSMAOehZuh23zSbg9Zo2dzSwqgSpnpZLPoq9wkqUHZs3TRNAAHIgIASqcA6BEYPRUtBS6DUwyfW0XPISzmvfkdp4zm65OhcCkINc8hq6tqNPPCyDlEqvQe9rG5SYz88V1pYY2iHQ+KoIQA6qwkvhXggYMeg9j34efLY+q/QajJwlYvJRWF/Cy8YoBwRKBCAHJRqcSyLAxMM/PE34s14DhS5tI2zM+/iTpM1QKRC4iwDk4C6C3F8VgRGXQt7qMbDfVFbqG3lIoZSRrfHAAQK9IQA56E2iHbVn1KWQy8CzdK6ySh/DPB97dFR6cjoyfZoigADkQEAIVOEZASYePg8jlARBpdeAIYVnGZHa+GzDfMqPAOQgvwy7agETD5+DTkkM7Fyl12CU5ZLn+G99trkxHCDQCwKQg14k2UE7mHi4TQyUUudGWi55ixCUvylsgNWBG6AJIghADkQEMXo1mHi4TQwsCKmkzY22XHJJAPbOVWQ0uj+h/fcRgBzcx5ASbiLAxMN9YqD0VsoKlevyssmJHCDQAwKQgx6kmLQNNr/g7fsPTzn8e29mo/6utBPgqMslH9U9lQWqkroFqi2CAORARBCjVYOJh+tvn/MgpLIts+koaxvsy43UxtG8WZ/thRz0KVfpVjHxcD/AlARB6U109OWSS7lsnauknEo7AionjQDkQFo8/VWOiYfniIG9hVovi8Jh9bD6bAVFfvskX1IbFbSWOlxFAHJwFTnuO40AEw8/BY6jQVSp14AhhXPys+EgDhDIigDkIKvkktWbiYfnAouRB7Wxa5ZLPi9DpYmkyVwG1Q1GAHIQLIDeH8/Ew/MBZepVUOo1YEjhmhyN4HGAQEYEIAcZpZakzratMCvpXQ8qCtsyT6rGcsnX5GhEz3rNOEAgGwKQg2wSS1JfMhKuBxMLKGqz3SF59+SpRPSSuBCqGYwA5CBYAD0+3iauMav9XjBR2WDJ9JPlku/JUpHs9eh3aJMvApADXzyHL83Gyacxc/5fCypqvQbI9Joc5/rPvgvDu8dUAEAOUolLt7I2YY0FcnyCiFKvgWkcyyX7yJXURl3/Rc1eIwA5eI0J31xAgDQ3nwCitC2zqQFrG/jIdepFILXxgnPhlhAEIAchsPf1UAKIXwBR63pmfQo/2RpBsLk41svGAQLqCEAO1CUkXj9zdLad8PRmxP/rwURpW2ZTO9Y2uC7LLTuw4TcOEFBHAHKgLiHx+jFZzS+AqHU50yPkJ9s5WSC1UdyxUb0H5AAluIyAOThSFn0CiNK2zJNCMI/ER7ZzYmCf1eaWTDLnPwhMCEAOJiT4fxoBshP8gofSUsmmCAwp+Ml2iRzYd2rzS047AG7oGgHIQdfirdc4S7dbc3p8fy6wKE5SY7nkczK8ovMmdw4QUEUAcqAqGfF6sZyuX/BQ6zUw1UO+fvLdIg5GwjhAQBEByIGiVMTrxFulX+Cwt0e1yWksl+wn3y1iYL8pyl/c/VC9RghADhoB3ctjGIv2DRyKO/aRgeIr4z2CQGpjL96xr3ZADvqSZ/XWEDh8A4e9pasdLJfsK+M9cmC/K+qBml5Sn7YIQA7a4p36aaQu+gYNtQ2WTDlZ28BXxkeIgV2jtgBWakdF5V0QgBy4wDhGIeS9+wYOtQ2WTItZLtlXxkfJgV1HauMYfjRLKyEHWSQVXE/eKH2DhmKvAfNJfGV8hhjYtaQ2Bjs5Hv+EAOTgCQ4+LCFgQYP9E3wDh2KvAQTQV8ZnyYFdr5jWuuQT+K5/BCAH/cv4dgtJXfQNGqpL5zJs5CvnK+SA1Mbb7ooCnBCAHDgB2WsxdDX7BwzFsWXk7C/nK+TA7lEccurVv9GudQQgB+vY8AsT1NyXiFadlU7vkA45MIJAaiPuNxoByEG0BISfbw7KujmvvgFx3+uAo7pcLsslv5ZVpP7aWhMcIBCJAOQgEn3xZxMwfAOG4rbMpoJGAiMDIc9e1rMvv/5e3ENQvZ4RgBz0LN0bbWPm+rLDvhPIVGeis+qlv6zv6Ml0L6mNNxwYt95GAHJwG8L+CiB10T9YmKM3XBUPlkv2l/cU4O/+V9x7Q1GHqZM/ApADf0zTl8ibpH+wUO01sPUW7gYw7vfXlxJTtV070zs4GnAIAcjBIZjGuYj9E/wdvXLuOssl+8u7DOwe56Q2juN/lVoKOVCShkBdCBb+wUJ1S14b5mBIwV/eHoRgXobi2hgC7ooqVEQAclAR3GxF08VcJ1Co5qwz6bSOvOeB3eMzqY3ZvGn++kIO8svQrQWkLvoHC+UuYZZL9pe3BxFYK4PURjdXR0EHEIAcHABphEt4i6wTKBQ3WDJ9ZrnkOvJeC+we3yvPXRnBR47WRsjBaBJfaC9jz3UChXKvAcsl15G5BwnYKkN1/sqCW+Gr5AhADpIL0KP6pC7WCRSqvQamMwwh1ZH5VmD3+o3URg+vRxl7CEAO9hDq/HdSF+sECQu+qgfLJdeRuVfw3ytHWbdUdZ56nUcAcnAes67usG7KPWfE7+eDiXLqGT1F5+WpZgPK+tWVgxy4MZCDgYVP6mKdIKGedsbaBnXk3pJAsO/CwI67UdMhB42AVnwM4851goTqtsymgxDCOjJvSQymZynrmaK/o07nEIAcnMOrm6uZrV4nSNhbueoGS6a8DCnUkfsUsFv+J7WxG3cs2RDIgaRY6laKHPd6AUJ1gyXTKFJW68m9JSkon0VqY11fOXLpkIMBpc/bY50gYW9yyr0GLHRVR+5lsI44V12ee0DX2lWTIQddiXO/MaQu1gsQyr0Gphksl1xP9hGkYHrmZ+++2jd8rgCBkwhADk4Clv1yAkSdAKE+/stQUh25TwE6+j/7LmT3zHr1hxzoyaRajehWrhcg1Md+mYBaT/bRxMCeT2pjNbc5bMGQg0FEb2+O1v2o4Mh6rIP6uC9pq32TA7Mp9WGtQVxtN82EHHQjyu2G8OZYLzgob7BkWsFyyfVkr0Z02Xdh2w/y63EEIAfHsUp7JePNdYOD8gZLprRkp9SVvxJBUCeqaZ3ogBWHHAwg9LfvPzCc8KZOgMjgjFkuuY7slUhBWRf1Ia4BXG4XTYQcdCHG9UbYW61NViqdB+d+wUK914AhBT9ZZ7Eb9b091r0VvyghADlQkkaFujARrV5wyLB1LkMK9eSvTBZIbazgTAcrEnLQscBJXawbGNQdsM01YUihrg6oEgRSGzt27I2aBjloBHTrx5C6WDcoqG+wZPoGOayrA6rEYKqX+tobrX0izzuHAOTgHF5prqY7uW5gyJBTzmqYdXVgCsLK/0ltTOOy5SoKOZATyf0KsX9C3aBgXbbWM6N8kL5aVweUCUFZtwzZNMp2NHLdIAcdSt+6E0sHwblvoMjQa8CiV74yz2xDNrzEAQJnEYAcnEVM/HpLrcvsyNTrnqHXwFSULBXIwWRLpDaKO23R6kEORAVztVoEhbpBIUOvAWsb1NWBKehm+q+eWXPV33FfPQQgB/WwbV6yOYBMDitbXa3XIMMELyajQg7mtpVFd5s7TR64igDkYBWaXD+Q014/IGRJDWNtg/q6MA++GT5n0d9cnrff2kIOOpEtb4v1A0KGNesZUqivBxmIwFodM+hwJy45fTMgB+lF+Hjp6rZuwzWHwPf3A0aWlDBI4n1Z92wvGZb87sAld9EEyEEHYiR1sX5AUN9gydSYoaX6etADcSC1sQOn36AJkIMGINd8BEvk1g8IWXoN0IX6utADObBeRg4Q2EMAcrCHkPjvpC7WDwhZ3rRYLrm+LvRADqwNGVJyxV1v99WDHCQWMavg1Q8Gn737KoWGsFxyfV3ohRhYO0htTGHWoZWEHITCf/3hBIM2wSDL4jEQxTb60BNByDJcdt1LcucdBCAHd9ALvJdZ6fWDQYZtmScVZHipvj70RAymtpDaOFkQ/+cIQA7miCT4zK6LbQJBlnFZ1jZoow9TQO3pf5ZhswRuubsqQg4SipS3xPrBwMZkbegmw0EvUn196IkQzNuSZegsgy32VEfIQTJpkq7WJhBk6TUw9WW55DY6MQ+qvXwmtTFZEGhUXchBI6A9HmNvstYN2ItTUm1Hpl4DhhQgBh52lIkMe/hSythHAHKwj5HMFcxIbxMIMjlKhhTa6IRHAFYvI8OOozLOeICKQA6SCJnUxTZBIFP+t+kEQwpt9EI9sHvUj9TGJMGgUTUhB42AvvuYt+8/MJzwpn4gyLStLfNP6uuDR9DNVEaGPUTu+lLuP4YA5OAYTqFXmcHaG20mJ5O1rpnyviEHkANvO7OeKA4QMAQgBwn0gNTFNkEgY7cqO3K20Q3vIKxcHqmNCYJCgypCDhqAfOcRvB22c/5Zu1Qhj+10RDmoe9WN1MY7HrufeyEHwrIkdbGd08/YazCpLnrSTk+8ArB6OZnm3kx2wH9fBCAHvni6lkaaWjunbz00mQ+yWdrpinpg96ofqY2ZPcL9ukMO7mNYpQT2T2jn7HtZX54FkdrpjFcAVi7Hhqs4xkUAciAqeyaatXP0PU3AYo5KO71RDuxedcveoybq3lNUC3IgKCabGOdl3JSzHSwybct8VFUhltsyxyaO40Nq41Gr6+86yIGgTJl9ftx53XX0mZZKPqOqNsHyLjbc304PlbHuqWftjA2Nfi3kQEwD2D+hnUPOtMHSFTVlk652uqQc3O/WLdOS4lfshHuWEYAcLOMS8i1r5bd15r32GkzKSwZDW326G4SV7ye1cbKqcf5DDoRkTepiO2fee6/BpNZkMLTTKeXg7lG3TEuLT/rP/+sIQA6uY+d6J6mLbZ14770GpXIywbWtbnkEYsUyekn5LW2D83UEIAfr2DT9hRnm7Rz4iGOo7OrZTr8UA7tXnUhtbBoWQh8GOQiF/+PDyU1v67gzL5V8R13JYGirZ14BWakcI9YcYyAAOQiWs00aI3WxrdMeeeyUDIa2uqYU2L3qMtKQXHB4CH085CAU/seD1MW2znrUXoNJzcmIaatvXgFZqZwRh+Um+xnpP+QgUNqkmrV31Fm3ZfZUUzIY2uudUnD3qMvoJNvTHlXLghwESobUxbZOmo1kPik7GQxtdc8jIKuVMfLw3CdL6vcMchAkW1IX2ztnZlo/KztDWu11UC3A36kP+y4821NvnyAHQRJlEmJbx0yO9rKik0LbVg/vBGPFe9l3YdmuevgWchAgRVIX2ztknNi6okNU2+ujYqC/UidSG9ftKvsvkIPGErRJiKSTtXXGPW7L7Km2ZDC01ccrQVj5HlIbPa1RpyzIQWNZMAmxvSPGee0ruc2BUQ5A1K293ZzB3PSHoy8EIAcN5UnqYnsHZ92ehjvHPgJkMLTXzzMBWPlaUhv37SvbFZCDhhJjffv2zpdeg3MKbnMzlIMQdWtvQ0cxZw2Rc7amfjXkoJGEeCtr79RYye2acpPB0F5XjwZg5etIbbxmb6p3QQ4aSYYZ4e0dLr0G15UbfW2vr8qB/2jdyAq6bnNqd0IOGkiE1MX2jpZeg3uKTVZNe509GoCVr2OOzz27U7obclBZGjjZGCfLBKn7is0qnjG6qxz8j9TNhqU48iMAOagsQ1IXYxwsk6N8FJu5MjH6eyQIK19DaqOP/UWWAjmoiD5vXjGOlV4DX6UmgyFGj5WD/17dbM4KR24EIAcV5ces7xinSq+Bv1KjyzG6vBeElX9nozN/O2xZIuSgEtp0x8Y4U95YKin04/EggyFGp5UJwFbdbHIiR14EIAeVZIcjjXGkvK1UUujH42WlSfYFidHrrSCs/JttC86REwHIQQW5mUEoG2yvdWNb5grKPCuSeTSQgzP+g5TimQEl+gg5cBYW+yfEOU8WYHFW5pXiGDKL0/EzgVnlWlIbVwxJ/GvIgbOASF2McZxsy+ysyDvFsbBXjJ6rBPyz9fj2h592NIqf1RCAHDhKhC7XOIfJUsmOinywKDIY4vT9bHCOvp4hv4NGJXQZ5MBRGJZfH22EIz6fJVsdlfhkUeg8BOGoz2Gy8EnjCr4ccuAkALpZ45wkvQZOSnyhGJYHj9P7o0FZ5TpSGy8YWOAtkAMH8HGQcQ6S2dAOCnyzCCbhxum/SuA/Wg+I/E1ja3g75MABbFIX45zj2/cfHCRIEXcRsAlnRwME18XZSzT2kPm7ltbufsjBTax5a4pzdOZomAV9U4Edb2doLc4WooP+meez94mj0VUsCnJwE1x7cz1jGFzr50BxMjeVt8Lt2IOffvfsKyD1FYzPuUjIwQ1ATcHt7bVnI1ZuGxss3VDeireSwQBB2PMbti4JhzYCkIMb8mH/hDgnSK/BDcVtcCt7MMTZxl5gVvmdFU0bGOKNR0AOLoLH+Gqs86PX4KLiNrrN5uLY26FKIKIesfa6hL/1unLoIgA5uCAbUhdjHQ3bMl9Q2oBbyGCItZOlgKz2HdlGAYZ58JGQg4NAlZexf0Ks02OltVIbtc/ZpCnWVtTIwFJ9bNl5Dj0EIAcnZcL+CbHOjjXaTyqswOWsAxJrM0sBWek75g8JGOlCFSAHC6BsfUWqVqyjs0DDkQ8BMhhi7UaJDCzVhd5APZuGHJyQCV2ksQ6ObZlPKKvgpWQwxNrPUlBW+Y7URj2DhRyckAmpi7HOjXXZTyir4KVkMMTajwoRWKsHqY1aRgs5OCgPUhdjHZulPVlw4ciNgM3ZWQsOfB9rY9H4Y+Natg05OCAP3njinRa9BgcUNcklDM/F21M0Eb2c6HMAAA8CSURBVFh7/udffJNEi/uvJuTggIxJXYx1ZvZGQbrTAUVNdAkZDLE2tRacFb7H1jUMGXKwIwdSF+OdGG8TO0qa9GeTq0Iwog7xNl7KgEXONAwacrAjBxxYvONgB7cdJU38M5N84+2rDMwq56Q2xhs15GBDBoyNxjsuFkjZUNAOfmI+T7yNqRCCsh7suxBv3JCDDRnwVhPvuIygcfSNABkM8XZWBmaVcxY8i7V7yMEK/kyYindY9BqsKGeHX9NLF29vKqRgqgcTkWMNHXKwgL91dZpiTkrK/xjHRa/BgnJ2/JUtgoOtxdiaKu5MRo4zeMjBAvakLsY7KGYsLyjmAF8xATje9tSIAhOSYwwfcjDDndRFDefEbOWZYg70kbk+GjaoQhLYiTXG+CEHM9zZPS7eMbEJy0wpB/tow3ps0hRvhyrkwOrBy0J7JwA5KDBn/wQNh8Qs5UIpBz2lB0/DFlUIAqmN7R0B5OAXzHlb0XBGbMvc3gmoPpEMBg2bVCEI7K/S1lIhB7/gTeqihiPCAbR1AOpPozdPwy4VCAKpjW2tFXLweLxsBUzqYrwTMhlYDw4HCJQIkMEQb5sK5MDqwNonpWXUPYccPB6Pt+8/kF/9Jt4B0WtQ19gzl04GQ7x9qhAEUhvbWPLw5MDGNek1iHc8dBm2MfisT2FOULyNqpADspnaWPHw5IA3Eg2nw0pobQw+81OMIEDkNew1mijYapocdREYmhww2UnH0dBVWNfQeymdDAYdm40kCEYSOeoiMCw5oJtSx8kwyaiukfdWOqRex3YjCYLNFeOoh8Cw5ID9E3QcDBss1TPwXksmg0HHfiMJgi2WxVEHgSHJAauv6TgWeg3qGPYIpbLUuY4dRxEE/Ec9Sx+SHPDWoeNU6DWoZ9y9l8zQoI4dR5EDe64NM3H4IzAcOWBCk45DYVtmf4MerUQyGHTsOYogkNpYx+qHIwekLuo4E9KR6hj1aKVapktUYOK5Gv4EX+Jv9UORA1MgjFnDmNlgyd+YRy6RHkENu47yryyi5m/9w5AD6360gBSlvDz32XmxLbO/MY9eIsugP9vYaD6HhdR8PcAw5IDURR3HYSzfyBoHCHgjQAaDjp1HkBMWU/OzqCHIAamLWg6DDZb8DJiSXiPw2buv6CEU2Egtghwwyfm1PVz9ZghyQOqiDjmg1+CqqXLfUQQYQtSx9wiCQGrjUUvZvq57csBSq1qOgl6DbYPkVx8EyGDQsvuWJIF9F3xsqHtyQOqijpNgRrGP0VLKMQTIYNCx/ZbkwJ7FS8gxG9m6qmtyYDPiWyslz1t3SMwm3jJFfquBAD5g3R579lW8iNy3pm7JASun6TkFZhLfN1hKOI8AGQx6vqAFMWHfhfO2Ut7RLTkgdVHLIWCopdlx3hoBMhi0/EELcmDP4IXkuqV1SQ5IXdRzBGywdN1IufM+AmQw6PmEFgTBSCHHNQS6JAdMQtRyBPQaXDNO7vJFwF4aWgQknqHlf9h34ZoddUcOSF3UMkxzlOQdXzNO7vJHgAwGPf9Qm0yR2njNjroiB9Z1yNiilvHTrXfNMLmrHgJkMGj5iNrkwMontfG8PXVFDjB6PaOnS++8UXJHfQRYNVXPV9QmCTasxHEcgW7IAamLesbOtszHDZEr2yPA3CQ9n1GTIDD36ZyNdUMO2K5Vz9DpyjtnjFzdFgGGIfV8Rk1yYGWTNXXcxrogByZwm3RSW7Eo/7gzMXmY8+UAAWUEyGA4btM9+D/rzeQ4hkAX5IDuQT0Dp9fgmAFyVTwCZDDo+Y+aRIR5UMdsLj05IHVRz7DpNThmfFylg4AFjJoBibJ1/BSpjcfsLjU5YMxQx+BK50evwTHj4yotBMhg0PQnpW/xOmcTuH3bS00OLAh5KQvl+DgGY+WkDO0bHldoIsAQpY8fyOBP8VPbNpiWHJhgLRBlUMKR6ggj3zY4ftVGgN7IcciBEUGOdQTSkgO6ADWNmF3Q1o2NX3IgwIuHpm+p8ZLF0u7rNpmSHDC7WNN4WWRk3dD4JRcC+BhNH+NNEEhtXLfLlOSAcUFNwzWHygECvSBAJpSmn/EmCKQ2LltsOnLA/gmaBkuvwbKB8W1uBBi+1PQ3ngSBSdTLNpqKHNhkIesG8lQMyvIxfsbulg2Mb/MjQE+lj49Q9rVMpH5tp6nIAamLmkbKtsyvDYtv+kGADAZNv+NNNphM/WyzacgBM4h1DZQxu2ej4lN/CBhBIHVa1wd5EAVSG5/tNg05YOxP0zDZlvnZoPjULwJkMGj6IA9iMJXB8Ogn+01BDpg1rGuULJX8yZg46x8BfJGuL5oC/J3/1jvE8REBeXJg3XlMCNI0SDMkkw8HCIyEAL2Ymv7oDiko7+WF56M1y5MDUhd1DREjGikk0tYSAUvdLQMK57p+6qxsSG1MQA6YBKRrcPQalKGC8xERsCyds4GH63V9Wikb1m15PKR7Dkhd1DUkeg1GDIe0uUSAlxdd/1QG+qvno6c2ypIDUhd1DY9utzJEcD4yAhZArgYf7tP1cSab0fddkCUHTELUNRxWExs5HNL2OQKkOOr6qrsEbOQ1XCTJAelC2sY2enfbPDjwGQTevv9AD8Ibbb91hShYL+mohxw5sHE8JvroGhkTdUZ1FbR7DwEyGHT91hViMN0z6vwqOXLAJERtA2Nb5r0Qwe8jI8CLjbb/mgL+2f82B260Q4ocMPtX27BYe3w090B7zyJgPoydY7X92FliYNeP2GMqRQ4Yt9M2KtYdPxsquH5EBMhg0PZjV8iB3TNar6kMOWDGr7ZBsS3ziGGONl9FAH+m7c+uEITRUhtlyAGpi9rGNHJKz9UAwX1jI8DS79o+7QpBGMkPSpADUhe1jYhtmccOcrT+OgJs0qTt284ShJGWjQ8nB6Qu6hvPqKk810MCd4LAJwTIYND3cWdIwiiLwIWTA1IXtQ1nJKb8yZ1zBgJ+CJDBoO3jzhCD6doRUhtDyQH7J+gbDb0GfkGCksZFwHzdFFj4r+/39mQ0Qlp3KDlgPE7bSOg1GDeY0XJ/BMhg0PZ3e4Rg/nvvqd1h5ABD0TcUeg38AwQljo0AGQz6fm9OAtY+977vQhg5MNZlix7xp4vBCONqY4cqWh+BAD2m/RAEI3u9HmHkoFdAaRcIgAAILCFgExOtx5Teg37IgfUe9PoSBTlYsmK+AwEQAIGLCBgJsCWUbcEc6xm1yWsWRNa6p/k+N1noNbURcnDRAXAbCIDA2AhMJMCGSG1+jpEAW9MAIpA72F8ha0YGezsgB71JlPaAAAi4I1AOCVhvACRgPAKwRRp63HsGcuDuRigQBEAgKwJTb4DNC4AEQAC2CMH8t95SGyEHWb0Y9QYBELiMwEQC5kMCc4fPZwjCUR3oLbURcnDZvXAjCIBABgSMCBgJoDeAQH800F+9rqe1YSAHGbwbdQQBENhFgHkBBP+rQd3rvp5SGyEHuy6HC0AABJQQYEgAEuAVzGuU85vf/1XJXC7XBXJwGTpuBAEQqI2ALTAzDQmY0yVLAGJQI6B7l9lDaiPkoLZ3o3wQAIFdBBgSIOh7B+jI8n792z/v6rz6BZADdQlRPxDoCIGlIQFzpJGOnGdDTGrogK2QmfmAHGSWHnUHAWEEGBIg6NYIulnKzJ7aCDkQdq5UDQQyIMCQACQgS8BuXU9bSCvrATnIKjnqDQKNEWBIABLQOrj28LysuzZCDho7WB4HAuoILJEAsgQgBj0E6og2ZE1thByoe2rqBwIVEWBIgKAfETBHe2bGfRcgBxUdL0WDgAoCU2+AzaC2cVDbXpithSEGowXpqPZmTG2EHKh4b+oBAg4ITCRgvqEQRAAiEBUYee5H3cuW2gg5cHDIFAECEQgwJEDAJ/Dm0QEj6GazWQ7IQRZJUc9hEZh6AxgSyBMICNrIakkHPv/imzR+DHKQRlRUtHcEJhLAkACBZSmw8F0fepEltRFy0HvEoX2SCDAk0IejJ2Ajx7M6YJOBMxyQgwxSoo5pEZh6A373l3+8ZAmwXgDB5Gww4fr+dCZDaiPkIG3YoeJKCEwkYD4kgGPvz7EjU2R6Vwcy7LsAOVCKMNQlBQJGBIwEWG+ATTCiN4BgcTdYcP94OmT+Q/mAHChLh7qFIsC8gPEcNkEambfSAes9UJ6cCDkIDT88XAEBhgQICK0CAs9B10odUE5thBwoRCfq0AwBY+rTkIBtiMKQAM66dNacow+tdeDbH35q5v/OPAhycAYtrk2DAEMCOPnWTp7noXNXdMBeUBQPyIGiVKjTYQSWhgRsk5MrRso9OHd0AB2I0AHF1EbIweEwxIXRCDAkgOOOcNw8E72rrQOKqY2Qg+iIx/NfIcCQAM64tjOmfHRMTQfe/fHvr3xh5BeQg0j0B382QwI4aDUHTX3QySgdUEtthBwMHqBbNH+JBJAlgBOOcsI8F91T1QHLoFI5IAcqkuikHgwJ4HhVHS/1Qjcz6IBKaiPkoJOg3LoZU2/Al19//7KhkO00Zt1iGYyPOhIk0AF0QFUHLNtK4YAcKEhBuA4TCZhvKAQRwLmqOlfqhW5m1wF76Yo+IAfREhB+vnVvGSkwReUPDNABdAAdaKMDCuseQA6EgzNVAwEQAAEQAIEIBCAHEajzTBAAARAAARAQRgByICwcqgYCIAACIAACEQhADiJQ55kgAAIgAAIgIIwA5EBYOFQNBEAABEAABCIQgBxEoM4zQQAEQAAEQEAYAciBsHCoGgiAAAiAAAhEIAA5iECdZ4IACIAACICAMAKQA2HhUDUQAAEQAAEQiEAAchCBOs8EARAAARAAAWEEIAfCwqFqIAACIAACIBCBAOQgAnWeCQIgAAIgAALCCEAOhIVD1UAABEAABEAgAgHIQQTqPBMEQAAEQAAEhBGAHAgLh6qBAAiAAAiAQAQCkIMI1HkmCIAACIAACAgjADkQFg5VAwEQAAEQAIEIBCAHEajzTBAAARAAARAQRgByICwcqgYCIAACIAACEQhADiJQ55kgAAIgAAIgIIwA5EBYOFQNBEAABEAABCIQgBxEoM4zQQAEQAAEQEAYAciBsHCoGgiAAAiAAAhEIAA5iECdZ4IACIAACICAMAKQA2HhUDUQAAEQAAEQiEAAchCBOs8EARAAARAAAWEE/h/GRNMgKvSJ2QAAAABJRU5ErkJggg==;" parent="1" vertex="1">
          <mxGeometry x="1585" y="1582.16" width="30" height="22.37" as="geometry" />
        </mxCell>
        <mxCell id="Mwrt2MIfaS3BiG5PvJi2-286" style="edgeStyle=orthogonalEdgeStyle;curved=1;rounded=0;orthogonalLoop=1;jettySize=auto;html=1;entryX=0.25;entryY=0;entryDx=0;entryDy=0;startArrow=none;startFill=0;endArrow=classic;endFill=1;strokeColor=#000000;strokeWidth=2;exitX=0.5;exitY=0;exitDx=0;exitDy=0;" parent="1" source="Mwrt2MIfaS3BiG5PvJi2-255" target="Mwrt2MIfaS3BiG5PvJi2-226" edge="1">
          <mxGeometry relative="1" as="geometry">
            <Array as="points">
              <mxPoint x="1290.5" y="1331" />
              <mxPoint x="1574.5" y="1331" />
            </Array>
          </mxGeometry>
        </mxCell>
        <mxCell id="Mwrt2MIfaS3BiG5PvJi2-288" style="edgeStyle=orthogonalEdgeStyle;curved=1;rounded=0;orthogonalLoop=1;jettySize=auto;html=1;entryX=1;entryY=0.5;entryDx=0;entryDy=0;startArrow=none;startFill=0;endArrow=classic;endFill=1;strokeColor=#000000;strokeWidth=2;" parent="1" source="Mwrt2MIfaS3BiG5PvJi2-255" target="Mwrt2MIfaS3BiG5PvJi2-233" edge="1">
          <mxGeometry relative="1" as="geometry" />
        </mxCell>
        <mxCell id="Mwrt2MIfaS3BiG5PvJi2-255" value="Node Managed Identity" style="rounded=1;whiteSpace=wrap;html=1;align=center;verticalAlign=top;" parent="1" vertex="1">
          <mxGeometry x="1230" y="1350" width="120" height="60" as="geometry" />
        </mxCell>
        <mxCell id="Mwrt2MIfaS3BiG5PvJi2-267" value="" style="edgeStyle=orthogonalEdgeStyle;curved=1;rounded=0;orthogonalLoop=1;jettySize=auto;html=1;startArrow=none;startFill=0;endArrow=classic;endFill=1;strokeColor=#000000;strokeWidth=2;entryX=0.5;entryY=0;entryDx=0;entryDy=0;exitX=0.75;exitY=1;exitDx=0;exitDy=0;" parent="1" source="Mwrt2MIfaS3BiG5PvJi2-255" target="Mwrt2MIfaS3BiG5PvJi2-258" edge="1">
          <mxGeometry relative="1" as="geometry">
            <Array as="points">
              <mxPoint x="1320" y="1431" />
              <mxPoint x="1290" y="1431" />
            </Array>
          </mxGeometry>
        </mxCell>
        <mxCell id="Mwrt2MIfaS3BiG5PvJi2-256" value="" style="shape=image;verticalLabelPosition=bottom;labelBackgroundColor=#ffffff;verticalAlign=top;aspect=fixed;imageAspect=0;image=data:image/png,iVBORw0KGgoAAAANSUhEUgAAAgcAAAGDCAYAAAC/aLNoAAAgAElEQVR4Ae2dP64lx3XGtRSvwCvQCrgCr0Ar4KQOJlA6oSMBSglGk8mCEkEgDJiAEoqYQDAggGTgwATMgImDa5w3bEzdfv2/T9X5TtWvgYfX997u6qrv/Pu6qk7Vrx4cIAACIAACIAACIFAg8KvinFMQAAEQAAEQAAEQeEAOUAIQAAEQAAEQAIEnBCAHT3DwAQRAAARAAARAAHKADoAACIAACIAACDwhADl4goMPIAACIAACIAACkAN0AARAoCoC3/34c9XyKRwEQMAfAciBP6aUCAIg8AsCv/vLPx72xwECIJALAchBLnlRWxBIg8Db9x8e//yvf3r878//l6bOVBQEQOAjApADNAEEQMAVASMDn3/xzeOf3vzh8e6Pf3ctm8JAAATaIAA5aIMzTwGBIRCw+QX/8m//+UIMrNeA+QZDiJ1GdogA5KBDodIkEIhA4Nsffnr8+rd/fiEG9BpESIBngoAfApADPywpCQSGReDf//bfL/MLjBTYH70Gw6oCDe8EAchBJ4KkGSAQhYDNK5hIwfT/N7//a1R1eC4IgIADApADBxApAgRGRKCceDiRgun/f/zX/4wICW0GgW4QgBx0I0oaAgLtEDBiYL0DExko/9Nr0E4OPAkEaiEAOaiFLOWCQKcIzCcelsTAzuk16FTwNGsoBCAHQ4mbxoLAPQQs8NtkwzkhmD5bGiMHCIBAfgQgB/llSAtAoAkCtgzyFjEwgmBZCxwgAAL5EYAc5JchLQCBqghsTTycegzs/2fvvqpaDwoHARBohwDkoB3WPAkE0iGwNfGwJAZ2/uXX36drHxUGARBYRgBysIwL34LA8AjsTTwsyYGtjGhEggMEQKAPBCAHfciRVoCAKwJ7Ew9LYmDnbLDkCj+FgUA4ApCDcBFQARDQQuDIxMOSHNgkRXoNtGRIbUDgLgKQg7sIcj8IdIKABfi37z+spimWhKA8p9egEwWgGSBQIAA5KMDgFARGReDMxMOSGLDB0qgaQ7t7RwBy0LuEaR8I7CBgEw8tDbEM+kfPP//im53S+RkEQCAjApCDjFKjziDghMDZiYdz0mDEggMEQKA/BCAH/cmUFoHAIQTOTjycEwM2WDoEMxeBQEoEIAcpxUalQeAeAlcmHs7JARss3ZMBd4OAMgKQA2XpUDcQcEbAJh7aPIF5oD/7mV4DZ8FQHAiIIQA5EBMI1QGBWgh89+PPD9s18SwRWLq+Za8BayjU0gjKBYF1BCAH69jwCwh0g8CZpZCXyED5XcttmW2XRzIiulFDGpIIAchBImFRVRC4goAF2L2tlsvgv3fecltmG76w+pAVcUXy3AMC1xGAHFzHjjtBQB4BW71wL9if+d02WGp12HDCRGrYDroV6jwHBD4iADlAE0CgQwS8Jh7OiYOlP7Y6rIeifH7LHotWbeQ5IKCKAORAVTLUCwQuImDEYOqOL4Pr3fPW2zLP22C9CBwgAAJtEIActMGZp4BAEwQ8Jx7OyUTLDZYss2L+fPvcsg5NBMZDQEAUAciBqGCoFgicReDuUshLwXj6zt7aW6YUrs2VsHoYceAAARCoiwDkoC6+lA4CTRC4uxTyRALW/rd+Y99aj4EFmJqoFA8ZHAHIweAKQPNzI1Br4mFJElq/rdvQSPn8pXNSG3PrLbXXRwByoC8jaggCiwjUmng4D8atFyFaG1Io69UypXIRfL4Egc4RgBx0LmCa1ycCNScelkHYzlu/pVvgn9dh6fOXX3/fp3BpFQgIIAA5EBACVQCBMwjUnHg4D8Ktx/fnaxvM61N+JrXxjNZwLQicQwBycA4vrgaBUARqTzwsg6+dt9xgyYCdr20wr8/8s209zQECIOCPAOTAH1NKBAF3BGx+gQXCeXCs+bl1r4G10XoDzraJ1EZ3daNAEHhADlACEBBHoNXEw3lQbt1rcGZIoaxraxIjri5UDwRcEIAcuMBIISBQBwGbDGibDpXBsMV5y22ZJ+TODimUOLDvwoQi/0HABwHIgQ+OlAIC7gi0nHhYBlo7b50JsLZc8rxea59JbXRXPwocHAHIweAKQPM1EWg98bAMuq03WDIJWHvLOlw5b01oNDWHWoGADwKQAx8cKQUE3BBoPfFwHogtULc+tpZLntdv7XPrlRxbY8TzQKAlApCDlmjzLBDYQMAmHtpqhGvBr8X3Eb0GNq/Cq22tV3PcECc/gUBqBCAHqcVH5XtBwMbcPd6e7wbZ1hssmfyOLJd8pl2tV3TsRQdpBwiUCEAOSjQ4B4EABCyYHV0y+EyQPHutdctb70Xrw7vtEZkWrTHjeSBQGwHIQW2EKR8ENhCwFLwrC/+cDfxHro/oNbi6tsFee0ht3FA6fgKBAwhADg6AxCUgUAMB7+70vYC59XvUZL47axvstaeGzCgTBEZBAHIwiqRppwwCChMP54E1YiKf4VCz1ySiJ0RGyagICNxEAHJwE0BuB4EzCFhArPW2PA/4Zz5HTOKrNaQwtTuqN+SMPnAtCKgiADlQlQz16g4BlYmHU/Cc/kftTdCCJEW1rTvlpUHDIQA5GE7kNDgCgcilkCcSsPa/9QZLhn/tIYWyrRG9IhE6xjNBwBMByIEnmpQFAgsIRC6FXAbJpfOoN2uP5ZKX2rP0nW1cxQECIHAOAcjBOby4GgQOI6A48XAePCN6DQzA1gs+se/CYbXlQhB4QQBygCKAQAUEVCceluQg6o3auvnLerQ4t8mJHCAAAscRgBwcx4orQeAQAqoTD+dBOOptOmp9B1IbD6kvF4HACwKQAxQBBBwRUJ54WJKDiA2WJpi9l0su27V3bntYcIAACOwjADnYx4grQOAQAsoTD+dBM+otuvbaBvN2zj9HTcA8pEBcBAJCCEAOhIRBVXIiYPML3r7/0HwcfR74jn628Xerc8TRYm2DPRyiJmFG4M0zQeAqApCDq8hxHwj8kq+vEPD2AmL5e1SvgRGSmssll23cOrdhDQ4QAIFtBCAH2/jwKwisIpBl4mEZKCN7DaKHFEocoiZjrioTP4CAGAKQAzGBUJ0cCGSZeFgGRDuP6jUwqSr1sJDamMPOqGUcApCDOOx5clIEMk08LMmBBcSo2foqQwolHhE7USZVeao9IAKQgwGFTpOvI5Bp4mEZCO08Mhi2XC553u6tz1Fk6boGcicItEEActAGZ56SHAF787XguhVo1H+L3ICo9XLJR2Vh9eIAARB4jQDk4DUmfAMCTwjY26VqcDsaBCPz+yOWSz6Ki11nEyU5QAAEnhGAHDzjwScQeEIgY0bCUmCMzO23SZBLdVL5jtTGJ5XnAwi8IAA5QBFAYAUBe6NUyMu/G0Qjew0M2sjlko9iR2rjihHw9bAIQA6GFT0N30JA/W33aNCz6yK7zZXWNtjCLDKTY0sP+Q0EohCAHEQhz3MlEehh4mEZBKO2ZZ6Em2kSZ2Q2x4QX/0FABQHIgYokqEc4AkYMlBbqKYP81fPI7nLFtQ32cIzM6Ag3ACoAAgUCkIMCDE7HRaCXiYdl8LOxfgvQUUeWIYUSM1Ibo7SF56ohADlQkwj1aY5A1qWQy6C2dB65VLIJMWsvTOQcjebKzwNBYAUByMEKMHw9BgJZl0JeIgPldzbBLrLXIOOQwoSfYccBAqMjADkYXQMGbb8Fr0yT5abAdfR/dK+B6nLJWfAb1CxpthACkAMhYVCVNggYMcja5X0kuEX3GpgUs68oSWpjG1vkKboIQA50ZUPNKiDQ48TDOWGI7jUwjOd1yvg5evGoCupPkSBwGAHIwWGouDA7Ar1OPCwDr8Ibb08LSJHamN3qqf9VBCAHV5HjvlQI9DrxsCQGdq6wkE+G5ZLnuK19Zt+FVGZOZR0RgBw4gklRegjY/IK37z900c29FsDK76PfdDOubVDit3QeuZCUnkVRo1EQgByMIukB29n7xMN5IFMYI+8xA4TUxgGdB01+QA5Qgi4RGGHi4ZwcRG7LbEpkZMwC6bxePXyOnuTZpZHSKGkEIAfS4qFyVxAYYeLhPOAqLPvb45BCifN3P/58RR25BwRSIgA5SCk2Kr2GwCgTD8ugZecKS/72vHaEYawwbLOm93wPAt4IQA68EaW8MARGmnhYkoPobZlN4D0PKZRYRw/dhBkXDx4OAcjBcCLvr8EWmHqcCFcGpa1zhdn02ZdL3sK3/I3Uxv78By1aRgBysIwL3yZBwMaBsy/VWwafs+fR2zJPajKSDBTI2IQ7/0GgFgKQg1rIUm51BEbMSJiTB4VZ9CaHeb16/mwZGdZbxQECPSMAOehZuh23zSbg9Zo2dzSwqgSpnpZLPoq9wkqUHZs3TRNAAHIgIASqcA6BEYPRUtBS6DUwyfW0XPISzmvfkdp4zm65OhcCkINc8hq6tqNPPCyDlEqvQe9rG5SYz88V1pYY2iHQ+KoIQA6qwkvhXggYMeg9j34efLY+q/QajJwlYvJRWF/Cy8YoBwRKBCAHJRqcSyLAxMM/PE34s14DhS5tI2zM+/iTpM1QKRC4iwDk4C6C3F8VgRGXQt7qMbDfVFbqG3lIoZSRrfHAAQK9IQA56E2iHbVn1KWQy8CzdK6ySh/DPB97dFR6cjoyfZoigADkQEAIVOEZASYePg8jlARBpdeAIYVnGZHa+GzDfMqPAOQgvwy7agETD5+DTkkM7Fyl12CU5ZLn+G99trkxHCDQCwKQg14k2UE7mHi4TQyUUudGWi55ixCUvylsgNWBG6AJIghADkQEMXo1mHi4TQwsCKmkzY22XHJJAPbOVWQ0uj+h/fcRgBzcx5ASbiLAxMN9YqD0VsoKlevyssmJHCDQAwKQgx6kmLQNNr/g7fsPTzn8e29mo/6utBPgqMslH9U9lQWqkroFqi2CAORARBCjVYOJh+tvn/MgpLIts+koaxvsy43UxtG8WZ/thRz0KVfpVjHxcD/AlARB6U109OWSS7lsnauknEo7AionjQDkQFo8/VWOiYfniIG9hVovi8Jh9bD6bAVFfvskX1IbFbSWOlxFAHJwFTnuO40AEw8/BY6jQVSp14AhhXPys+EgDhDIigDkIKvkktWbiYfnAouRB7Wxa5ZLPi9DpYmkyVwG1Q1GAHIQLIDeH8/Ew/MBZepVUOo1YEjhmhyN4HGAQEYEIAcZpZakzratMCvpXQ8qCtsyT6rGcsnX5GhEz3rNOEAgGwKQg2wSS1JfMhKuBxMLKGqz3SF59+SpRPSSuBCqGYwA5CBYAD0+3iauMav9XjBR2WDJ9JPlku/JUpHs9eh3aJMvApADXzyHL83Gyacxc/5fCypqvQbI9Joc5/rPvgvDu8dUAEAOUolLt7I2YY0FcnyCiFKvgWkcyyX7yJXURl3/Rc1eIwA5eI0J31xAgDQ3nwCitC2zqQFrG/jIdepFILXxgnPhlhAEIAchsPf1UAKIXwBR63pmfQo/2RpBsLk41svGAQLqCEAO1CUkXj9zdLad8PRmxP/rwURpW2ZTO9Y2uC7LLTuw4TcOEFBHAHKgLiHx+jFZzS+AqHU50yPkJ9s5WSC1UdyxUb0H5AAluIyAOThSFn0CiNK2zJNCMI/ER7ZzYmCf1eaWTDLnPwhMCEAOJiT4fxoBshP8gofSUsmmCAwp+Ml2iRzYd2rzS047AG7oGgHIQdfirdc4S7dbc3p8fy6wKE5SY7nkczK8ovMmdw4QUEUAcqAqGfF6sZyuX/BQ6zUw1UO+fvLdIg5GwjhAQBEByIGiVMTrxFulX+Cwt0e1yWksl+wn3y1iYL8pyl/c/VC9RghADhoB3ctjGIv2DRyKO/aRgeIr4z2CQGpjL96xr3ZADvqSZ/XWEDh8A4e9pasdLJfsK+M9cmC/K+qBml5Sn7YIQA7a4p36aaQu+gYNtQ2WTDlZ28BXxkeIgV2jtgBWakdF5V0QgBy4wDhGIeS9+wYOtQ2WTItZLtlXxkfJgV1HauMYfjRLKyEHWSQVXE/eKH2DhmKvAfNJfGV8hhjYtaQ2Bjs5Hv+EAOTgCQ4+LCFgQYP9E3wDh2KvAQTQV8ZnyYFdr5jWuuQT+K5/BCAH/cv4dgtJXfQNGqpL5zJs5CvnK+SA1Mbb7ooCnBCAHDgB2WsxdDX7BwzFsWXk7C/nK+TA7lEccurVv9GudQQgB+vY8AsT1NyXiFadlU7vkA45MIJAaiPuNxoByEG0BISfbw7KujmvvgFx3+uAo7pcLsslv5ZVpP7aWhMcIBCJAOQgEn3xZxMwfAOG4rbMpoJGAiMDIc9e1rMvv/5e3ENQvZ4RgBz0LN0bbWPm+rLDvhPIVGeis+qlv6zv6Ml0L6mNNxwYt95GAHJwG8L+CiB10T9YmKM3XBUPlkv2l/cU4O/+V9x7Q1GHqZM/ApADf0zTl8ibpH+wUO01sPUW7gYw7vfXlxJTtV070zs4GnAIAcjBIZjGuYj9E/wdvXLuOssl+8u7DOwe56Q2juN/lVoKOVCShkBdCBb+wUJ1S14b5mBIwV/eHoRgXobi2hgC7ooqVEQAclAR3GxF08VcJ1Co5qwz6bSOvOeB3eMzqY3ZvGn++kIO8svQrQWkLvoHC+UuYZZL9pe3BxFYK4PURjdXR0EHEIAcHABphEt4i6wTKBQ3WDJ9ZrnkOvJeC+we3yvPXRnBR47WRsjBaBJfaC9jz3UChXKvAcsl15G5BwnYKkN1/sqCW+Gr5AhADpIL0KP6pC7WCRSqvQamMwwh1ZH5VmD3+o3URg+vRxl7CEAO9hDq/HdSF+sECQu+qgfLJdeRuVfw3ytHWbdUdZ56nUcAcnAes67usG7KPWfE7+eDiXLqGT1F5+WpZgPK+tWVgxy4MZCDgYVP6mKdIKGedsbaBnXk3pJAsO/CwI67UdMhB42AVnwM4851goTqtsymgxDCOjJvSQymZynrmaK/o07nEIAcnMOrm6uZrV4nSNhbueoGS6a8DCnUkfsUsFv+J7WxG3cs2RDIgaRY6laKHPd6AUJ1gyXTKFJW68m9JSkon0VqY11fOXLpkIMBpc/bY50gYW9yyr0GLHRVR+5lsI44V12ee0DX2lWTIQddiXO/MaQu1gsQyr0Gphksl1xP9hGkYHrmZ+++2jd8rgCBkwhADk4Clv1yAkSdAKE+/stQUh25TwE6+j/7LmT3zHr1hxzoyaRajehWrhcg1Md+mYBaT/bRxMCeT2pjNbc5bMGQg0FEb2+O1v2o4Mh6rIP6uC9pq32TA7Mp9WGtQVxtN82EHHQjyu2G8OZYLzgob7BkWsFyyfVkr0Z02Xdh2w/y63EEIAfHsUp7JePNdYOD8gZLprRkp9SVvxJBUCeqaZ3ogBWHHAwg9LfvPzCc8KZOgMjgjFkuuY7slUhBWRf1Ia4BXG4XTYQcdCHG9UbYW61NViqdB+d+wUK914AhBT9ZZ7Eb9b091r0VvyghADlQkkaFujARrV5wyLB1LkMK9eSvTBZIbazgTAcrEnLQscBJXawbGNQdsM01YUihrg6oEgRSGzt27I2aBjloBHTrx5C6WDcoqG+wZPoGOayrA6rEYKqX+tobrX0izzuHAOTgHF5prqY7uW5gyJBTzmqYdXVgCsLK/0ltTOOy5SoKOZATyf0KsX9C3aBgXbbWM6N8kL5aVweUCUFZtwzZNMp2NHLdIAcdSt+6E0sHwblvoMjQa8CiV74yz2xDNrzEAQJnEYAcnEVM/HpLrcvsyNTrnqHXwFSULBXIwWRLpDaKO23R6kEORAVztVoEhbpBIUOvAWsb1NWBKehm+q+eWXPV33FfPQQgB/WwbV6yOYBMDitbXa3XIMMELyajQg7mtpVFd5s7TR64igDkYBWaXD+Q014/IGRJDWNtg/q6MA++GT5n0d9cnrff2kIOOpEtb4v1A0KGNesZUqivBxmIwFodM+hwJy45fTMgB+lF+Hjp6rZuwzWHwPf3A0aWlDBI4n1Z92wvGZb87sAld9EEyEEHYiR1sX5AUN9gydSYoaX6etADcSC1sQOn36AJkIMGINd8BEvk1g8IWXoN0IX6utADObBeRg4Q2EMAcrCHkPjvpC7WDwhZ3rRYLrm+LvRADqwNGVJyxV1v99WDHCQWMavg1Q8Gn737KoWGsFxyfV3ohRhYO0htTGHWoZWEHITCf/3hBIM2wSDL4jEQxTb60BNByDJcdt1LcucdBCAHd9ALvJdZ6fWDQYZtmScVZHipvj70RAymtpDaOFkQ/+cIQA7miCT4zK6LbQJBlnFZ1jZoow9TQO3pf5ZhswRuubsqQg4SipS3xPrBwMZkbegmw0EvUn196IkQzNuSZegsgy32VEfIQTJpkq7WJhBk6TUw9WW55DY6MQ+qvXwmtTFZEGhUXchBI6A9HmNvstYN2ItTUm1Hpl4DhhQgBh52lIkMe/hSythHAHKwj5HMFcxIbxMIMjlKhhTa6IRHAFYvI8OOozLOeICKQA6SCJnUxTZBIFP+t+kEQwpt9EI9sHvUj9TGJMGgUTUhB42AvvuYt+8/MJzwpn4gyLStLfNP6uuDR9DNVEaGPUTu+lLuP4YA5OAYTqFXmcHaG20mJ5O1rpnyviEHkANvO7OeKA4QMAQgBwn0gNTFNkEgY7cqO3K20Q3vIKxcHqmNCYJCgypCDhqAfOcRvB22c/5Zu1Qhj+10RDmoe9WN1MY7HrufeyEHwrIkdbGd08/YazCpLnrSTk+8ArB6OZnm3kx2wH9fBCAHvni6lkaaWjunbz00mQ+yWdrpinpg96ofqY2ZPcL9ukMO7mNYpQT2T2jn7HtZX54FkdrpjFcAVi7Hhqs4xkUAciAqeyaatXP0PU3AYo5KO71RDuxedcveoybq3lNUC3IgKCabGOdl3JSzHSwybct8VFUhltsyxyaO40Nq41Gr6+86yIGgTJl9ftx53XX0mZZKPqOqNsHyLjbc304PlbHuqWftjA2Nfi3kQEwD2D+hnUPOtMHSFTVlk652uqQc3O/WLdOS4lfshHuWEYAcLOMS8i1r5bd15r32GkzKSwZDW326G4SV7ye1cbKqcf5DDoRkTepiO2fee6/BpNZkMLTTKeXg7lG3TEuLT/rP/+sIQA6uY+d6J6mLbZ14770GpXIywbWtbnkEYsUyekn5LW2D83UEIAfr2DT9hRnm7Rz4iGOo7OrZTr8UA7tXnUhtbBoWQh8GOQiF/+PDyU1v67gzL5V8R13JYGirZ14BWakcI9YcYyAAOQiWs00aI3WxrdMeeeyUDIa2uqYU2L3qMtKQXHB4CH085CAU/seD1MW2znrUXoNJzcmIaatvXgFZqZwRh+Um+xnpP+QgUNqkmrV31Fm3ZfZUUzIY2uudUnD3qMvoJNvTHlXLghwESobUxbZOmo1kPik7GQxtdc8jIKuVMfLw3CdL6vcMchAkW1IX2ztnZlo/KztDWu11UC3A36kP+y4821NvnyAHQRJlEmJbx0yO9rKik0LbVg/vBGPFe9l3YdmuevgWchAgRVIX2ztknNi6okNU2+ujYqC/UidSG9ftKvsvkIPGErRJiKSTtXXGPW7L7Km2ZDC01ccrQVj5HlIbPa1RpyzIQWNZMAmxvSPGee0ruc2BUQ5A1K293ZzB3PSHoy8EIAcN5UnqYnsHZ92ehjvHPgJkMLTXzzMBWPlaUhv37SvbFZCDhhJjffv2zpdeg3MKbnMzlIMQdWtvQ0cxZw2Rc7amfjXkoJGEeCtr79RYye2acpPB0F5XjwZg5etIbbxmb6p3QQ4aSYYZ4e0dLr0G15UbfW2vr8qB/2jdyAq6bnNqd0IOGkiE1MX2jpZeg3uKTVZNe509GoCVr2OOzz27U7obclBZGjjZGCfLBKn7is0qnjG6qxz8j9TNhqU48iMAOagsQ1IXYxwsk6N8FJu5MjH6eyQIK19DaqOP/UWWAjmoiD5vXjGOlV4DX6UmgyFGj5WD/17dbM4KR24EIAcV5ces7xinSq+Bv1KjyzG6vBeElX9nozN/O2xZIuSgEtp0x8Y4U95YKin04/EggyFGp5UJwFbdbHIiR14EIAeVZIcjjXGkvK1UUujH42WlSfYFidHrrSCs/JttC86REwHIQQW5mUEoG2yvdWNb5grKPCuSeTSQgzP+g5TimQEl+gg5cBYW+yfEOU8WYHFW5pXiGDKL0/EzgVnlWlIbVwxJ/GvIgbOASF2McZxsy+ysyDvFsbBXjJ6rBPyz9fj2h592NIqf1RCAHDhKhC7XOIfJUsmOinywKDIY4vT9bHCOvp4hv4NGJXQZ5MBRGJZfH22EIz6fJVsdlfhkUeg8BOGoz2Gy8EnjCr4ccuAkALpZ45wkvQZOSnyhGJYHj9P7o0FZ5TpSGy8YWOAtkAMH8HGQcQ6S2dAOCnyzCCbhxum/SuA/Wg+I/E1ja3g75MABbFIX45zj2/cfHCRIEXcRsAlnRwME18XZSzT2kPm7ltbufsjBTax5a4pzdOZomAV9U4Edb2doLc4WooP+meez94mj0VUsCnJwE1x7cz1jGFzr50BxMjeVt8Lt2IOffvfsKyD1FYzPuUjIwQ1ATcHt7bVnI1ZuGxss3VDeireSwQBB2PMbti4JhzYCkIMb8mH/hDgnSK/BDcVtcCt7MMTZxl5gVvmdFU0bGOKNR0AOLoLH+Gqs86PX4KLiNrrN5uLY26FKIKIesfa6hL/1unLoIgA5uCAbUhdjHQ3bMl9Q2oBbyGCItZOlgKz2HdlGAYZ58JGQg4NAlZexf0Ks02OltVIbtc/ZpCnWVtTIwFJ9bNl5Dj0EIAcnZcL+CbHOjjXaTyqswOWsAxJrM0sBWek75g8JGOlCFSAHC6BsfUWqVqyjs0DDkQ8BMhhi7UaJDCzVhd5APZuGHJyQCV2ksQ6ObZlPKKvgpWQwxNrPUlBW+Y7URj2DhRyckAmpi7HOjXXZTyir4KVkMMTajwoRWKsHqY1aRgs5OCgPUhdjHZulPVlw4ciNgM3ZWQsOfB9rY9H4Y+Natg05OCAP3njinRa9BgcUNcklDM/F21M0Eb2c6HMAAA8CSURBVFh7/udffJNEi/uvJuTggIxJXYx1ZvZGQbrTAUVNdAkZDLE2tRacFb7H1jUMGXKwIwdSF+OdGG8TO0qa9GeTq0Iwog7xNl7KgEXONAwacrAjBxxYvONgB7cdJU38M5N84+2rDMwq56Q2xhs15GBDBoyNxjsuFkjZUNAOfmI+T7yNqRCCsh7suxBv3JCDDRnwVhPvuIygcfSNABkM8XZWBmaVcxY8i7V7yMEK/kyYindY9BqsKGeHX9NLF29vKqRgqgcTkWMNHXKwgL91dZpiTkrK/xjHRa/BgnJ2/JUtgoOtxdiaKu5MRo4zeMjBAvakLsY7KGYsLyjmAF8xATje9tSIAhOSYwwfcjDDndRFDefEbOWZYg70kbk+GjaoQhLYiTXG+CEHM9zZPS7eMbEJy0wpB/tow3ps0hRvhyrkwOrBy0J7JwA5KDBn/wQNh8Qs5UIpBz2lB0/DFlUIAqmN7R0B5OAXzHlb0XBGbMvc3gmoPpEMBg2bVCEI7K/S1lIhB7/gTeqihiPCAbR1AOpPozdPwy4VCAKpjW2tFXLweLxsBUzqYrwTMhlYDw4HCJQIkMEQb5sK5MDqwNonpWXUPYccPB6Pt+8/kF/9Jt4B0WtQ19gzl04GQ7x9qhAEUhvbWPLw5MDGNek1iHc8dBm2MfisT2FOULyNqpADspnaWPHw5IA3Eg2nw0pobQw+81OMIEDkNew1mijYapocdREYmhww2UnH0dBVWNfQeymdDAYdm40kCEYSOeoiMCw5oJtSx8kwyaiukfdWOqRex3YjCYLNFeOoh8Cw5ID9E3QcDBss1TPwXksmg0HHfiMJgi2WxVEHgSHJAauv6TgWeg3qGPYIpbLUuY4dRxEE/Ec9Sx+SHPDWoeNU6DWoZ9y9l8zQoI4dR5EDe64NM3H4IzAcOWBCk45DYVtmf4MerUQyGHTsOYogkNpYx+qHIwekLuo4E9KR6hj1aKVapktUYOK5Gv4EX+Jv9UORA1MgjFnDmNlgyd+YRy6RHkENu47yryyi5m/9w5AD6360gBSlvDz32XmxLbO/MY9eIsugP9vYaD6HhdR8PcAw5IDURR3HYSzfyBoHCHgjQAaDjp1HkBMWU/OzqCHIAamLWg6DDZb8DJiSXiPw2buv6CEU2Egtghwwyfm1PVz9ZghyQOqiDjmg1+CqqXLfUQQYQtSx9wiCQGrjUUvZvq57csBSq1qOgl6DbYPkVx8EyGDQsvuWJIF9F3xsqHtyQOqijpNgRrGP0VLKMQTIYNCx/ZbkwJ7FS8gxG9m6qmtyYDPiWyslz1t3SMwm3jJFfquBAD5g3R579lW8iNy3pm7JASun6TkFZhLfN1hKOI8AGQx6vqAFMWHfhfO2Ut7RLTkgdVHLIWCopdlx3hoBMhi0/EELcmDP4IXkuqV1SQ5IXdRzBGywdN1IufM+AmQw6PmEFgTBSCHHNQS6JAdMQtRyBPQaXDNO7vJFwF4aWgQknqHlf9h34ZoddUcOSF3UMkxzlOQdXzNO7vJHgAwGPf9Qm0yR2njNjroiB9Z1yNiilvHTrXfNMLmrHgJkMGj5iNrkwMontfG8PXVFDjB6PaOnS++8UXJHfQRYNVXPV9QmCTasxHEcgW7IAamLesbOtszHDZEr2yPA3CQ9n1GTIDD36ZyNdUMO2K5Vz9DpyjtnjFzdFgGGIfV8Rk1yYGWTNXXcxrogByZwm3RSW7Eo/7gzMXmY8+UAAWUEyGA4btM9+D/rzeQ4hkAX5IDuQT0Dp9fgmAFyVTwCZDDo+Y+aRIR5UMdsLj05IHVRz7DpNThmfFylg4AFjJoBibJ1/BSpjcfsLjU5YMxQx+BK50evwTHj4yotBMhg0PQnpW/xOmcTuH3bS00OLAh5KQvl+DgGY+WkDO0bHldoIsAQpY8fyOBP8VPbNpiWHJhgLRBlUMKR6ggj3zY4ftVGgN7IcciBEUGOdQTSkgO6ADWNmF3Q1o2NX3IgwIuHpm+p8ZLF0u7rNpmSHDC7WNN4WWRk3dD4JRcC+BhNH+NNEEhtXLfLlOSAcUFNwzWHygECvSBAJpSmn/EmCKQ2LltsOnLA/gmaBkuvwbKB8W1uBBi+1PQ3ngSBSdTLNpqKHNhkIesG8lQMyvIxfsbulg2Mb/MjQE+lj49Q9rVMpH5tp6nIAamLmkbKtsyvDYtv+kGADAZNv+NNNphM/WyzacgBM4h1DZQxu2ej4lN/CBhBIHVa1wd5EAVSG5/tNg05YOxP0zDZlvnZoPjULwJkMGj6IA9iMJXB8Ogn+01BDpg1rGuULJX8yZg46x8BfJGuL5oC/J3/1jvE8REBeXJg3XlMCNI0SDMkkw8HCIyEAL2Ymv7oDiko7+WF56M1y5MDUhd1DREjGikk0tYSAUvdLQMK57p+6qxsSG1MQA6YBKRrcPQalKGC8xERsCyds4GH63V9Wikb1m15PKR7Dkhd1DUkeg1GDIe0uUSAlxdd/1QG+qvno6c2ypIDUhd1DY9utzJEcD4yAhZArgYf7tP1cSab0fddkCUHTELUNRxWExs5HNL2OQKkOOr6qrsEbOQ1XCTJAelC2sY2enfbPDjwGQTevv9AD8Ibbb91hShYL+mohxw5sHE8JvroGhkTdUZ1FbR7DwEyGHT91hViMN0z6vwqOXLAJERtA2Nb5r0Qwe8jI8CLjbb/mgL+2f82B260Q4ocMPtX27BYe3w090B7zyJgPoydY7X92FliYNeP2GMqRQ4Yt9M2KtYdPxsquH5EBMhg0PZjV8iB3TNar6kMOWDGr7ZBsS3ziGGONl9FAH+m7c+uEITRUhtlyAGpi9rGNHJKz9UAwX1jI8DS79o+7QpBGMkPSpADUhe1jYhtmccOcrT+OgJs0qTt284ShJGWjQ8nB6Qu6hvPqKk810MCd4LAJwTIYND3cWdIwiiLwIWTA1IXtQ1nJKb8yZ1zBgJ+CJDBoO3jzhCD6doRUhtDyQH7J+gbDb0GfkGCksZFwHzdFFj4r+/39mQ0Qlp3KDlgPE7bSOg1GDeY0XJ/BMhg0PZ3e4Rg/nvvqd1h5ABD0TcUeg38AwQljo0AGQz6fm9OAtY+977vQhg5MNZlix7xp4vBCONqY4cqWh+BAD2m/RAEI3u9HmHkoFdAaRcIgAAILCFgExOtx5Teg37IgfUe9PoSBTlYsmK+AwEQAIGLCBgJsCWUbcEc6xm1yWsWRNa6p/k+N1noNbURcnDRAXAbCIDA2AhMJMCGSG1+jpEAW9MAIpA72F8ha0YGezsgB71JlPaAAAi4I1AOCVhvACRgPAKwRRp63HsGcuDuRigQBEAgKwJTb4DNC4AEQAC2CMH8t95SGyEHWb0Y9QYBELiMwEQC5kMCc4fPZwjCUR3oLbURcnDZvXAjCIBABgSMCBgJoDeAQH800F+9rqe1YSAHGbwbdQQBENhFgHkBBP+rQd3rvp5SGyEHuy6HC0AABJQQYEgAEuAVzGuU85vf/1XJXC7XBXJwGTpuBAEQqI2ALTAzDQmY0yVLAGJQI6B7l9lDaiPkoLZ3o3wQAIFdBBgSIOh7B+jI8n792z/v6rz6BZADdQlRPxDoCIGlIQFzpJGOnGdDTGrogK2QmfmAHGSWHnUHAWEEGBIg6NYIulnKzJ7aCDkQdq5UDQQyIMCQACQgS8BuXU9bSCvrATnIKjnqDQKNEWBIABLQOrj28LysuzZCDho7WB4HAuoILJEAsgQgBj0E6og2ZE1thByoe2rqBwIVEWBIgKAfETBHe2bGfRcgBxUdL0WDgAoCU2+AzaC2cVDbXpithSEGowXpqPZmTG2EHKh4b+oBAg4ITCRgvqEQRAAiEBUYee5H3cuW2gg5cHDIFAECEQgwJEDAJ/Dm0QEj6GazWQ7IQRZJUc9hEZh6AxgSyBMICNrIakkHPv/imzR+DHKQRlRUtHcEJhLAkACBZSmw8F0fepEltRFy0HvEoX2SCDAk0IejJ2Ajx7M6YJOBMxyQgwxSoo5pEZh6A373l3+8ZAmwXgDB5Gww4fr+dCZDaiPkIG3YoeJKCEwkYD4kgGPvz7EjU2R6Vwcy7LsAOVCKMNQlBQJGBIwEWG+ATTCiN4BgcTdYcP94OmT+Q/mAHChLh7qFIsC8gPEcNkEambfSAes9UJ6cCDkIDT88XAEBhgQICK0CAs9B10odUE5thBwoRCfq0AwBY+rTkIBtiMKQAM66dNacow+tdeDbH35q5v/OPAhycAYtrk2DAEMCOPnWTp7noXNXdMBeUBQPyIGiVKjTYQSWhgRsk5MrRso9OHd0AB2I0AHF1EbIweEwxIXRCDAkgOOOcNw8E72rrQOKqY2Qg+iIx/NfIcCQAM64tjOmfHRMTQfe/fHvr3xh5BeQg0j0B382QwI4aDUHTX3QySgdUEtthBwMHqBbNH+JBJAlgBOOcsI8F91T1QHLoFI5IAcqkuikHgwJ4HhVHS/1Qjcz6IBKaiPkoJOg3LoZU2/Al19//7KhkO00Zt1iGYyPOhIk0AF0QFUHLNtK4YAcKEhBuA4TCZhvKAQRwLmqOlfqhW5m1wF76Yo+IAfREhB+vnVvGSkwReUPDNABdAAdaKMDCuseQA6EgzNVAwEQAAEQAIEIBCAHEajzTBAAARAAARAQRgByICwcqgYCIAACIAACEQhADiJQ55kgAAIgAAIgIIwA5EBYOFQNBEAABEAABCIQgBxEoM4zQQAEQAAEQEAYAciBsHCoGgiAAAiAAAhEIAA5iECdZ4IACIAACICAMAKQA2HhUDUQAAEQAAEQiEAAchCBOs8EARAAARAAAWEEIAfCwqFqIAACIAACIBCBAOQgAnWeCQIgAAIgAALCCEAOhIVD1UAABEAABEAgAgHIQQTqPBMEQAAEQAAEhBGAHAgLh6qBAAiAAAiAQAQCkIMI1HkmCIAACIAACAgjADkQFg5VAwEQAAEQAIEIBCAHEajzTBAAARAAARAQRgByICwcqgYCIAACIAACEQhADiJQ55kgAAIgAAIgIIwA5EBYOFQNBEAABEAABCIQgBxEoM4zQQAEQAAEQEAYAciBsHCoGgiAAAiAAAhEIAA5iECdZ4IACIAACICAMAKQA2HhUDUQAAEQAAEQiEAAchCBOs8EARAAARAAAWEE/h/GRNMgKvSJ2QAAAABJRU5ErkJggg==;" parent="1" vertex="1">
          <mxGeometry x="1275" y="1385.66" width="30" height="22.37" as="geometry" />
        </mxCell>
        <mxCell id="Mwrt2MIfaS3BiG5PvJi2-270" style="edgeStyle=orthogonalEdgeStyle;curved=1;rounded=0;orthogonalLoop=1;jettySize=auto;html=1;entryX=0;entryY=0.5;entryDx=0;entryDy=0;startArrow=none;startFill=0;endArrow=classic;endFill=1;strokeColor=#000000;strokeWidth=2;" parent="1" target="Mwrt2MIfaS3BiG5PvJi2-228" edge="1">
          <mxGeometry relative="1" as="geometry">
            <mxPoint x="1350" y="1581" as="sourcePoint" />
          </mxGeometry>
        </mxCell>
        <mxCell id="Mwrt2MIfaS3BiG5PvJi2-271" style="edgeStyle=orthogonalEdgeStyle;curved=1;rounded=0;orthogonalLoop=1;jettySize=auto;html=1;entryX=0;entryY=0.5;entryDx=0;entryDy=0;startArrow=none;startFill=0;endArrow=classic;endFill=1;strokeColor=#000000;strokeWidth=2;" parent="1" source="Mwrt2MIfaS3BiG5PvJi2-258" target="Mwrt2MIfaS3BiG5PvJi2-253" edge="1">
          <mxGeometry relative="1" as="geometry">
            <Array as="points">
              <mxPoint x="1440" y="1591" />
              <mxPoint x="1440" y="1591" />
            </Array>
          </mxGeometry>
        </mxCell>
        <mxCell id="Mwrt2MIfaS3BiG5PvJi2-274" style="rounded=0;orthogonalLoop=1;jettySize=auto;html=1;entryX=0.25;entryY=1;entryDx=0;entryDy=0;startArrow=none;startFill=0;endArrow=classic;endFill=1;strokeColor=#000000;strokeWidth=2;exitX=0.25;exitY=0;exitDx=0;exitDy=0;" parent="1" source="Mwrt2MIfaS3BiG5PvJi2-258" target="Mwrt2MIfaS3BiG5PvJi2-255" edge="1">
          <mxGeometry relative="1" as="geometry" />
        </mxCell>
        <mxCell id="Mwrt2MIfaS3BiG5PvJi2-258" value="Managed Identity Controller" style="rounded=1;whiteSpace=wrap;html=1;align=center;verticalAlign=top;" parent="1" vertex="1">
          <mxGeometry x="1230" y="1551" width="120" height="60" as="geometry" />
        </mxCell>
        <mxCell id="Mwrt2MIfaS3BiG5PvJi2-259" value="" style="shape=image;verticalLabelPosition=bottom;labelBackgroundColor=#ffffff;verticalAlign=top;aspect=fixed;imageAspect=0;image=data:image/png,iVBORw0KGgoAAAANSUhEUgAAAgcAAAGDCAYAAAC/aLNoAAAgAElEQVR4Ae2dP64lx3XGtRSvwCvQCrgCr0Ar4KQOJlA6oSMBSglGk8mCEkEgDJiAEoqYQDAggGTgwATMgImDa5w3bEzdfv2/T9X5TtWvgYfX997u6qrv/Pu6qk7Vrx4cIAACIAACIAACIFAg8KvinFMQAAEQAAEQAAEQeEAOUAIQAAEQAAEQAIEnBCAHT3DwAQRAAARAAARAAHKADoAACIAACIAACDwhADl4goMPIAACIAACIAACkAN0AARAoCoC3/34c9XyKRwEQMAfAciBP6aUCAIg8AsCv/vLPx72xwECIJALAchBLnlRWxBIg8Db9x8e//yvf3r878//l6bOVBQEQOAjApADNAEEQMAVASMDn3/xzeOf3vzh8e6Pf3ctm8JAAATaIAA5aIMzTwGBIRCw+QX/8m//+UIMrNeA+QZDiJ1GdogA5KBDodIkEIhA4Nsffnr8+rd/fiEG9BpESIBngoAfApADPywpCQSGReDf//bfL/MLjBTYH70Gw6oCDe8EAchBJ4KkGSAQhYDNK5hIwfT/N7//a1R1eC4IgIADApADBxApAgRGRKCceDiRgun/f/zX/4wICW0GgW4QgBx0I0oaAgLtEDBiYL0DExko/9Nr0E4OPAkEaiEAOaiFLOWCQKcIzCcelsTAzuk16FTwNGsoBCAHQ4mbxoLAPQQs8NtkwzkhmD5bGiMHCIBAfgQgB/llSAtAoAkCtgzyFjEwgmBZCxwgAAL5EYAc5JchLQCBqghsTTycegzs/2fvvqpaDwoHARBohwDkoB3WPAkE0iGwNfGwJAZ2/uXX36drHxUGARBYRgBysIwL34LA8AjsTTwsyYGtjGhEggMEQKAPBCAHfciRVoCAKwJ7Ew9LYmDnbLDkCj+FgUA4ApCDcBFQARDQQuDIxMOSHNgkRXoNtGRIbUDgLgKQg7sIcj8IdIKABfi37z+spimWhKA8p9egEwWgGSBQIAA5KMDgFARGReDMxMOSGLDB0qgaQ7t7RwBy0LuEaR8I7CBgEw8tDbEM+kfPP//im53S+RkEQCAjApCDjFKjziDghMDZiYdz0mDEggMEQKA/BCAH/cmUFoHAIQTOTjycEwM2WDoEMxeBQEoEIAcpxUalQeAeAlcmHs7JARss3ZMBd4OAMgKQA2XpUDcQcEbAJh7aPIF5oD/7mV4DZ8FQHAiIIQA5EBMI1QGBWgh89+PPD9s18SwRWLq+Za8BayjU0gjKBYF1BCAH69jwCwh0g8CZpZCXyED5XcttmW2XRzIiulFDGpIIAchBImFRVRC4goAF2L2tlsvgv3fecltmG76w+pAVcUXy3AMC1xGAHFzHjjtBQB4BW71wL9if+d02WGp12HDCRGrYDroV6jwHBD4iADlAE0CgQwS8Jh7OiYOlP7Y6rIeifH7LHotWbeQ5IKCKAORAVTLUCwQuImDEYOqOL4Pr3fPW2zLP22C9CBwgAAJtEIActMGZp4BAEwQ8Jx7OyUTLDZYss2L+fPvcsg5NBMZDQEAUAciBqGCoFgicReDuUshLwXj6zt7aW6YUrs2VsHoYceAAARCoiwDkoC6+lA4CTRC4uxTyRALW/rd+Y99aj4EFmJqoFA8ZHAHIweAKQPNzI1Br4mFJElq/rdvQSPn8pXNSG3PrLbXXRwByoC8jaggCiwjUmng4D8atFyFaG1Io69UypXIRfL4Egc4RgBx0LmCa1ycCNScelkHYzlu/pVvgn9dh6fOXX3/fp3BpFQgIIAA5EBACVQCBMwjUnHg4D8Ktx/fnaxvM61N+JrXxjNZwLQicQwBycA4vrgaBUARqTzwsg6+dt9xgyYCdr20wr8/8s209zQECIOCPAOTAH1NKBAF3BGx+gQXCeXCs+bl1r4G10XoDzraJ1EZ3daNAEHhADlACEBBHoNXEw3lQbt1rcGZIoaxraxIjri5UDwRcEIAcuMBIISBQBwGbDGibDpXBsMV5y22ZJ+TODimUOLDvwoQi/0HABwHIgQ+OlAIC7gi0nHhYBlo7b50JsLZc8rxea59JbXRXPwocHAHIweAKQPM1EWg98bAMuq03WDIJWHvLOlw5b01oNDWHWoGADwKQAx8cKQUE3BBoPfFwHogtULc+tpZLntdv7XPrlRxbY8TzQKAlApCDlmjzLBDYQMAmHtpqhGvBr8X3Eb0GNq/Cq22tV3PcECc/gUBqBCAHqcVH5XtBwMbcPd6e7wbZ1hssmfyOLJd8pl2tV3TsRQdpBwiUCEAOSjQ4B4EABCyYHV0y+EyQPHutdctb70Xrw7vtEZkWrTHjeSBQGwHIQW2EKR8ENhCwFLwrC/+cDfxHro/oNbi6tsFee0ht3FA6fgKBAwhADg6AxCUgUAMB7+70vYC59XvUZL47axvstaeGzCgTBEZBAHIwiqRppwwCChMP54E1YiKf4VCz1ySiJ0RGyagICNxEAHJwE0BuB4EzCFhArPW2PA/4Zz5HTOKrNaQwtTuqN+SMPnAtCKgiADlQlQz16g4BlYmHU/Cc/kftTdCCJEW1rTvlpUHDIQA5GE7kNDgCgcilkCcSsPa/9QZLhn/tIYWyrRG9IhE6xjNBwBMByIEnmpQFAgsIRC6FXAbJpfOoN2uP5ZKX2rP0nW1cxQECIHAOAcjBOby4GgQOI6A48XAePCN6DQzA1gs+se/CYbXlQhB4QQBygCKAQAUEVCceluQg6o3auvnLerQ4t8mJHCAAAscRgBwcx4orQeAQAqoTD+dBOOptOmp9B1IbD6kvF4HACwKQAxQBBBwRUJ54WJKDiA2WJpi9l0su27V3bntYcIAACOwjADnYx4grQOAQAsoTD+dBM+otuvbaBvN2zj9HTcA8pEBcBAJCCEAOhIRBVXIiYPML3r7/0HwcfR74jn628Xerc8TRYm2DPRyiJmFG4M0zQeAqApCDq8hxHwj8kq+vEPD2AmL5e1SvgRGSmssll23cOrdhDQ4QAIFtBCAH2/jwKwisIpBl4mEZKCN7DaKHFEocoiZjrioTP4CAGAKQAzGBUJ0cCGSZeFgGRDuP6jUwqSr1sJDamMPOqGUcApCDOOx5clIEMk08LMmBBcSo2foqQwolHhE7USZVeao9IAKQgwGFTpOvI5Bp4mEZCO08Mhi2XC553u6tz1Fk6boGcicItEEActAGZ56SHAF787XguhVo1H+L3ICo9XLJR2Vh9eIAARB4jQDk4DUmfAMCTwjY26VqcDsaBCPz+yOWSz6Ki11nEyU5QAAEnhGAHDzjwScQeEIgY0bCUmCMzO23SZBLdVL5jtTGJ5XnAwi8IAA5QBFAYAUBe6NUyMu/G0Qjew0M2sjlko9iR2rjihHw9bAIQA6GFT0N30JA/W33aNCz6yK7zZXWNtjCLDKTY0sP+Q0EohCAHEQhz3MlEehh4mEZBKO2ZZ6Em2kSZ2Q2x4QX/0FABQHIgYokqEc4AkYMlBbqKYP81fPI7nLFtQ32cIzM6Ag3ACoAAgUCkIMCDE7HRaCXiYdl8LOxfgvQUUeWIYUSM1Ibo7SF56ohADlQkwj1aY5A1qWQy6C2dB65VLIJMWsvTOQcjebKzwNBYAUByMEKMHw9BgJZl0JeIgPldzbBLrLXIOOQwoSfYccBAqMjADkYXQMGbb8Fr0yT5abAdfR/dK+B6nLJWfAb1CxpthACkAMhYVCVNggYMcja5X0kuEX3GpgUs68oSWpjG1vkKboIQA50ZUPNKiDQ48TDOWGI7jUwjOd1yvg5evGoCupPkSBwGAHIwWGouDA7Ar1OPCwDr8Ibb08LSJHamN3qqf9VBCAHV5HjvlQI9DrxsCQGdq6wkE+G5ZLnuK19Zt+FVGZOZR0RgBw4gklRegjY/IK37z900c29FsDK76PfdDOubVDit3QeuZCUnkVRo1EQgByMIukB29n7xMN5IFMYI+8xA4TUxgGdB01+QA5Qgi4RGGHi4ZwcRG7LbEpkZMwC6bxePXyOnuTZpZHSKGkEIAfS4qFyVxAYYeLhPOAqLPvb45BCifN3P/58RR25BwRSIgA5SCk2Kr2GwCgTD8ugZecKS/72vHaEYawwbLOm93wPAt4IQA68EaW8MARGmnhYkoPobZlN4D0PKZRYRw/dhBkXDx4OAcjBcCLvr8EWmHqcCFcGpa1zhdn02ZdL3sK3/I3Uxv78By1aRgBysIwL3yZBwMaBsy/VWwafs+fR2zJPajKSDBTI2IQ7/0GgFgKQg1rIUm51BEbMSJiTB4VZ9CaHeb16/mwZGdZbxQECPSMAOehZuh23zSbg9Zo2dzSwqgSpnpZLPoq9wkqUHZs3TRNAAHIgIASqcA6BEYPRUtBS6DUwyfW0XPISzmvfkdp4zm65OhcCkINc8hq6tqNPPCyDlEqvQe9rG5SYz88V1pYY2iHQ+KoIQA6qwkvhXggYMeg9j34efLY+q/QajJwlYvJRWF/Cy8YoBwRKBCAHJRqcSyLAxMM/PE34s14DhS5tI2zM+/iTpM1QKRC4iwDk4C6C3F8VgRGXQt7qMbDfVFbqG3lIoZSRrfHAAQK9IQA56E2iHbVn1KWQy8CzdK6ySh/DPB97dFR6cjoyfZoigADkQEAIVOEZASYePg8jlARBpdeAIYVnGZHa+GzDfMqPAOQgvwy7agETD5+DTkkM7Fyl12CU5ZLn+G99trkxHCDQCwKQg14k2UE7mHi4TQyUUudGWi55ixCUvylsgNWBG6AJIghADkQEMXo1mHi4TQwsCKmkzY22XHJJAPbOVWQ0uj+h/fcRgBzcx5ASbiLAxMN9YqD0VsoKlevyssmJHCDQAwKQgx6kmLQNNr/g7fsPTzn8e29mo/6utBPgqMslH9U9lQWqkroFqi2CAORARBCjVYOJh+tvn/MgpLIts+koaxvsy43UxtG8WZ/thRz0KVfpVjHxcD/AlARB6U109OWSS7lsnauknEo7AionjQDkQFo8/VWOiYfniIG9hVovi8Jh9bD6bAVFfvskX1IbFbSWOlxFAHJwFTnuO40AEw8/BY6jQVSp14AhhXPys+EgDhDIigDkIKvkktWbiYfnAouRB7Wxa5ZLPi9DpYmkyVwG1Q1GAHIQLIDeH8/Ew/MBZepVUOo1YEjhmhyN4HGAQEYEIAcZpZakzratMCvpXQ8qCtsyT6rGcsnX5GhEz3rNOEAgGwKQg2wSS1JfMhKuBxMLKGqz3SF59+SpRPSSuBCqGYwA5CBYAD0+3iauMav9XjBR2WDJ9JPlku/JUpHs9eh3aJMvApADXzyHL83Gyacxc/5fCypqvQbI9Joc5/rPvgvDu8dUAEAOUolLt7I2YY0FcnyCiFKvgWkcyyX7yJXURl3/Rc1eIwA5eI0J31xAgDQ3nwCitC2zqQFrG/jIdepFILXxgnPhlhAEIAchsPf1UAKIXwBR63pmfQo/2RpBsLk41svGAQLqCEAO1CUkXj9zdLad8PRmxP/rwURpW2ZTO9Y2uC7LLTuw4TcOEFBHAHKgLiHx+jFZzS+AqHU50yPkJ9s5WSC1UdyxUb0H5AAluIyAOThSFn0CiNK2zJNCMI/ER7ZzYmCf1eaWTDLnPwhMCEAOJiT4fxoBshP8gofSUsmmCAwp+Ml2iRzYd2rzS047AG7oGgHIQdfirdc4S7dbc3p8fy6wKE5SY7nkczK8ovMmdw4QUEUAcqAqGfF6sZyuX/BQ6zUw1UO+fvLdIg5GwjhAQBEByIGiVMTrxFulX+Cwt0e1yWksl+wn3y1iYL8pyl/c/VC9RghADhoB3ctjGIv2DRyKO/aRgeIr4z2CQGpjL96xr3ZADvqSZ/XWEDh8A4e9pasdLJfsK+M9cmC/K+qBml5Sn7YIQA7a4p36aaQu+gYNtQ2WTDlZ28BXxkeIgV2jtgBWakdF5V0QgBy4wDhGIeS9+wYOtQ2WTItZLtlXxkfJgV1HauMYfjRLKyEHWSQVXE/eKH2DhmKvAfNJfGV8hhjYtaQ2Bjs5Hv+EAOTgCQ4+LCFgQYP9E3wDh2KvAQTQV8ZnyYFdr5jWuuQT+K5/BCAH/cv4dgtJXfQNGqpL5zJs5CvnK+SA1Mbb7ooCnBCAHDgB2WsxdDX7BwzFsWXk7C/nK+TA7lEccurVv9GudQQgB+vY8AsT1NyXiFadlU7vkA45MIJAaiPuNxoByEG0BISfbw7KujmvvgFx3+uAo7pcLsslv5ZVpP7aWhMcIBCJAOQgEn3xZxMwfAOG4rbMpoJGAiMDIc9e1rMvv/5e3ENQvZ4RgBz0LN0bbWPm+rLDvhPIVGeis+qlv6zv6Ml0L6mNNxwYt95GAHJwG8L+CiB10T9YmKM3XBUPlkv2l/cU4O/+V9x7Q1GHqZM/ApADf0zTl8ibpH+wUO01sPUW7gYw7vfXlxJTtV070zs4GnAIAcjBIZjGuYj9E/wdvXLuOssl+8u7DOwe56Q2juN/lVoKOVCShkBdCBb+wUJ1S14b5mBIwV/eHoRgXobi2hgC7ooqVEQAclAR3GxF08VcJ1Co5qwz6bSOvOeB3eMzqY3ZvGn++kIO8svQrQWkLvoHC+UuYZZL9pe3BxFYK4PURjdXR0EHEIAcHABphEt4i6wTKBQ3WDJ9ZrnkOvJeC+we3yvPXRnBR47WRsjBaBJfaC9jz3UChXKvAcsl15G5BwnYKkN1/sqCW+Gr5AhADpIL0KP6pC7WCRSqvQamMwwh1ZH5VmD3+o3URg+vRxl7CEAO9hDq/HdSF+sECQu+qgfLJdeRuVfw3ytHWbdUdZ56nUcAcnAes67usG7KPWfE7+eDiXLqGT1F5+WpZgPK+tWVgxy4MZCDgYVP6mKdIKGedsbaBnXk3pJAsO/CwI67UdMhB42AVnwM4851goTqtsymgxDCOjJvSQymZynrmaK/o07nEIAcnMOrm6uZrV4nSNhbueoGS6a8DCnUkfsUsFv+J7WxG3cs2RDIgaRY6laKHPd6AUJ1gyXTKFJW68m9JSkon0VqY11fOXLpkIMBpc/bY50gYW9yyr0GLHRVR+5lsI44V12ee0DX2lWTIQddiXO/MaQu1gsQyr0Gphksl1xP9hGkYHrmZ+++2jd8rgCBkwhADk4Clv1yAkSdAKE+/stQUh25TwE6+j/7LmT3zHr1hxzoyaRajehWrhcg1Md+mYBaT/bRxMCeT2pjNbc5bMGQg0FEb2+O1v2o4Mh6rIP6uC9pq32TA7Mp9WGtQVxtN82EHHQjyu2G8OZYLzgob7BkWsFyyfVkr0Z02Xdh2w/y63EEIAfHsUp7JePNdYOD8gZLprRkp9SVvxJBUCeqaZ3ogBWHHAwg9LfvPzCc8KZOgMjgjFkuuY7slUhBWRf1Ia4BXG4XTYQcdCHG9UbYW61NViqdB+d+wUK914AhBT9ZZ7Eb9b091r0VvyghADlQkkaFujARrV5wyLB1LkMK9eSvTBZIbazgTAcrEnLQscBJXawbGNQdsM01YUihrg6oEgRSGzt27I2aBjloBHTrx5C6WDcoqG+wZPoGOayrA6rEYKqX+tobrX0izzuHAOTgHF5prqY7uW5gyJBTzmqYdXVgCsLK/0ltTOOy5SoKOZATyf0KsX9C3aBgXbbWM6N8kL5aVweUCUFZtwzZNMp2NHLdIAcdSt+6E0sHwblvoMjQa8CiV74yz2xDNrzEAQJnEYAcnEVM/HpLrcvsyNTrnqHXwFSULBXIwWRLpDaKO23R6kEORAVztVoEhbpBIUOvAWsb1NWBKehm+q+eWXPV33FfPQQgB/WwbV6yOYBMDitbXa3XIMMELyajQg7mtpVFd5s7TR64igDkYBWaXD+Q014/IGRJDWNtg/q6MA++GT5n0d9cnrff2kIOOpEtb4v1A0KGNesZUqivBxmIwFodM+hwJy45fTMgB+lF+Hjp6rZuwzWHwPf3A0aWlDBI4n1Z92wvGZb87sAld9EEyEEHYiR1sX5AUN9gydSYoaX6etADcSC1sQOn36AJkIMGINd8BEvk1g8IWXoN0IX6utADObBeRg4Q2EMAcrCHkPjvpC7WDwhZ3rRYLrm+LvRADqwNGVJyxV1v99WDHCQWMavg1Q8Gn737KoWGsFxyfV3ohRhYO0htTGHWoZWEHITCf/3hBIM2wSDL4jEQxTb60BNByDJcdt1LcucdBCAHd9ALvJdZ6fWDQYZtmScVZHipvj70RAymtpDaOFkQ/+cIQA7miCT4zK6LbQJBlnFZ1jZoow9TQO3pf5ZhswRuubsqQg4SipS3xPrBwMZkbegmw0EvUn196IkQzNuSZegsgy32VEfIQTJpkq7WJhBk6TUw9WW55DY6MQ+qvXwmtTFZEGhUXchBI6A9HmNvstYN2ItTUm1Hpl4DhhQgBh52lIkMe/hSythHAHKwj5HMFcxIbxMIMjlKhhTa6IRHAFYvI8OOozLOeICKQA6SCJnUxTZBIFP+t+kEQwpt9EI9sHvUj9TGJMGgUTUhB42AvvuYt+8/MJzwpn4gyLStLfNP6uuDR9DNVEaGPUTu+lLuP4YA5OAYTqFXmcHaG20mJ5O1rpnyviEHkANvO7OeKA4QMAQgBwn0gNTFNkEgY7cqO3K20Q3vIKxcHqmNCYJCgypCDhqAfOcRvB22c/5Zu1Qhj+10RDmoe9WN1MY7HrufeyEHwrIkdbGd08/YazCpLnrSTk+8ArB6OZnm3kx2wH9fBCAHvni6lkaaWjunbz00mQ+yWdrpinpg96ofqY2ZPcL9ukMO7mNYpQT2T2jn7HtZX54FkdrpjFcAVi7Hhqs4xkUAciAqeyaatXP0PU3AYo5KO71RDuxedcveoybq3lNUC3IgKCabGOdl3JSzHSwybct8VFUhltsyxyaO40Nq41Gr6+86yIGgTJl9ftx53XX0mZZKPqOqNsHyLjbc304PlbHuqWftjA2Nfi3kQEwD2D+hnUPOtMHSFTVlk652uqQc3O/WLdOS4lfshHuWEYAcLOMS8i1r5bd15r32GkzKSwZDW326G4SV7ye1cbKqcf5DDoRkTepiO2fee6/BpNZkMLTTKeXg7lG3TEuLT/rP/+sIQA6uY+d6J6mLbZ14770GpXIywbWtbnkEYsUyekn5LW2D83UEIAfr2DT9hRnm7Rz4iGOo7OrZTr8UA7tXnUhtbBoWQh8GOQiF/+PDyU1v67gzL5V8R13JYGirZ14BWakcI9YcYyAAOQiWs00aI3WxrdMeeeyUDIa2uqYU2L3qMtKQXHB4CH085CAU/seD1MW2znrUXoNJzcmIaatvXgFZqZwRh+Um+xnpP+QgUNqkmrV31Fm3ZfZUUzIY2uudUnD3qMvoJNvTHlXLghwESobUxbZOmo1kPik7GQxtdc8jIKuVMfLw3CdL6vcMchAkW1IX2ztnZlo/KztDWu11UC3A36kP+y4821NvnyAHQRJlEmJbx0yO9rKik0LbVg/vBGPFe9l3YdmuevgWchAgRVIX2ztknNi6okNU2+ujYqC/UidSG9ftKvsvkIPGErRJiKSTtXXGPW7L7Km2ZDC01ccrQVj5HlIbPa1RpyzIQWNZMAmxvSPGee0ruc2BUQ5A1K293ZzB3PSHoy8EIAcN5UnqYnsHZ92ehjvHPgJkMLTXzzMBWPlaUhv37SvbFZCDhhJjffv2zpdeg3MKbnMzlIMQdWtvQ0cxZw2Rc7amfjXkoJGEeCtr79RYye2acpPB0F5XjwZg5etIbbxmb6p3QQ4aSYYZ4e0dLr0G15UbfW2vr8qB/2jdyAq6bnNqd0IOGkiE1MX2jpZeg3uKTVZNe509GoCVr2OOzz27U7obclBZGjjZGCfLBKn7is0qnjG6qxz8j9TNhqU48iMAOagsQ1IXYxwsk6N8FJu5MjH6eyQIK19DaqOP/UWWAjmoiD5vXjGOlV4DX6UmgyFGj5WD/17dbM4KR24EIAcV5ces7xinSq+Bv1KjyzG6vBeElX9nozN/O2xZIuSgEtp0x8Y4U95YKin04/EggyFGp5UJwFbdbHIiR14EIAeVZIcjjXGkvK1UUujH42WlSfYFidHrrSCs/JttC86REwHIQQW5mUEoG2yvdWNb5grKPCuSeTSQgzP+g5TimQEl+gg5cBYW+yfEOU8WYHFW5pXiGDKL0/EzgVnlWlIbVwxJ/GvIgbOASF2McZxsy+ysyDvFsbBXjJ6rBPyz9fj2h592NIqf1RCAHDhKhC7XOIfJUsmOinywKDIY4vT9bHCOvp4hv4NGJXQZ5MBRGJZfH22EIz6fJVsdlfhkUeg8BOGoz2Gy8EnjCr4ccuAkALpZ45wkvQZOSnyhGJYHj9P7o0FZ5TpSGy8YWOAtkAMH8HGQcQ6S2dAOCnyzCCbhxum/SuA/Wg+I/E1ja3g75MABbFIX45zj2/cfHCRIEXcRsAlnRwME18XZSzT2kPm7ltbufsjBTax5a4pzdOZomAV9U4Edb2doLc4WooP+meez94mj0VUsCnJwE1x7cz1jGFzr50BxMjeVt8Lt2IOffvfsKyD1FYzPuUjIwQ1ATcHt7bVnI1ZuGxss3VDeireSwQBB2PMbti4JhzYCkIMb8mH/hDgnSK/BDcVtcCt7MMTZxl5gVvmdFU0bGOKNR0AOLoLH+Gqs86PX4KLiNrrN5uLY26FKIKIesfa6hL/1unLoIgA5uCAbUhdjHQ3bMl9Q2oBbyGCItZOlgKz2HdlGAYZ58JGQg4NAlZexf0Ks02OltVIbtc/ZpCnWVtTIwFJ9bNl5Dj0EIAcnZcL+CbHOjjXaTyqswOWsAxJrM0sBWek75g8JGOlCFSAHC6BsfUWqVqyjs0DDkQ8BMhhi7UaJDCzVhd5APZuGHJyQCV2ksQ6ObZlPKKvgpWQwxNrPUlBW+Y7URj2DhRyckAmpi7HOjXXZTyir4KVkMMTajwoRWKsHqY1aRgs5OCgPUhdjHZulPVlw4ciNgM3ZWQsOfB9rY9H4Y+Natg05OCAP3njinRa9BgcUNcklDM/F21M0Eb2c6HMAAA8CSURBVFh7/udffJNEi/uvJuTggIxJXYx1ZvZGQbrTAUVNdAkZDLE2tRacFb7H1jUMGXKwIwdSF+OdGG8TO0qa9GeTq0Iwog7xNl7KgEXONAwacrAjBxxYvONgB7cdJU38M5N84+2rDMwq56Q2xhs15GBDBoyNxjsuFkjZUNAOfmI+T7yNqRCCsh7suxBv3JCDDRnwVhPvuIygcfSNABkM8XZWBmaVcxY8i7V7yMEK/kyYindY9BqsKGeHX9NLF29vKqRgqgcTkWMNHXKwgL91dZpiTkrK/xjHRa/BgnJ2/JUtgoOtxdiaKu5MRo4zeMjBAvakLsY7KGYsLyjmAF8xATje9tSIAhOSYwwfcjDDndRFDefEbOWZYg70kbk+GjaoQhLYiTXG+CEHM9zZPS7eMbEJy0wpB/tow3ps0hRvhyrkwOrBy0J7JwA5KDBn/wQNh8Qs5UIpBz2lB0/DFlUIAqmN7R0B5OAXzHlb0XBGbMvc3gmoPpEMBg2bVCEI7K/S1lIhB7/gTeqihiPCAbR1AOpPozdPwy4VCAKpjW2tFXLweLxsBUzqYrwTMhlYDw4HCJQIkMEQb5sK5MDqwNonpWXUPYccPB6Pt+8/kF/9Jt4B0WtQ19gzl04GQ7x9qhAEUhvbWPLw5MDGNek1iHc8dBm2MfisT2FOULyNqpADspnaWPHw5IA3Eg2nw0pobQw+81OMIEDkNew1mijYapocdREYmhww2UnH0dBVWNfQeymdDAYdm40kCEYSOeoiMCw5oJtSx8kwyaiukfdWOqRex3YjCYLNFeOoh8Cw5ID9E3QcDBss1TPwXksmg0HHfiMJgi2WxVEHgSHJAauv6TgWeg3qGPYIpbLUuY4dRxEE/Ec9Sx+SHPDWoeNU6DWoZ9y9l8zQoI4dR5EDe64NM3H4IzAcOWBCk45DYVtmf4MerUQyGHTsOYogkNpYx+qHIwekLuo4E9KR6hj1aKVapktUYOK5Gv4EX+Jv9UORA1MgjFnDmNlgyd+YRy6RHkENu47yryyi5m/9w5AD6360gBSlvDz32XmxLbO/MY9eIsugP9vYaD6HhdR8PcAw5IDURR3HYSzfyBoHCHgjQAaDjp1HkBMWU/OzqCHIAamLWg6DDZb8DJiSXiPw2buv6CEU2Egtghwwyfm1PVz9ZghyQOqiDjmg1+CqqXLfUQQYQtSx9wiCQGrjUUvZvq57csBSq1qOgl6DbYPkVx8EyGDQsvuWJIF9F3xsqHtyQOqijpNgRrGP0VLKMQTIYNCx/ZbkwJ7FS8gxG9m6qmtyYDPiWyslz1t3SMwm3jJFfquBAD5g3R579lW8iNy3pm7JASun6TkFZhLfN1hKOI8AGQx6vqAFMWHfhfO2Ut7RLTkgdVHLIWCopdlx3hoBMhi0/EELcmDP4IXkuqV1SQ5IXdRzBGywdN1IufM+AmQw6PmEFgTBSCHHNQS6JAdMQtRyBPQaXDNO7vJFwF4aWgQknqHlf9h34ZoddUcOSF3UMkxzlOQdXzNO7vJHgAwGPf9Qm0yR2njNjroiB9Z1yNiilvHTrXfNMLmrHgJkMGj5iNrkwMontfG8PXVFDjB6PaOnS++8UXJHfQRYNVXPV9QmCTasxHEcgW7IAamLesbOtszHDZEr2yPA3CQ9n1GTIDD36ZyNdUMO2K5Vz9DpyjtnjFzdFgGGIfV8Rk1yYGWTNXXcxrogByZwm3RSW7Eo/7gzMXmY8+UAAWUEyGA4btM9+D/rzeQ4hkAX5IDuQT0Dp9fgmAFyVTwCZDDo+Y+aRIR5UMdsLj05IHVRz7DpNThmfFylg4AFjJoBibJ1/BSpjcfsLjU5YMxQx+BK50evwTHj4yotBMhg0PQnpW/xOmcTuH3bS00OLAh5KQvl+DgGY+WkDO0bHldoIsAQpY8fyOBP8VPbNpiWHJhgLRBlUMKR6ggj3zY4ftVGgN7IcciBEUGOdQTSkgO6ADWNmF3Q1o2NX3IgwIuHpm+p8ZLF0u7rNpmSHDC7WNN4WWRk3dD4JRcC+BhNH+NNEEhtXLfLlOSAcUFNwzWHygECvSBAJpSmn/EmCKQ2LltsOnLA/gmaBkuvwbKB8W1uBBi+1PQ3ngSBSdTLNpqKHNhkIesG8lQMyvIxfsbulg2Mb/MjQE+lj49Q9rVMpH5tp6nIAamLmkbKtsyvDYtv+kGADAZNv+NNNphM/WyzacgBM4h1DZQxu2ej4lN/CBhBIHVa1wd5EAVSG5/tNg05YOxP0zDZlvnZoPjULwJkMGj6IA9iMJXB8Ogn+01BDpg1rGuULJX8yZg46x8BfJGuL5oC/J3/1jvE8REBeXJg3XlMCNI0SDMkkw8HCIyEAL2Ymv7oDiko7+WF56M1y5MDUhd1DREjGikk0tYSAUvdLQMK57p+6qxsSG1MQA6YBKRrcPQalKGC8xERsCyds4GH63V9Wikb1m15PKR7Dkhd1DUkeg1GDIe0uUSAlxdd/1QG+qvno6c2ypIDUhd1DY9utzJEcD4yAhZArgYf7tP1cSab0fddkCUHTELUNRxWExs5HNL2OQKkOOr6qrsEbOQ1XCTJAelC2sY2enfbPDjwGQTevv9AD8Ibbb91hShYL+mohxw5sHE8JvroGhkTdUZ1FbR7DwEyGHT91hViMN0z6vwqOXLAJERtA2Nb5r0Qwe8jI8CLjbb/mgL+2f82B260Q4ocMPtX27BYe3w090B7zyJgPoydY7X92FliYNeP2GMqRQ4Yt9M2KtYdPxsquH5EBMhg0PZjV8iB3TNar6kMOWDGr7ZBsS3ziGGONl9FAH+m7c+uEITRUhtlyAGpi9rGNHJKz9UAwX1jI8DS79o+7QpBGMkPSpADUhe1jYhtmccOcrT+OgJs0qTt284ShJGWjQ8nB6Qu6hvPqKk810MCd4LAJwTIYND3cWdIwiiLwIWTA1IXtQ1nJKb8yZ1zBgJ+CJDBoO3jzhCD6doRUhtDyQH7J+gbDb0GfkGCksZFwHzdFFj4r+/39mQ0Qlp3KDlgPE7bSOg1GDeY0XJ/BMhg0PZ3e4Rg/nvvqd1h5ABD0TcUeg38AwQljo0AGQz6fm9OAtY+977vQhg5MNZlix7xp4vBCONqY4cqWh+BAD2m/RAEI3u9HmHkoFdAaRcIgAAILCFgExOtx5Teg37IgfUe9PoSBTlYsmK+AwEQAIGLCBgJsCWUbcEc6xm1yWsWRNa6p/k+N1noNbURcnDRAXAbCIDA2AhMJMCGSG1+jpEAW9MAIpA72F8ha0YGezsgB71JlPaAAAi4I1AOCVhvACRgPAKwRRp63HsGcuDuRigQBEAgKwJTb4DNC4AEQAC2CMH8t95SGyEHWb0Y9QYBELiMwEQC5kMCc4fPZwjCUR3oLbURcnDZvXAjCIBABgSMCBgJoDeAQH800F+9rqe1YSAHGbwbdQQBENhFgHkBBP+rQd3rvp5SGyEHuy6HC0AABJQQYEgAEuAVzGuU85vf/1XJXC7XBXJwGTpuBAEQqI2ALTAzDQmY0yVLAGJQI6B7l9lDaiPkoLZ3o3wQAIFdBBgSIOh7B+jI8n792z/v6rz6BZADdQlRPxDoCIGlIQFzpJGOnGdDTGrogK2QmfmAHGSWHnUHAWEEGBIg6NYIulnKzJ7aCDkQdq5UDQQyIMCQACQgS8BuXU9bSCvrATnIKjnqDQKNEWBIABLQOrj28LysuzZCDho7WB4HAuoILJEAsgQgBj0E6og2ZE1thByoe2rqBwIVEWBIgKAfETBHe2bGfRcgBxUdL0WDgAoCU2+AzaC2cVDbXpithSEGowXpqPZmTG2EHKh4b+oBAg4ITCRgvqEQRAAiEBUYee5H3cuW2gg5cHDIFAECEQgwJEDAJ/Dm0QEj6GazWQ7IQRZJUc9hEZh6AxgSyBMICNrIakkHPv/imzR+DHKQRlRUtHcEJhLAkACBZSmw8F0fepEltRFy0HvEoX2SCDAk0IejJ2Ajx7M6YJOBMxyQgwxSoo5pEZh6A373l3+8ZAmwXgDB5Gww4fr+dCZDaiPkIG3YoeJKCEwkYD4kgGPvz7EjU2R6Vwcy7LsAOVCKMNQlBQJGBIwEWG+ATTCiN4BgcTdYcP94OmT+Q/mAHChLh7qFIsC8gPEcNkEambfSAes9UJ6cCDkIDT88XAEBhgQICK0CAs9B10odUE5thBwoRCfq0AwBY+rTkIBtiMKQAM66dNacow+tdeDbH35q5v/OPAhycAYtrk2DAEMCOPnWTp7noXNXdMBeUBQPyIGiVKjTYQSWhgRsk5MrRso9OHd0AB2I0AHF1EbIweEwxIXRCDAkgOOOcNw8E72rrQOKqY2Qg+iIx/NfIcCQAM64tjOmfHRMTQfe/fHvr3xh5BeQg0j0B382QwI4aDUHTX3QySgdUEtthBwMHqBbNH+JBJAlgBOOcsI8F91T1QHLoFI5IAcqkuikHgwJ4HhVHS/1Qjcz6IBKaiPkoJOg3LoZU2/Al19//7KhkO00Zt1iGYyPOhIk0AF0QFUHLNtK4YAcKEhBuA4TCZhvKAQRwLmqOlfqhW5m1wF76Yo+IAfREhB+vnVvGSkwReUPDNABdAAdaKMDCuseQA6EgzNVAwEQAAEQAIEIBCAHEajzTBAAARAAARAQRgByICwcqgYCIAACIAACEQhADiJQ55kgAAIgAAIgIIwA5EBYOFQNBEAABEAABCIQgBxEoM4zQQAEQAAEQEAYAciBsHCoGgiAAAiAAAhEIAA5iECdZ4IACIAACICAMAKQA2HhUDUQAAEQAAEQiEAAchCBOs8EARAAARAAAWEEIAfCwqFqIAACIAACIBCBAOQgAnWeCQIgAAIgAALCCEAOhIVD1UAABEAABEAgAgHIQQTqPBMEQAAEQAAEhBGAHAgLh6qBAAiAAAiAQAQCkIMI1HkmCIAACIAACAgjADkQFg5VAwEQAAEQAIEIBCAHEajzTBAAARAAARAQRgByICwcqgYCIAACIAACEQhADiJQ55kgAAIgAAIgIIwA5EBYOFQNBEAABEAABCIQgBxEoM4zQQAEQAAEQEAYAciBsHCoGgiAAAiAAAhEIAA5iECdZ4IACIAACICAMAKQA2HhUDUQAAEQAAEQiEAAchCBOs8EARAAARAAAWEE/h/GRNMgKvSJ2QAAAABJRU5ErkJggg==;" parent="1" vertex="1">
          <mxGeometry x="1275" y="1586.66" width="30" height="22.37" as="geometry" />
        </mxCell>
        <mxCell id="Mwrt2MIfaS3BiG5PvJi2-216" value="" style="aspect=fixed;html=1;points=[];align=center;image;fontSize=12;image=img/lib/mscae/Service_Bus.svg;" parent="1" vertex="1">
          <mxGeometry x="1833" y="1393.53" width="28" height="28" as="geometry" />
        </mxCell>
        <mxCell id="Mwrt2MIfaS3BiG5PvJi2-217" value="" style="html=1;points=[];align=center;image;fontSize=12;image=img/lib/mscae/Azure_Database_for_PostgreSQL_servers.svg;" parent="1" vertex="1">
          <mxGeometry x="1835" y="1469.45" width="30" height="30" as="geometry" />
        </mxCell>
        <mxCell id="Mwrt2MIfaS3BiG5PvJi2-260" value="1" style="ellipse;whiteSpace=wrap;html=1;aspect=fixed;strokeWidth=2;fontFamily=Tahoma;spacingBottom=4;spacingRight=2;strokeColor=#d3d3d3;align=center;" parent="1" vertex="1">
          <mxGeometry x="966" y="1000" width="20" height="20" as="geometry" />
        </mxCell>
        <mxCell id="Mwrt2MIfaS3BiG5PvJi2-261" value="2" style="ellipse;whiteSpace=wrap;html=1;aspect=fixed;strokeWidth=2;fontFamily=Tahoma;spacingBottom=4;spacingRight=2;strokeColor=#d3d3d3;align=center;" parent="1" vertex="1">
          <mxGeometry x="1231" y="1060" width="20" height="20" as="geometry" />
        </mxCell>
        <mxCell id="Mwrt2MIfaS3BiG5PvJi2-262" value="3" style="ellipse;whiteSpace=wrap;html=1;aspect=fixed;strokeWidth=2;fontFamily=Tahoma;spacingBottom=4;spacingRight=2;strokeColor=#d3d3d3;align=center;" parent="1" vertex="1">
          <mxGeometry x="1580" y="1000" width="20" height="20" as="geometry" />
        </mxCell>
        <mxCell id="Mwrt2MIfaS3BiG5PvJi2-238" value="Application code uses Azure SDK to request token via NMI" style="text;html=1;strokeColor=none;fillColor=none;align=left;verticalAlign=middle;whiteSpace=wrap;rounded=0;" parent="1" vertex="1">
          <mxGeometry x="1382" y="1393.53" width="143" height="39.5" as="geometry" />
        </mxCell>
        <mxCell id="Mwrt2MIfaS3BiG5PvJi2-266" value="1" style="ellipse;whiteSpace=wrap;html=1;aspect=fixed;strokeWidth=2;fontFamily=Tahoma;spacingBottom=4;spacingRight=2;strokeColor=#d3d3d3;align=center;" parent="1" vertex="1">
          <mxGeometry x="1427.5" y="1365.66" width="20" height="20" as="geometry" />
        </mxCell>
        <mxCell id="Mwrt2MIfaS3BiG5PvJi2-268" value="2" style="ellipse;whiteSpace=wrap;html=1;aspect=fixed;strokeWidth=2;fontFamily=Tahoma;spacingBottom=4;spacingRight=2;strokeColor=#d3d3d3;align=center;" parent="1" vertex="1">
          <mxGeometry x="1301" y="1465.5" width="20" height="20" as="geometry" />
        </mxCell>
        <mxCell id="Mwrt2MIfaS3BiG5PvJi2-269" value="NMI queries MIC to see if Identity binding exists for the request" style="text;html=1;strokeColor=none;fillColor=none;align=left;verticalAlign=middle;whiteSpace=wrap;rounded=0;" parent="1" vertex="1">
          <mxGeometry x="1327" y="1452" width="180" height="50" as="geometry" />
        </mxCell>
        <mxCell id="Mwrt2MIfaS3BiG5PvJi2-272" value="3" style="ellipse;whiteSpace=wrap;html=1;aspect=fixed;strokeWidth=2;fontFamily=Tahoma;spacingBottom=4;spacingRight=2;strokeColor=#d3d3d3;align=center;" parent="1" vertex="1">
          <mxGeometry x="1357" y="1604.53" width="20" height="20" as="geometry" />
        </mxCell>
        <mxCell id="Mwrt2MIfaS3BiG5PvJi2-273" value="MIC queries application specific identity binding in cluster" style="text;html=1;strokeColor=none;fillColor=none;align=left;verticalAlign=middle;whiteSpace=wrap;rounded=0;" parent="1" vertex="1">
          <mxGeometry x="1382" y="1601" width="155" height="50" as="geometry" />
        </mxCell>
        <mxCell id="Mwrt2MIfaS3BiG5PvJi2-275" value="MIC confirms application has identity binding" style="text;html=1;strokeColor=none;fillColor=none;align=left;verticalAlign=middle;whiteSpace=wrap;rounded=0;" parent="1" vertex="1">
          <mxGeometry x="1103" y="1507" width="132" height="50" as="geometry" />
        </mxCell>
        <mxCell id="Mwrt2MIfaS3BiG5PvJi2-276" value="4" style="ellipse;whiteSpace=wrap;html=1;aspect=fixed;strokeWidth=2;fontFamily=Tahoma;spacingBottom=4;spacingRight=2;strokeColor=#d3d3d3;align=center;" parent="1" vertex="1">
          <mxGeometry x="1231" y="1521" width="20" height="20" as="geometry" />
        </mxCell>
        <mxCell id="Mwrt2MIfaS3BiG5PvJi2-279" value="5" style="ellipse;whiteSpace=wrap;html=1;aspect=fixed;strokeWidth=2;fontFamily=Tahoma;spacingBottom=4;spacingRight=2;strokeColor=#d3d3d3;align=center;" parent="1" vertex="1">
          <mxGeometry x="1147" y="1391.5" width="20" height="20" as="geometry" />
        </mxCell>
        <mxCell id="Mwrt2MIfaS3BiG5PvJi2-282" value="NMI retreives token from Active Directory" style="text;html=1;strokeColor=none;fillColor=none;align=left;verticalAlign=middle;whiteSpace=wrap;rounded=0;" parent="1" vertex="1">
          <mxGeometry x="1097" y="1400" width="132" height="50" as="geometry" />
        </mxCell>
        <mxCell id="Mwrt2MIfaS3BiG5PvJi2-284" value="6" style="ellipse;whiteSpace=wrap;html=1;aspect=fixed;strokeWidth=2;fontFamily=Tahoma;spacingBottom=4;spacingRight=2;strokeColor=#d3d3d3;align=center;" parent="1" vertex="1">
          <mxGeometry x="1321" y="1310" width="20" height="20" as="geometry" />
        </mxCell>
        <mxCell id="Mwrt2MIfaS3BiG5PvJi2-285" value="Token returned to application code" style="text;html=1;strokeColor=none;fillColor=none;align=left;verticalAlign=middle;whiteSpace=wrap;rounded=0;" parent="1" vertex="1">
          <mxGeometry x="1344.5" y="1290" width="132" height="40" as="geometry" />
        </mxCell>
        <mxCell id="Mwrt2MIfaS3BiG5PvJi2-287" value="7" style="ellipse;whiteSpace=wrap;html=1;aspect=fixed;strokeWidth=2;fontFamily=Tahoma;spacingBottom=4;spacingRight=2;strokeColor=#d3d3d3;align=center;" parent="1" vertex="1">
          <mxGeometry x="1748.5" y="1487" width="20" height="20" as="geometry" />
        </mxCell>
        <mxCell id="LVQJDPYkuoyfFsxwojwj-47" style="edgeStyle=orthogonalEdgeStyle;curved=1;rounded=0;orthogonalLoop=1;jettySize=auto;html=1;entryX=0.08;entryY=0.5;entryDx=0;entryDy=0;entryPerimeter=0;strokeWidth=6;fillColor=#0050ef;strokeColor=#001DBC;" parent="1" source="LVQJDPYkuoyfFsxwojwj-2" target="LVQJDPYkuoyfFsxwojwj-4" edge="1">
          <mxGeometry relative="1" as="geometry" />
        </mxCell>
        <mxCell id="LVQJDPYkuoyfFsxwojwj-2" value="Developer" style="shape=umlActor;verticalLabelPosition=bottom;verticalAlign=top;html=1;outlineConnect=0;" parent="1" vertex="1">
          <mxGeometry x="850" y="1838.25" width="70" height="139" as="geometry" />
        </mxCell>
        <mxCell id="LVQJDPYkuoyfFsxwojwj-4" value="" style="verticalLabelPosition=bottom;html=1;verticalAlign=top;align=center;strokeColor=none;shape=mxgraph.azure.laptop;pointerEvents=1;fillColor=#666666;" parent="1" vertex="1">
          <mxGeometry x="1003" y="1740" width="490" height="366" as="geometry" />
        </mxCell>
        <mxCell id="LVQJDPYkuoyfFsxwojwj-17" value="Development environment" style="rounded=1;whiteSpace=wrap;html=1;fillColor=#FFFFFF;verticalAlign=top;" parent="1" vertex="1">
          <mxGeometry x="1095" y="1766" width="310" height="246" as="geometry" />
        </mxCell>
        <mxCell id="LVQJDPYkuoyfFsxwojwj-18" value="Application" style="rounded=1;whiteSpace=wrap;html=1;verticalAlign=top;" parent="1" vertex="1">
          <mxGeometry x="1105" y="1822" width="140" height="180" as="geometry" />
        </mxCell>
        <mxCell id="LVQJDPYkuoyfFsxwojwj-19" value="Behaviour code" style="rounded=1;whiteSpace=wrap;html=1;fillColor=#FFFFFF;verticalAlign=top;" parent="1" vertex="1">
          <mxGeometry x="1113.5" y="1852" width="120" height="60" as="geometry" />
        </mxCell>
        <mxCell id="LVQJDPYkuoyfFsxwojwj-20" value="Behaviour test code" style="rounded=1;whiteSpace=wrap;html=1;fillColor=#FFFFFF;verticalAlign=top;" parent="1" vertex="1">
          <mxGeometry x="1113.5" y="1931" width="120" height="60" as="geometry" />
        </mxCell>
        <mxCell id="LVQJDPYkuoyfFsxwojwj-21" value="" style="shape=image;html=1;verticalAlign=top;verticalLabelPosition=bottom;labelBackgroundColor=#ffffff;imageAspect=0;aspect=fixed;image=https://cdn0.iconfinder.com/data/icons/icocentre-free-icons/152/f-code-icon_128-128.png;fillColor=#FFFFFF;" parent="1" vertex="1">
          <mxGeometry x="1160" y="1879" width="28" height="28" as="geometry" />
        </mxCell>
        <mxCell id="LVQJDPYkuoyfFsxwojwj-22" value="" style="shape=image;html=1;verticalAlign=top;verticalLabelPosition=bottom;labelBackgroundColor=#ffffff;imageAspect=0;aspect=fixed;image=https://cdn0.iconfinder.com/data/icons/icocentre-free-icons/152/f-code-icon_128-128.png;fillColor=#FFFFFF;" parent="1" vertex="1">
          <mxGeometry x="1160" y="1955" width="28" height="28" as="geometry" />
        </mxCell>
        <mxCell id="LVQJDPYkuoyfFsxwojwj-23" value="Database" style="rounded=1;whiteSpace=wrap;html=1;fillColor=#FFFFFF;verticalAlign=top;" parent="1" vertex="1">
          <mxGeometry x="1275" y="1852" width="120" height="60" as="geometry" />
        </mxCell>
        <mxCell id="LVQJDPYkuoyfFsxwojwj-24" value="Message Broker" style="rounded=1;whiteSpace=wrap;html=1;fillColor=#FFFFFF;verticalAlign=top;" parent="1" vertex="1">
          <mxGeometry x="1275" y="1931" width="120" height="60" as="geometry" />
        </mxCell>
        <mxCell id="LVQJDPYkuoyfFsxwojwj-25" value="" style="shape=cylinder2;whiteSpace=wrap;html=1;boundedLbl=1;backgroundOutline=1;size=6;fillColor=#fff2cc;aspect=fixed;strokeColor=#d6b656;" parent="1" vertex="1">
          <mxGeometry x="1322.5" y="1876.34" width="25" height="33.33" as="geometry" />
        </mxCell>
        <mxCell id="LVQJDPYkuoyfFsxwojwj-26" value="" style="html=1;verticalLabelPosition=bottom;align=center;labelBackgroundColor=#ffffff;verticalAlign=top;strokeWidth=2;strokeColor=#0080F0;shadow=0;dashed=0;shape=mxgraph.ios7.icons.mail;fillColor=#FFFFFF;" parent="1" vertex="1">
          <mxGeometry x="1322.5" y="1960.75" width="30" height="16.5" as="geometry" />
        </mxCell>
        <mxCell id="LVQJDPYkuoyfFsxwojwj-27" value="" style="shape=image;html=1;verticalAlign=top;verticalLabelPosition=bottom;labelBackgroundColor=#ffffff;imageAspect=0;aspect=fixed;image=https://cdn4.iconfinder.com/data/icons/logos-and-brands/512/97_Docker_logo_logos-128.png;fillColor=#FFFFFF;" parent="1" vertex="1">
          <mxGeometry x="1235" y="1792" width="30" height="30" as="geometry" />
        </mxCell>
        <mxCell id="LVQJDPYkuoyfFsxwojwj-30" value="" style="group" parent="1" vertex="1" connectable="0">
          <mxGeometry x="1603" y="1776" width="380" height="276" as="geometry" />
        </mxCell>
        <mxCell id="LVQJDPYkuoyfFsxwojwj-29" value="" style="shape=process;whiteSpace=wrap;html=1;backgroundOutline=1;fillColor=#B9E0A5;" parent="LVQJDPYkuoyfFsxwojwj-30" vertex="1">
          <mxGeometry x="-60" y="-20" width="440" height="280" as="geometry" />
        </mxCell>
        <mxCell id="LVQJDPYkuoyfFsxwojwj-15" value="CI environment" style="rounded=1;whiteSpace=wrap;html=1;fillColor=#FFFFFF;verticalAlign=top;" parent="LVQJDPYkuoyfFsxwojwj-30" vertex="1">
          <mxGeometry width="310" height="246" as="geometry" />
        </mxCell>
        <mxCell id="LVQJDPYkuoyfFsxwojwj-1" value="Application" style="rounded=1;whiteSpace=wrap;html=1;verticalAlign=top;" parent="LVQJDPYkuoyfFsxwojwj-30" vertex="1">
          <mxGeometry x="10" y="56" width="140" height="180" as="geometry" />
        </mxCell>
        <mxCell id="LVQJDPYkuoyfFsxwojwj-7" value="Behaviour code" style="rounded=1;whiteSpace=wrap;html=1;fillColor=#FFFFFF;verticalAlign=top;" parent="LVQJDPYkuoyfFsxwojwj-30" vertex="1">
          <mxGeometry x="18.5" y="86" width="120" height="60" as="geometry" />
        </mxCell>
        <mxCell id="LVQJDPYkuoyfFsxwojwj-8" value="Behaviour test code" style="rounded=1;whiteSpace=wrap;html=1;fillColor=#FFFFFF;verticalAlign=top;" parent="LVQJDPYkuoyfFsxwojwj-30" vertex="1">
          <mxGeometry x="18.5" y="165" width="120" height="60" as="geometry" />
        </mxCell>
        <mxCell id="LVQJDPYkuoyfFsxwojwj-9" value="" style="shape=image;html=1;verticalAlign=top;verticalLabelPosition=bottom;labelBackgroundColor=#ffffff;imageAspect=0;aspect=fixed;image=https://cdn0.iconfinder.com/data/icons/icocentre-free-icons/152/f-code-icon_128-128.png;fillColor=#FFFFFF;" parent="LVQJDPYkuoyfFsxwojwj-30" vertex="1">
          <mxGeometry x="65" y="113" width="28" height="28" as="geometry" />
        </mxCell>
        <mxCell id="LVQJDPYkuoyfFsxwojwj-10" value="" style="shape=image;html=1;verticalAlign=top;verticalLabelPosition=bottom;labelBackgroundColor=#ffffff;imageAspect=0;aspect=fixed;image=https://cdn0.iconfinder.com/data/icons/icocentre-free-icons/152/f-code-icon_128-128.png;fillColor=#FFFFFF;" parent="LVQJDPYkuoyfFsxwojwj-30" vertex="1">
          <mxGeometry x="65" y="189" width="28" height="28" as="geometry" />
        </mxCell>
        <mxCell id="LVQJDPYkuoyfFsxwojwj-11" value="Database" style="rounded=1;whiteSpace=wrap;html=1;fillColor=#FFFFFF;verticalAlign=top;" parent="LVQJDPYkuoyfFsxwojwj-30" vertex="1">
          <mxGeometry x="180" y="86" width="120" height="60" as="geometry" />
        </mxCell>
        <mxCell id="LVQJDPYkuoyfFsxwojwj-12" value="Message Broker" style="rounded=1;whiteSpace=wrap;html=1;fillColor=#FFFFFF;verticalAlign=top;" parent="LVQJDPYkuoyfFsxwojwj-30" vertex="1">
          <mxGeometry x="180" y="165" width="120" height="60" as="geometry" />
        </mxCell>
        <mxCell id="LVQJDPYkuoyfFsxwojwj-13" value="" style="shape=cylinder2;whiteSpace=wrap;html=1;boundedLbl=1;backgroundOutline=1;size=6;fillColor=#fff2cc;aspect=fixed;strokeColor=#d6b656;" parent="LVQJDPYkuoyfFsxwojwj-30" vertex="1">
          <mxGeometry x="227.5" y="110.33999999999992" width="25" height="33.33" as="geometry" />
        </mxCell>
        <mxCell id="LVQJDPYkuoyfFsxwojwj-14" value="" style="html=1;verticalLabelPosition=bottom;align=center;labelBackgroundColor=#ffffff;verticalAlign=top;strokeWidth=2;strokeColor=#0080F0;shadow=0;dashed=0;shape=mxgraph.ios7.icons.mail;fillColor=#FFFFFF;" parent="LVQJDPYkuoyfFsxwojwj-30" vertex="1">
          <mxGeometry x="227.5" y="194.75" width="30" height="16.5" as="geometry" />
        </mxCell>
        <mxCell id="LVQJDPYkuoyfFsxwojwj-16" value="" style="shape=image;html=1;verticalAlign=top;verticalLabelPosition=bottom;labelBackgroundColor=#ffffff;imageAspect=0;aspect=fixed;image=https://cdn4.iconfinder.com/data/icons/logos-and-brands/512/97_Docker_logo_logos-128.png;fillColor=#FFFFFF;" parent="LVQJDPYkuoyfFsxwojwj-30" vertex="1">
          <mxGeometry x="140" y="26" width="30" height="30" as="geometry" />
        </mxCell>
        <mxCell id="LVQJDPYkuoyfFsxwojwj-32" value="" style="group" parent="1" vertex="1" connectable="0">
          <mxGeometry x="2113" y="1776" width="540" height="290" as="geometry" />
        </mxCell>
        <mxCell id="LVQJDPYkuoyfFsxwojwj-45" value="" style="html=1;verticalLabelPosition=bottom;align=center;labelBackgroundColor=#ffffff;verticalAlign=top;strokeWidth=2;strokeColor=#0080F0;shadow=0;dashed=0;shape=mxgraph.ios7.icons.cloud;fillColor=#FFFFFF;" parent="LVQJDPYkuoyfFsxwojwj-32" vertex="1">
          <mxGeometry x="-50" y="-70" width="530" height="380" as="geometry" />
        </mxCell>
        <mxCell id="LVQJDPYkuoyfFsxwojwj-34" value="Cloud environment" style="rounded=1;whiteSpace=wrap;html=1;fillColor=#FFFFFF;verticalAlign=top;" parent="LVQJDPYkuoyfFsxwojwj-32" vertex="1">
          <mxGeometry x="70" y="50" width="310" height="246" as="geometry" />
        </mxCell>
        <mxCell id="LVQJDPYkuoyfFsxwojwj-35" value="Application" style="rounded=1;whiteSpace=wrap;html=1;verticalAlign=top;" parent="LVQJDPYkuoyfFsxwojwj-32" vertex="1">
          <mxGeometry x="80" y="106" width="140" height="180" as="geometry" />
        </mxCell>
        <mxCell id="LVQJDPYkuoyfFsxwojwj-36" value="Behaviour code" style="rounded=1;whiteSpace=wrap;html=1;fillColor=#FFFFFF;verticalAlign=top;" parent="LVQJDPYkuoyfFsxwojwj-32" vertex="1">
          <mxGeometry x="88.5" y="136" width="120" height="60" as="geometry" />
        </mxCell>
        <mxCell id="LVQJDPYkuoyfFsxwojwj-37" value="Behaviour test code" style="rounded=1;whiteSpace=wrap;html=1;fillColor=#FFFFFF;verticalAlign=top;" parent="LVQJDPYkuoyfFsxwojwj-32" vertex="1">
          <mxGeometry x="88.5" y="215" width="120" height="60" as="geometry" />
        </mxCell>
        <mxCell id="LVQJDPYkuoyfFsxwojwj-38" value="" style="shape=image;html=1;verticalAlign=top;verticalLabelPosition=bottom;labelBackgroundColor=#ffffff;imageAspect=0;aspect=fixed;image=https://cdn0.iconfinder.com/data/icons/icocentre-free-icons/152/f-code-icon_128-128.png;fillColor=#FFFFFF;" parent="LVQJDPYkuoyfFsxwojwj-32" vertex="1">
          <mxGeometry x="135" y="163" width="28" height="28" as="geometry" />
        </mxCell>
        <mxCell id="LVQJDPYkuoyfFsxwojwj-39" value="" style="shape=image;html=1;verticalAlign=top;verticalLabelPosition=bottom;labelBackgroundColor=#ffffff;imageAspect=0;aspect=fixed;image=https://cdn0.iconfinder.com/data/icons/icocentre-free-icons/152/f-code-icon_128-128.png;fillColor=#FFFFFF;" parent="LVQJDPYkuoyfFsxwojwj-32" vertex="1">
          <mxGeometry x="135" y="239" width="28" height="28" as="geometry" />
        </mxCell>
        <mxCell id="LVQJDPYkuoyfFsxwojwj-40" value="Database" style="rounded=1;whiteSpace=wrap;html=1;fillColor=#FFFFFF;verticalAlign=top;" parent="LVQJDPYkuoyfFsxwojwj-32" vertex="1">
          <mxGeometry x="250" y="136" width="120" height="60" as="geometry" />
        </mxCell>
        <mxCell id="LVQJDPYkuoyfFsxwojwj-41" value="Message Broker" style="rounded=1;whiteSpace=wrap;html=1;fillColor=#FFFFFF;verticalAlign=top;" parent="LVQJDPYkuoyfFsxwojwj-32" vertex="1">
          <mxGeometry x="250" y="215" width="120" height="60" as="geometry" />
        </mxCell>
        <mxCell id="LVQJDPYkuoyfFsxwojwj-42" value="" style="shape=cylinder2;whiteSpace=wrap;html=1;boundedLbl=1;backgroundOutline=1;size=6;fillColor=#fff2cc;aspect=fixed;strokeColor=#d6b656;" parent="LVQJDPYkuoyfFsxwojwj-32" vertex="1">
          <mxGeometry x="297.5" y="160.33999999999992" width="25" height="33.33" as="geometry" />
        </mxCell>
        <mxCell id="LVQJDPYkuoyfFsxwojwj-43" value="" style="html=1;verticalLabelPosition=bottom;align=center;labelBackgroundColor=#ffffff;verticalAlign=top;strokeWidth=2;strokeColor=#0080F0;shadow=0;dashed=0;shape=mxgraph.ios7.icons.mail;fillColor=#FFFFFF;" parent="LVQJDPYkuoyfFsxwojwj-32" vertex="1">
          <mxGeometry x="297.5" y="244.75" width="30" height="16.5" as="geometry" />
        </mxCell>
        <mxCell id="LVQJDPYkuoyfFsxwojwj-46" value="" style="endArrow=classic;html=1;exitX=0.5;exitY=1;exitDx=0;exitDy=0;exitPerimeter=0;entryX=0.25;entryY=1;entryDx=0;entryDy=0;edgeStyle=orthogonalEdgeStyle;curved=1;strokeWidth=6;fillColor=#0050ef;strokeColor=#001DBC;" parent="1" source="LVQJDPYkuoyfFsxwojwj-4" target="LVQJDPYkuoyfFsxwojwj-29" edge="1">
          <mxGeometry width="50" height="50" relative="1" as="geometry">
            <mxPoint x="1653" y="1816" as="sourcePoint" />
            <mxPoint x="1703" y="1766" as="targetPoint" />
            <Array as="points">
              <mxPoint x="1248" y="2166" />
              <mxPoint x="1653" y="2166" />
            </Array>
          </mxGeometry>
        </mxCell>
        <mxCell id="LVQJDPYkuoyfFsxwojwj-48" style="edgeStyle=orthogonalEdgeStyle;curved=1;rounded=0;orthogonalLoop=1;jettySize=auto;html=1;exitX=0.75;exitY=1;exitDx=0;exitDy=0;entryX=0.509;entryY=0.997;entryDx=0;entryDy=0;entryPerimeter=0;strokeWidth=6;fillColor=#0050ef;strokeColor=#001DBC;" parent="1" source="LVQJDPYkuoyfFsxwojwj-29" target="LVQJDPYkuoyfFsxwojwj-45" edge="1">
          <mxGeometry relative="1" as="geometry">
            <Array as="points">
              <mxPoint x="1873" y="2176" />
              <mxPoint x="2333" y="2176" />
            </Array>
          </mxGeometry>
        </mxCell>
        <mxCell id="LVQJDPYkuoyfFsxwojwj-49" style="edgeStyle=orthogonalEdgeStyle;curved=1;rounded=0;orthogonalLoop=1;jettySize=auto;html=1;entryX=0.08;entryY=0.5;entryDx=0;entryDy=0;entryPerimeter=0;strokeWidth=6;fillColor=#0050ef;strokeColor=#001DBC;" parent="1" source="LVQJDPYkuoyfFsxwojwj-50" target="LVQJDPYkuoyfFsxwojwj-51" edge="1">
          <mxGeometry relative="1" as="geometry" />
        </mxCell>
        <mxCell id="LVQJDPYkuoyfFsxwojwj-50" value="Developer" style="shape=umlActor;verticalLabelPosition=bottom;verticalAlign=top;html=1;outlineConnect=0;" parent="1" vertex="1">
          <mxGeometry x="827" y="2342.25" width="70" height="139" as="geometry" />
        </mxCell>
        <mxCell id="LVQJDPYkuoyfFsxwojwj-51" value="" style="verticalLabelPosition=bottom;html=1;verticalAlign=top;align=center;strokeColor=none;shape=mxgraph.azure.laptop;pointerEvents=1;fillColor=#666666;" parent="1" vertex="1">
          <mxGeometry x="980" y="2244" width="490" height="366" as="geometry" />
        </mxCell>
        <mxCell id="LVQJDPYkuoyfFsxwojwj-52" value="Development environment" style="rounded=1;whiteSpace=wrap;html=1;fillColor=#FFFFFF;verticalAlign=top;" parent="1" vertex="1">
          <mxGeometry x="1072" y="2270" width="310" height="246" as="geometry" />
        </mxCell>
        <mxCell id="LVQJDPYkuoyfFsxwojwj-53" value="Application" style="rounded=1;whiteSpace=wrap;html=1;verticalAlign=top;" parent="1" vertex="1">
          <mxGeometry x="1082" y="2326" width="140" height="180" as="geometry" />
        </mxCell>
        <mxCell id="LVQJDPYkuoyfFsxwojwj-54" value="Behaviour code" style="rounded=1;whiteSpace=wrap;html=1;fillColor=#FFFFFF;verticalAlign=top;" parent="1" vertex="1">
          <mxGeometry x="1090.5" y="2356" width="120" height="60" as="geometry" />
        </mxCell>
        <mxCell id="LVQJDPYkuoyfFsxwojwj-55" value="Behaviour test code" style="rounded=1;whiteSpace=wrap;html=1;fillColor=#FFFFFF;verticalAlign=top;" parent="1" vertex="1">
          <mxGeometry x="1090.5" y="2435" width="120" height="60" as="geometry" />
        </mxCell>
        <mxCell id="LVQJDPYkuoyfFsxwojwj-56" value="" style="shape=image;html=1;verticalAlign=top;verticalLabelPosition=bottom;labelBackgroundColor=#ffffff;imageAspect=0;aspect=fixed;image=https://cdn0.iconfinder.com/data/icons/icocentre-free-icons/152/f-code-icon_128-128.png;fillColor=#FFFFFF;" parent="1" vertex="1">
          <mxGeometry x="1137" y="2383" width="28" height="28" as="geometry" />
        </mxCell>
        <mxCell id="LVQJDPYkuoyfFsxwojwj-57" value="" style="shape=image;html=1;verticalAlign=top;verticalLabelPosition=bottom;labelBackgroundColor=#ffffff;imageAspect=0;aspect=fixed;image=https://cdn0.iconfinder.com/data/icons/icocentre-free-icons/152/f-code-icon_128-128.png;fillColor=#FFFFFF;" parent="1" vertex="1">
          <mxGeometry x="1137" y="2459" width="28" height="28" as="geometry" />
        </mxCell>
        <mxCell id="LVQJDPYkuoyfFsxwojwj-58" value="Database" style="rounded=1;whiteSpace=wrap;html=1;fillColor=#FFFFFF;verticalAlign=top;" parent="1" vertex="1">
          <mxGeometry x="1252" y="2356" width="120" height="60" as="geometry" />
        </mxCell>
        <mxCell id="LVQJDPYkuoyfFsxwojwj-59" value="Message Broker" style="rounded=1;whiteSpace=wrap;html=1;fillColor=#FFFFFF;verticalAlign=top;" parent="1" vertex="1">
          <mxGeometry x="1252" y="2435" width="120" height="60" as="geometry" />
        </mxCell>
        <mxCell id="LVQJDPYkuoyfFsxwojwj-60" value="" style="shape=cylinder2;whiteSpace=wrap;html=1;boundedLbl=1;backgroundOutline=1;size=6;fillColor=#fff2cc;aspect=fixed;strokeColor=#d6b656;" parent="1" vertex="1">
          <mxGeometry x="1299.5" y="2380.34" width="25" height="33.33" as="geometry" />
        </mxCell>
        <mxCell id="LVQJDPYkuoyfFsxwojwj-61" value="" style="html=1;verticalLabelPosition=bottom;align=center;labelBackgroundColor=#ffffff;verticalAlign=top;strokeWidth=2;strokeColor=#0080F0;shadow=0;dashed=0;shape=mxgraph.ios7.icons.mail;fillColor=#FFFFFF;" parent="1" vertex="1">
          <mxGeometry x="1299.5" y="2464.75" width="30" height="16.5" as="geometry" />
        </mxCell>
        <mxCell id="LVQJDPYkuoyfFsxwojwj-62" value="" style="shape=image;html=1;verticalAlign=top;verticalLabelPosition=bottom;labelBackgroundColor=#ffffff;imageAspect=0;aspect=fixed;image=https://cdn4.iconfinder.com/data/icons/logos-and-brands/512/97_Docker_logo_logos-128.png;fillColor=#FFFFFF;" parent="1" vertex="1">
          <mxGeometry x="1212" y="2296" width="30" height="30" as="geometry" />
        </mxCell>
        <mxCell id="LVQJDPYkuoyfFsxwojwj-63" value="" style="group" parent="1" vertex="1" connectable="0">
          <mxGeometry x="1580" y="2280" width="380" height="276" as="geometry" />
        </mxCell>
        <mxCell id="LVQJDPYkuoyfFsxwojwj-64" value="" style="shape=process;whiteSpace=wrap;html=1;backgroundOutline=1;fillColor=#B9E0A5;" parent="LVQJDPYkuoyfFsxwojwj-63" vertex="1">
          <mxGeometry x="-60" y="-20" width="440" height="280" as="geometry" />
        </mxCell>
        <mxCell id="LVQJDPYkuoyfFsxwojwj-65" value="CI environment" style="rounded=1;whiteSpace=wrap;html=1;fillColor=#FFFFFF;verticalAlign=top;" parent="LVQJDPYkuoyfFsxwojwj-63" vertex="1">
          <mxGeometry width="310" height="246" as="geometry" />
        </mxCell>
        <mxCell id="LVQJDPYkuoyfFsxwojwj-66" value="Application" style="rounded=1;whiteSpace=wrap;html=1;verticalAlign=top;" parent="LVQJDPYkuoyfFsxwojwj-63" vertex="1">
          <mxGeometry x="10" y="56" width="140" height="180" as="geometry" />
        </mxCell>
        <mxCell id="LVQJDPYkuoyfFsxwojwj-67" value="Behaviour code" style="rounded=1;whiteSpace=wrap;html=1;fillColor=#FFFFFF;verticalAlign=top;" parent="LVQJDPYkuoyfFsxwojwj-63" vertex="1">
          <mxGeometry x="18.5" y="86" width="120" height="60" as="geometry" />
        </mxCell>
        <mxCell id="LVQJDPYkuoyfFsxwojwj-68" value="Behaviour test code" style="rounded=1;whiteSpace=wrap;html=1;fillColor=#FFFFFF;verticalAlign=top;" parent="LVQJDPYkuoyfFsxwojwj-63" vertex="1">
          <mxGeometry x="18.5" y="165" width="120" height="60" as="geometry" />
        </mxCell>
        <mxCell id="LVQJDPYkuoyfFsxwojwj-69" value="" style="shape=image;html=1;verticalAlign=top;verticalLabelPosition=bottom;labelBackgroundColor=#ffffff;imageAspect=0;aspect=fixed;image=https://cdn0.iconfinder.com/data/icons/icocentre-free-icons/152/f-code-icon_128-128.png;fillColor=#FFFFFF;" parent="LVQJDPYkuoyfFsxwojwj-63" vertex="1">
          <mxGeometry x="65" y="113" width="28" height="28" as="geometry" />
        </mxCell>
        <mxCell id="LVQJDPYkuoyfFsxwojwj-70" value="" style="shape=image;html=1;verticalAlign=top;verticalLabelPosition=bottom;labelBackgroundColor=#ffffff;imageAspect=0;aspect=fixed;image=https://cdn0.iconfinder.com/data/icons/icocentre-free-icons/152/f-code-icon_128-128.png;fillColor=#FFFFFF;" parent="LVQJDPYkuoyfFsxwojwj-63" vertex="1">
          <mxGeometry x="65" y="189" width="28" height="28" as="geometry" />
        </mxCell>
        <mxCell id="LVQJDPYkuoyfFsxwojwj-71" value="Database" style="rounded=1;whiteSpace=wrap;html=1;fillColor=#FFFFFF;verticalAlign=top;" parent="LVQJDPYkuoyfFsxwojwj-63" vertex="1">
          <mxGeometry x="180" y="86" width="120" height="60" as="geometry" />
        </mxCell>
        <mxCell id="LVQJDPYkuoyfFsxwojwj-72" value="Message Broker" style="rounded=1;whiteSpace=wrap;html=1;fillColor=#FFFFFF;verticalAlign=top;" parent="LVQJDPYkuoyfFsxwojwj-63" vertex="1">
          <mxGeometry x="180" y="165" width="120" height="60" as="geometry" />
        </mxCell>
        <mxCell id="LVQJDPYkuoyfFsxwojwj-73" value="" style="shape=cylinder2;whiteSpace=wrap;html=1;boundedLbl=1;backgroundOutline=1;size=6;fillColor=#fff2cc;aspect=fixed;strokeColor=#d6b656;" parent="LVQJDPYkuoyfFsxwojwj-63" vertex="1">
          <mxGeometry x="227.5" y="110.33999999999992" width="25" height="33.33" as="geometry" />
        </mxCell>
        <mxCell id="LVQJDPYkuoyfFsxwojwj-74" value="" style="html=1;verticalLabelPosition=bottom;align=center;labelBackgroundColor=#ffffff;verticalAlign=top;strokeWidth=2;strokeColor=#0080F0;shadow=0;dashed=0;shape=mxgraph.ios7.icons.mail;fillColor=#FFFFFF;" parent="LVQJDPYkuoyfFsxwojwj-63" vertex="1">
          <mxGeometry x="227.5" y="194.75" width="30" height="16.5" as="geometry" />
        </mxCell>
        <mxCell id="LVQJDPYkuoyfFsxwojwj-75" value="" style="shape=image;html=1;verticalAlign=top;verticalLabelPosition=bottom;labelBackgroundColor=#ffffff;imageAspect=0;aspect=fixed;image=https://cdn4.iconfinder.com/data/icons/logos-and-brands/512/97_Docker_logo_logos-128.png;fillColor=#FFFFFF;" parent="LVQJDPYkuoyfFsxwojwj-63" vertex="1">
          <mxGeometry x="140" y="26" width="30" height="30" as="geometry" />
        </mxCell>
        <mxCell id="LVQJDPYkuoyfFsxwojwj-90" value="" style="shape=image;html=1;verticalAlign=top;verticalLabelPosition=bottom;labelBackgroundColor=#ffffff;imageAspect=0;aspect=fixed;image=https://cdn4.iconfinder.com/data/icons/core-ui-outlined/32/outlined_close-128.png;fillColor=#FFFFFF;" parent="LVQJDPYkuoyfFsxwojwj-63" vertex="1">
          <mxGeometry x="193" y="143.67000000000007" width="99" height="99" as="geometry" />
        </mxCell>
        <mxCell id="LVQJDPYkuoyfFsxwojwj-76" value="" style="html=1;verticalLabelPosition=bottom;align=center;labelBackgroundColor=#ffffff;verticalAlign=top;strokeWidth=2;strokeColor=#0080F0;shadow=0;dashed=0;shape=mxgraph.ios7.icons.cloud;fillColor=#FFFFFF;" parent="1" vertex="1">
          <mxGeometry x="2040" y="2210" width="530" height="380" as="geometry" />
        </mxCell>
        <mxCell id="LVQJDPYkuoyfFsxwojwj-77" value="Cloud environment" style="rounded=1;whiteSpace=wrap;html=1;fillColor=#FFFFFF;verticalAlign=top;" parent="1" vertex="1">
          <mxGeometry x="2160" y="2330" width="310" height="246" as="geometry" />
        </mxCell>
        <mxCell id="LVQJDPYkuoyfFsxwojwj-78" value="Application" style="rounded=1;whiteSpace=wrap;html=1;verticalAlign=top;" parent="1" vertex="1">
          <mxGeometry x="2170" y="2386" width="140" height="180" as="geometry" />
        </mxCell>
        <mxCell id="LVQJDPYkuoyfFsxwojwj-79" value="Behaviour code" style="rounded=1;whiteSpace=wrap;html=1;fillColor=#FFFFFF;verticalAlign=top;" parent="1" vertex="1">
          <mxGeometry x="2178.5" y="2416" width="120" height="60" as="geometry" />
        </mxCell>
        <mxCell id="LVQJDPYkuoyfFsxwojwj-80" value="Behaviour test code" style="rounded=1;whiteSpace=wrap;html=1;fillColor=#FFFFFF;verticalAlign=top;" parent="1" vertex="1">
          <mxGeometry x="2178.5" y="2495" width="120" height="60" as="geometry" />
        </mxCell>
        <mxCell id="LVQJDPYkuoyfFsxwojwj-81" value="" style="shape=image;html=1;verticalAlign=top;verticalLabelPosition=bottom;labelBackgroundColor=#ffffff;imageAspect=0;aspect=fixed;image=https://cdn0.iconfinder.com/data/icons/icocentre-free-icons/152/f-code-icon_128-128.png;fillColor=#FFFFFF;" parent="1" vertex="1">
          <mxGeometry x="2225" y="2443" width="28" height="28" as="geometry" />
        </mxCell>
        <mxCell id="LVQJDPYkuoyfFsxwojwj-82" value="" style="shape=image;html=1;verticalAlign=top;verticalLabelPosition=bottom;labelBackgroundColor=#ffffff;imageAspect=0;aspect=fixed;image=https://cdn0.iconfinder.com/data/icons/icocentre-free-icons/152/f-code-icon_128-128.png;fillColor=#FFFFFF;" parent="1" vertex="1">
          <mxGeometry x="2225" y="2519" width="28" height="28" as="geometry" />
        </mxCell>
        <mxCell id="LVQJDPYkuoyfFsxwojwj-83" value="Database" style="rounded=1;whiteSpace=wrap;html=1;fillColor=#FFFFFF;verticalAlign=top;" parent="1" vertex="1">
          <mxGeometry x="2340" y="2416" width="120" height="60" as="geometry" />
        </mxCell>
        <mxCell id="LVQJDPYkuoyfFsxwojwj-84" value="Message Broker" style="rounded=1;whiteSpace=wrap;html=1;fillColor=#FFFFFF;verticalAlign=top;" parent="1" vertex="1">
          <mxGeometry x="2340" y="2495" width="120" height="60" as="geometry" />
        </mxCell>
        <mxCell id="LVQJDPYkuoyfFsxwojwj-85" value="" style="shape=cylinder2;whiteSpace=wrap;html=1;boundedLbl=1;backgroundOutline=1;size=6;fillColor=#fff2cc;aspect=fixed;strokeColor=#d6b656;" parent="1" vertex="1">
          <mxGeometry x="2387.5" y="2440.34" width="25" height="33.33" as="geometry" />
        </mxCell>
        <mxCell id="LVQJDPYkuoyfFsxwojwj-86" value="" style="html=1;verticalLabelPosition=bottom;align=center;labelBackgroundColor=#ffffff;verticalAlign=top;strokeWidth=2;strokeColor=#0080F0;shadow=0;dashed=0;shape=mxgraph.ios7.icons.mail;fillColor=#FFFFFF;" parent="1" vertex="1">
          <mxGeometry x="2387.5" y="2524.75" width="30" height="16.5" as="geometry" />
        </mxCell>
        <mxCell id="LVQJDPYkuoyfFsxwojwj-87" value="" style="endArrow=classic;html=1;exitX=0.5;exitY=1;exitDx=0;exitDy=0;exitPerimeter=0;entryX=0.25;entryY=1;entryDx=0;entryDy=0;edgeStyle=orthogonalEdgeStyle;curved=1;strokeWidth=6;fillColor=#0050ef;strokeColor=#001DBC;" parent="1" source="LVQJDPYkuoyfFsxwojwj-51" target="LVQJDPYkuoyfFsxwojwj-64" edge="1">
          <mxGeometry width="50" height="50" relative="1" as="geometry">
            <mxPoint x="1630" y="2320" as="sourcePoint" />
            <mxPoint x="1680" y="2270" as="targetPoint" />
            <Array as="points">
              <mxPoint x="1225" y="2670" />
              <mxPoint x="1630" y="2670" />
            </Array>
          </mxGeometry>
        </mxCell>
        <mxCell id="LVQJDPYkuoyfFsxwojwj-88" style="edgeStyle=orthogonalEdgeStyle;curved=1;rounded=0;orthogonalLoop=1;jettySize=auto;html=1;exitX=0.75;exitY=1;exitDx=0;exitDy=0;entryX=0.509;entryY=0.997;entryDx=0;entryDy=0;entryPerimeter=0;strokeWidth=6;fillColor=#0050ef;strokeColor=#001DBC;" parent="1" source="LVQJDPYkuoyfFsxwojwj-64" target="LVQJDPYkuoyfFsxwojwj-76" edge="1">
          <mxGeometry relative="1" as="geometry">
            <Array as="points">
              <mxPoint x="1850" y="2680" />
              <mxPoint x="2310" y="2680" />
            </Array>
          </mxGeometry>
        </mxCell>
        <mxCell id="LVQJDPYkuoyfFsxwojwj-89" value="" style="shape=image;html=1;verticalAlign=top;verticalLabelPosition=bottom;labelBackgroundColor=#ffffff;imageAspect=0;aspect=fixed;image=https://cdn4.iconfinder.com/data/icons/core-ui-outlined/32/outlined_close-128.png;fillColor=#FFFFFF;" parent="1" vertex="1">
          <mxGeometry x="1262.5" y="2417" width="99" height="99" as="geometry" />
        </mxCell>
        <mxCell id="LVQJDPYkuoyfFsxwojwj-91" value="" style="endArrow=classic;html=1;strokeWidth=6;fontColor=#000000;exitX=0.5;exitY=1;exitDx=0;exitDy=0;edgeStyle=orthogonalEdgeStyle;curved=1;dashed=1;entryX=0.5;entryY=1;entryDx=0;entryDy=0;fillColor=#e51400;strokeColor=#B20000;" parent="1" source="LVQJDPYkuoyfFsxwojwj-84" target="LVQJDPYkuoyfFsxwojwj-65" edge="1">
          <mxGeometry width="50" height="50" relative="1" as="geometry">
            <mxPoint x="2420" y="2660" as="sourcePoint" />
            <mxPoint x="2420" y="2680" as="targetPoint" />
            <Array as="points">
              <mxPoint x="2400" y="2750" />
              <mxPoint x="1735" y="2750" />
            </Array>
          </mxGeometry>
        </mxCell>
        <mxCell id="LVQJDPYkuoyfFsxwojwj-92" value="" style="endArrow=classic;html=1;strokeWidth=6;fontColor=#000000;edgeStyle=orthogonalEdgeStyle;curved=1;dashed=1;entryX=0.5;entryY=1;entryDx=0;entryDy=0;fillColor=#e51400;strokeColor=#B20000;" parent="1" target="LVQJDPYkuoyfFsxwojwj-52" edge="1">
          <mxGeometry width="50" height="50" relative="1" as="geometry">
            <mxPoint x="2400" y="2560" as="sourcePoint" />
            <mxPoint x="1745" y="2536" as="targetPoint" />
            <Array as="points">
              <mxPoint x="2400" y="2800" />
              <mxPoint x="1210" y="2800" />
              <mxPoint x="1210" y="2570" />
              <mxPoint x="1227" y="2570" />
            </Array>
          </mxGeometry>
        </mxCell>
      </root>
    </mxGraphModel>
  </diagram>
</mxfile>
